<?xml version="1.0" encoding="utf-8"?>
<!-- Generator: Adobe Illustrator 15.0.1, SVG Export Plug-In . SVG Version: 6.00 Build 0)  -->
<!DOCTYPE svg PUBLIC "-//W3C//DTD SVG 1.1//EN" "http://www.w3.org/Graphics/SVG/1.1/DTD/svg11.dtd">
<svg version="1.1"
	 id="svg2" xmlns:svg="http://www.w3.org/2000/svg" sodipodi:version="0.32" inkscape:version="0.43" sodipodi:docname="Blank_US_map.svg" sodipodi:docbase="C:\Backups from C\Eigene Bilder\Maps" xmlns:inkscape="http://www.inkscape.org/namespaces/inkscape" xmlns:sodipodi="http://inkscape.sourceforge.net/DTD/sodipodi-0.dtd" xmlns:rdf="http://www.w3.org/1999/02/22-rdf-syntax-ns#" xmlns:cc="http://web.resource.org/cc/" xmlns:dc="http://purl.org/dc/elements/1.1/"
	 xmlns="http://www.w3.org/2000/svg" xmlns:xlink="http://www.w3.org/1999/xlink" x="0px" y="0px" width="958.691px"
	 height="592.79px" viewBox="0 0 958.691 592.79" enable-background="new 0 0 958.691 592.79" xml:space="preserve">
<sodipodi:namedview  id="base" borderopacity="1.0" inkscape:window-height="968" bordercolor="#666666" inkscape:window-width="1280" inkscape:pageshadow="2" inkscape:pageopacity="0.0" pagecolor="#ffffff" inkscape:cy="295.6903" inkscape:zoom="1.2402348" inkscape:cx="479.34472" inkscape:window-x="-4" inkscape:window-y="-4" inkscape:current-layer="svg2">
	</sodipodi:namedview>
<rect id="water" x="1.953" y="1.956" fill="none" width="955.486" height="590.287"/>
<g id="States" transform="translate(-17.49179,-131.9412)">
	<path id="HI" fill="#FFFFFF" d="M242.962,653.592l1.875-3.438l2.188-0.312l0.312,0.781l-2.031,2.969H242.962z M252.805,649.998
		l5.938,2.5l2.031-0.312l1.562-3.75l-0.625-3.281l-4.062-0.469l-3.906,1.719L252.805,649.998z M282.493,659.686l3.594,5.312
		l2.344-0.312l1.094-0.469l1.406,1.25l3.594-0.156l0.938-1.406l-2.812-1.719l-1.875-3.594l-2.031-3.438l-5.625,2.812
		L282.493,659.686z M302.024,668.28l1.25-1.875l4.531,0.938l0.625-0.469l5.938,0.625l-0.312,1.25l-2.5,1.406l-4.219-0.312
		L302.024,668.28z M307.18,673.28l1.875,3.75l2.969-1.094l0.312-1.562l-1.562-2.031l-3.594-0.312V673.28z M313.9,672.186
		l2.188-2.812l4.531,2.344l4.218,1.094l4.219,2.656v1.875l-3.438,1.719l-4.687,0.938l-2.344-1.406L313.9,672.186z M329.993,687.186
		l1.562-1.25l3.281,1.562l7.344,3.439l3.281,2.031l1.562,2.344l1.875,4.219l3.906,2.5l-0.312,1.25l-3.75,3.125l-4.062,1.406
		l-1.406-0.625l-2.969,1.719l-2.344,3.125l-2.188,2.812l-1.719-0.156l-3.438-2.5l-0.312-4.375l0.625-2.344L329.368,700l-2.031-1.719
		l-0.156-2.5l2.188-0.938l2.031-2.969l0.469-0.938l-1.562-1.721L329.993,687.186z"/>
	<path id="AK" fill="#FFFFFF" d="M170.461,590.155l-0.312,82.5l1.562,0.938l2.969,0.156l1.406-1.094h2.5l0.156,2.812l6.719,6.562
		l0.469,2.5l3.281-1.875l0.625-0.156l0.312-2.969l1.406-1.562l1.094-0.156l1.875-1.406l2.969,2.031l0.625,2.812l1.875,1.094
		l1.094,2.344l3.75,1.719l3.281,5.783l2.656,3.75l2.188,2.656l1.406,3.594l4.844,1.719l5,2.031l0.938,4.219l0.469,2.969
		l-0.938,3.281l-1.719,2.188l-1.562-0.781l-1.406-2.969l-2.656-1.406l-1.719-1.094l-0.781,0.781l1.406,2.656l0.156,3.594
		l-1.094,0.469l-1.875-1.875l-2.031-1.25l0.469,1.562l1.25,1.719l-0.781,0.781c0,0-0.781-0.312-1.25-0.938s-2.031-3.281-2.031-3.281
		l-0.938-2.188c0,0-0.312,1.25-0.938,0.938s-1.25-1.406-1.25-1.406l1.719-1.875l-1.406-1.406v-4.844h-0.781l-0.781,3.281
		l-1.094,0.469l-0.938-3.594l-0.625-3.594l-0.781-0.469l0.312,5.469v1.094l-1.406-1.25l-3.438-5.781l-2.031-0.469l-0.625-3.594
		l-1.562-2.812l-1.562-1.094v-2.188l2.031-1.25l-0.469-0.312l-2.5,0.625l-3.281-2.346l-2.5-2.812l-4.688-2.5l-3.906-2.5l1.25-3.125
		v-1.562l-1.719,1.562l-2.812,1.094l-3.594-1.094l-5.469-2.344h-5.312l-0.625,0.469l-6.25-3.75l-2.031-0.312l-2.656-5.625
		l-3.438,0.312l-3.438,1.406l0.469,4.375l1.094-2.812l0.938,0.312l-1.406,4.219l3.125-2.656l0.625,1.562l-3.75,4.219l-1.25-0.312
		l-0.469-1.875l-1.25-0.781l-1.25,1.094l-2.656-1.719l-2.969,2.031l-1.719,2.031l-3.281,2.031l-4.531-0.156l-0.469-2.031
		l3.594-0.625v-1.25l-2.188-0.625l0.938-2.344l2.188-3.75v-1.719l0.156-0.781l4.219-2.188l0.938,1.25h2.656l-1.25-2.5l-3.594-0.312
		l-4.844,2.656l-2.344,3.281l-1.719,2.5l-1.094,2.188l-4.062,1.406l-2.969,2.5l-0.312,1.562l2.188,0.938l0.781,2.031l-2.656,3.125
		l-6.25,4.062l-7.5,4.064l-2.031,1.094l-5.156,1.094l-5.156,2.188l1.719,1.25l-1.406,1.406l-0.469,1.094l-2.656-0.938l-3.125,0.156
		l-0.781,2.188h-0.938l0.312-2.344l-3.438,1.25l-2.812,0.938l-3.281-1.25l-2.812,1.875h-3.125l-2.031,1.25l-1.562,0.781
		l-2.031-0.312l-2.5-1.094l-2.188,0.625l-0.938,0.938l-1.562-1.094v-1.875l2.969-1.25l6.094,0.625l4.219-1.562l2.031-2.031
		l2.812-0.625l1.719-0.781l2.656,0.156l1.562,1.25l0.938-0.312l2.188-2.656l2.969-0.938l3.281-0.625l1.25-0.312l0.625,0.469h0.781
		l1.25-3.596l3.906-1.406l1.875-3.594l2.188-4.375l1.562-1.406l0.312-2.5l-1.562,1.25l-3.281,0.625l-0.625-2.344l-1.25-0.312
		l-0.938,0.938l-0.156,2.812l-1.406-0.156l-1.406-5.625l-1.25,1.25l-1.094-0.469l-0.312-1.875l-3.906,0.156l-2.031,1.094l-2.5-0.312
		l1.406-1.406l0.469-2.5l-0.625-1.875l1.406-0.938l1.25-0.156l-0.625-1.719v-4.219l-0.938-0.938l-0.781,1.406h-5.938l-1.406-1.25
		l-0.625-3.75l-2.031-3.438v-0.938l2.031-0.781l0.156-2.031l1.094-1.094l-0.781-0.469l-1.25,0.469l-1.094-2.656l0.938-4.844
		l4.375-3.125l2.5-1.562l1.875-3.594l2.656-1.25l2.5,1.094l0.312,2.344l2.344-0.312l3.125-2.344l1.562,0.625l0.938,0.625h1.562
		l2.188-1.25l0.781-4.219c0,0,0.312-2.812,0.938-3.281s0.938-0.938,0.938-0.938l-1.094-1.875l-2.5,0.781l-3.125,0.781l-1.875-0.469
		l-3.438-1.719l-4.844-0.156l-3.438-3.594l0.469-3.75l0.625-2.344l-2.031-1.719l-1.875-3.594l0.469-0.781l6.562-0.469h2.031
		l0.938,0.938h0.625l-0.156-1.562l3.75-0.625l2.5,0.312l1.406,1.094l-1.406,2.031l-0.469,1.406l2.656,1.562l4.844,1.719l1.719-0.938
		l-2.188-4.219l-0.938-3.125l0.938-0.781l-3.281-1.875l-0.469-1.094l0.469-1.562l-0.781-3.75l-2.812-4.531l-2.344-4.062l2.812-1.875
		h3.125l1.719,0.625l4.062-0.156l3.594-3.438l1.094-2.969l3.594-2.344l1.562,0.938l2.656-0.625l3.594-2.031l1.094-0.156l0.938,0.781
		l4.375-0.156l2.656-2.969h1.094l3.438,2.344l1.875,2.031l-0.469,1.094l0.625,1.094l1.562-1.562l3.75,0.312l0.312,3.594l1.875,1.406
		l6.875,0.625l6.094,4.062l1.406-0.938l5,2.5l2.031-0.625l1.875-0.781l4.688,1.875L170.461,590.155z M59.211,618.123l2.031,5.156
		l-0.156,0.938l-2.812-0.312l-1.719-3.906l-1.719-1.406h-2.344l-0.156-2.5l1.719-2.344l1.094,2.344l1.406,1.406L59.211,618.123z
		 M56.711,650.467l3.594,0.781l3.594,0.938l0.781,0.938l-1.562,3.594l-2.969-0.156l-3.281-3.438L56.711,650.467z M36.711,636.873
		l1.094,2.5l1.094,1.562l-1.094,0.781l-2.031-2.969v-1.875H36.711z M23.429,707.5l3.281-2.188l3.281-0.938l2.5,0.312l0.469,1.562
		l1.875,0.469l1.875-1.875l-0.312-1.562l2.656-0.625l2.812,2.5l-1.094,1.719l-4.219,1.094l-2.656-0.469l-3.594-1.094l-4.219,1.406
		l-1.562,0.312L23.429,707.5z M70.773,703.125L72.336,705l2.031-1.562l-1.406-1.25L70.773,703.125z M73.586,706.094l1.094-2.188
		l2.031,0.312l-0.781,1.875H73.586z M96.398,704.219l1.406,1.719l0.938-1.094l-0.781-1.875L96.398,704.219z M104.836,692.188
		l1.094,5.625l2.812,0.781l4.844-2.812l4.219-2.5l-1.562-2.344l0.469-2.346l-2.031,1.252l-2.812-0.783l1.562-1.094l1.875,0.781
		l3.75-1.719l0.469-1.406l-2.344-0.781l0.781-1.875l-2.656,1.875l-4.531,3.438l-4.688,2.814L104.836,692.188z M145.774,672.967
		l2.344-1.406l-0.938-1.719l-1.719,0.938L145.774,672.967z"/>
	<path id="FL" fill="#FFFFFF" d="M747.962,581.406l2.018,7.928l3.605,9.416l5.156,9.062l3.594,6.094l4.688,5.312l3.906,3.594
		l1.562,2.812l-1.094,1.25l-0.781,1.25l2.812,7.188l2.812,2.812l2.5,5.156l3.438,5.625l4.375,7.969l1.25,7.344l0.469,11.562
		l0.625,1.719l-0.312,3.281l-2.344,1.25l0.312,1.875l-0.625,1.875l0.312,2.344L786.71,690l-2.656,3.125l-2.969,1.406l-3.75,0.156
		l-1.406,1.562l-2.344,0.938l-1.25-0.469l-1.094-0.938l-0.312-2.812l-0.781-3.281l-3.281-5l-3.438-2.188l-3.75-0.312l-0.781,1.25
		l-2.969-4.219l-0.625-3.438l-2.5-3.906l-1.719-1.094l-1.562,2.031l-1.719-0.312l-2.031-4.844l-2.812-3.75l-2.812-5.156l-2.5-2.969
		l-3.438-3.594l2.031-2.344l3.125-5.312l-0.156-1.562l-4.375-0.938l-1.562,0.625l0.312,0.625l2.5,0.938l-1.406,4.375l-0.781,0.469
		l-1.719-3.906l-1.25-4.688l-0.312-2.656l1.406-4.531v-9.219l-2.969-3.594l-1.25-2.969l-5-1.25l-1.875-0.625l-1.562-2.5
		l-3.281-1.562l-1.094-3.281l-2.656-0.938l-2.344-3.594l-4.062-1.406l-2.812-1.406h-2.5l-3.906,0.781l-0.156,1.875l0.781,0.938
		l-0.469,1.094l-2.969-0.156l-3.594,3.438l-3.438,1.875h-3.75l-3.125,1.25l-0.312-2.656l-1.562-1.875l-2.812-1.094L673.741,605
		l-7.812-3.75l-7.344-1.719l-4.219,0.625l-5.781,0.469l-5.781,2.031l-3.363,0.592l-0.229-7.779l-2.5-1.875l-1.719-1.719l0.312-2.969
		l9.844-1.25l24.688-2.812l6.562-0.625l5.938-0.156l2.5,3.75l1.406,1.406l7.656,0.156l10.457-0.625l20.793-1.25l5.264-0.652
		l4.424,0.027l0.156,2.812l2.5,0.781l0.312-4.219l-1.562-4.375l1.094-1.562l5.625,0.781L747.962,581.406z M759.915,710.235
		l2.344-0.625l1.25-0.234l1.406-2.266l2.266-1.562l1.25,0.469l1.641,0.312l0.391,1.016l-3.359,1.172l-4.062,1.406l-2.266,1.172
		L759.915,710.235z M772.962,705.391l1.172,1.016l2.656-2.031l5.156-4.062l3.594-3.75l2.422-6.406l0.938-1.641l0.156-3.281
		l-0.703,0.469l-0.938,2.734l-1.406,4.453l-3.125,5.078l-4.219,4.062l-3.281,1.875L772.962,705.391z"/>
	<path id="SC" fill="#FFFFFF" d="M753.429,550.781l-1.717,0.938l-2.5-1.25l-0.625-2.031l-1.25-3.438l-2.188-2.031l-2.5-0.625
		l-1.562-4.688l-2.656-5.781L734.368,530l-2.031-1.875l-1.25-2.5l-2.031-1.875l-2.188-1.25l-2.188-2.812l-2.969-2.188l-4.375-1.719
		l-0.469-1.406l-2.344-2.813l-0.469-1.406l-3.281-5l-3.281,0.156l-3.906-2.344l-1.25-1.25l-0.312-1.719l0.781-1.875l2.188-0.938
		l-0.312-2.031l5.938-2.5l8.75-4.375l7.031-0.781l15.938-0.469l2.188,1.875l1.562,3.125l4.219-0.469l12.188-1.406l2.812,0.781
		l12.188,7.344l9.77,7.851l-5.24,5.275l-2.5,5.938l-0.469,6.094l-1.562,0.781l-1.094,2.656l-2.344,0.625l-2.031,3.438l-2.656,2.656
		l-2.188,3.281l-1.562,0.781l-3.438,3.281l-2.812,0.156l0.938,3.125l-4.844,5.312L753.429,550.781z"/>
	<path id="GA" fill="#FFFFFF" d="M684.212,497.656l-4.688,0.781l-8.125,1.094l-8.281,0.859v2.109l0.156,2.031l0.625,3.281
		l3.281,7.657l2.344,9.531l1.406,5.938l1.562,4.688l1.406,6.719l2.031,6.094l2.5,3.281L678.9,555l1.875,0.781l0.156,2.031
		l-1.719,4.688l-0.469,3.125l-0.156,1.875l1.562,4.219l0.312,5.156l-0.781,2.344l0.625,0.781l1.406,0.781l0.625,3.281l2.5,3.75
		l1.406,1.406l7.656,0.156l10.457-0.625l20.793-1.25l5.264-0.652l4.424,0.027l0.156,2.812l2.5,0.781l0.312-4.219l-1.562-4.375
		l1.094-1.562l5.625,0.781l4.811,0.307l-0.75-6.088l2.188-9.688l1.406-4.062l-0.469-2.5l3.906-6.719l-0.578-1.562l-1.764,0.938
		l-2.5-1.25l-0.625-2.031l-1.25-3.438l-2.188-2.031l-2.5-0.625l-1.562-4.688l-2.656-5.781L734.368,530l-2.031-1.875l-1.25-2.5
		l-2.031-1.875l-2.188-1.25l-2.188-2.812l-2.969-2.188l-4.375-1.719l-0.469-1.406l-2.344-2.813l-0.469-1.406l-3.281-5l-3.281,0.156
		l-3.906-2.344l-1.25-1.25l-0.312-1.719l0.781-1.875l2.188-0.938l-0.156-2.206l-1.719,0.487l-5.625,0.938l-6.719,0.781
		L684.212,497.656z"/>
	<path id="AL" fill="#FFFFFF" d="M622.335,602.813l-1.561-14.688L618.118,570l0.156-13.594l0.781-30l-0.156-16.095l0.158-6.204
		l7.498-0.358l26.875-2.5l9.83-0.859l-0.143,2.109l0.156,2.031l0.625,3.281l3.281,7.657l2.344,9.531l1.406,5.938l1.562,4.688
		l1.406,6.719l2.031,6.094l2.5,3.281L678.9,555l1.875,0.781l0.156,2.031l-1.719,4.688l-0.469,3.125l-0.156,1.875l1.562,4.219
		l0.312,5.156l-0.781,2.344l0.625,0.781l1.406,0.781l0.781,3.438H676.4l-6.562,0.625l-24.688,2.812l-9.844,1.25l-0.312,2.969
		l1.719,1.719l2.5,1.875l0.561,7.67l-6.344,2.486l-2.656-0.312l2.656-1.875V602.5l-2.969-5.781l-2.188-0.625l-1.406,4.219
		l-1.25,2.656l-0.625-0.156H622.335z"/>
	<path id="NC" fill="#FFFFFF" d="M821.933,440.147l1.652,4.541l3.438,6.25l2.344,2.344l0.625,2.188l-2.344,0.156l0.781,0.625
		l-0.312,4.062l-2.5,1.25l-0.625,2.031l-1.25,2.812l-3.594,1.562l-2.344-0.312l-1.406-0.156l-1.562-1.25l0.312,1.25v0.938h1.875
		l0.781,1.25l-1.875,6.094h4.062l0.625,1.562l2.188-2.188l1.25-0.469l-1.875,3.438l-2.969,4.688h-1.25l-1.094-0.469l-2.656,0.625
		l-5,2.344l-6.25,5.156L799.679,495l-1.875,6.25l-0.469,2.344l-4.531,0.469l-5.697,2.146l-9.613-7.929l-12.188-7.344l-2.812-0.781
		l-12.188,1.406l-4.219,0.469l-1.562-3.125l-2.188-1.875l-15.938,0.469l-7.031,0.781l-8.75,4.375l-5.938,2.5l-1.562,0.312
		l-5.625,0.938l-6.719,0.781l-6.562,0.469l0.312-4.688l1.719-1.406l2.656-0.625l0.625-3.594l4.062-2.656l3.75-1.406l4.062-3.438
		l4.219-2.031l0.625-2.969l3.75-3.75l0.625-0.156c0,0,0,1.094,0.781,1.094s1.875,0.312,1.875,0.312l2.188-3.438l2.031-0.625
		l2.188,0.312l1.562-3.438l2.812-2.5l0.469-2.031v-3.828l4.375,0.703l6.896-1.25l15.291-1.875l16.562-2.5l19.912-3.647l18.525-3.696
		l11.094-2.812L821.933,440.147z M825.698,472.03l2.5-2.422l3.047-2.5l1.484-0.625l0.156-1.953l-0.625-5.938l-1.406-2.266
		l-0.625-1.797l0.703-0.234l2.656,5.312l0.391,4.297l-0.156,3.281l-3.281,1.484l-2.734,2.344l-1.094,1.172L825.698,472.03z"/>
	<path id="TN" fill="#FFFFFF" d="M691.4,461.562l-50.156,4.844l-15.232,1.719l-4.467,0.495l-3.738-0.026v3.75l-8.125,0.469
		l-6.719,0.625l-10.725,0.052l-0.258,5.64l-2.066,6.065l-0.961,2.915l-1.303,4.234l-0.312,2.5l-3.906,2.188l1.406,3.438
		l-0.938,4.219l-1.484,1.641l7.891-0.078l23.281-1.875l5.156-0.156l7.812-0.469l26.875-2.5l9.83-0.781l8.139-0.938l8.125-1.094
		l4.688-0.781l0.312-4.688l1.719-1.406l2.656-0.625l0.625-3.594l4.062-2.656l3.75-1.406l4.062-3.438l4.219-2.031l0.625-2.969
		l3.75-3.75l0.625-0.156c0,0,0,1.094,0.781,1.094s1.875,0.312,1.875,0.312l2.188-3.438l2.031-0.625l2.188,0.312l1.562-3.438
		l2.812-2.5l0.469-2.031l0.17-3.8l-2.201,0.05l-2.344,1.875l-7.656,0.156l-11.594,1.837L691.4,461.562z"/>
	<path id="RI" fill="#FFFFFF" d="M862.491,325.469l-0.467-4.063l-0.781-4.219l-1.641-5.703l5.547-1.484l1.562,1.094l3.281,4.219
		l2.812,4.297l-2.814,1.485l-1.25-0.156l-1.094,1.719l-2.344,1.875L862.491,325.469z"/>
	<path id="CT" fill="#FFFFFF" d="M862.96,325.469l-0.936-4.063l-0.781-4.219l-1.562-5.781l-5,1.094l-21.094,4.609l0.625,3.203
		l1.406,7.031v7.812l-1.094,2.188l1.771,2.039l4.789-3.288l3.438-3.125l1.875-2.031l0.781,0.625l2.656-1.406l5-1.094L862.96,325.469
		z"/>
	<path id="MA" fill="#FFFFFF" d="M887.532,319.697l2.098-0.663l0.443-1.657l0.994,0.11l0.994,2.21l-1.215,0.442l-3.758,0.11
		L887.532,319.697z M878.472,320.47l2.209-2.542h1.547l1.768,1.437l-2.32,0.994l-2.098,0.995L878.472,320.47z M844.837,299.218
		l16.875-4.062l2.188-0.625l2.031-3.125l3.611-1.607l2.793,4.265l-2.344,5l-0.312,1.406l1.875,2.5l1.094-0.781h1.719l2.188,2.5
		l3.75,5.781l3.438,0.469l2.188-0.938l1.719-1.719l-0.781-2.656l-2.031-1.562l-1.406,0.781l-0.938-1.25l0.469-0.469l2.031-0.156
		l1.719,0.781l1.875,2.344l0.938,2.812l0.312,2.344l-4.062,1.406l-3.75,1.875l-3.75,4.375l-1.875,1.406v-0.938l2.344-1.406
		l0.469-1.719l-0.781-2.969l-2.812,1.406l-0.781,1.406l0.469,2.188l-2.654,1.406l-2.656-4.375l-3.281-4.219l-1.562-1.094
		l-5.547,1.484l-4.922,1.016l-21.094,4.609l-0.938-5.547l0.625-10.234l5-0.859L844.837,299.218"/>
	<path id="ME" fill="#FFFFFF" d="M909.991,226.406l1.875,2.031l2.188,3.594v1.875l-2.031,4.531l-1.875,0.625l-3.281,2.969
		l-4.688,5.312c0,0-0.625,0-1.25,0s-0.938-2.031-0.938-2.031l-1.719,0.156l-0.938,1.406l-2.344,1.406l-0.938,1.406l1.562,1.406
		l-0.469,0.625l-0.469,2.656l-1.875-0.156v-1.562l-0.312-1.25l-1.406,0.312l-1.719-3.125l-2.031,1.25l1.25,1.406l0.312,1.094
		l-0.781,1.25l0.312,2.969l0.156,1.562l-1.562,2.5l-2.812,0.469l-0.312,2.812l-5.156,2.969l-1.25,0.469l-1.562-1.406l-2.969,3.438
		l0.938,3.125l-1.406,1.25l-0.156,4.219l-1.523,7.366l-2.381-1.117l-0.469-2.969l-3.75-1.094l-0.312-2.656l-7.031-22.656
		l-4.605-14.28l2.359-0.333l1.463,0.396v-2.5l0.781-5.312l2.5-4.531l1.406-3.906l-1.875-2.344v-5.781l0.781-0.938l0.781-2.656
		l-0.156-1.406l-0.156-4.688l1.719-4.688l2.812-8.594l2.031-4.062h1.25l1.25,0.156v1.094l1.25,2.188l2.656,0.625l0.781-0.781v-0.938
		l3.906-2.812l1.719-1.719l1.406,0.156l5.781,2.344l1.875,0.938l8.75,28.906h5.781l0.781,1.875l0.156,4.688l2.812,2.188h0.781
		l0.156-0.469l-0.469-1.094L909.991,226.406z M889.761,255.545l1.484-1.484l1.328,1.016l0.547,2.344l-1.641,0.859L889.761,255.545z
		 M896.245,249.842l1.719,1.797c0,0,1.25,0.078,1.25-0.234s0.234-1.953,0.234-1.953l0.859-0.781l-0.781-1.719l-1.953,0.703
		L896.245,249.842z"/>
	<path id="NH" fill="#FFFFFF" d="M869.544,289.76l0.291-1.479l1.055-3.181l-2.459-0.883l-0.469-2.969l-3.75-1.094l-0.312-2.656
		l-7.031-22.656l-4.447-14.057l-0.867-0.005l-0.625,1.562l-0.625-0.469l-0.938-0.938l-1.406,1.875l-0.924,5.303l0.301,5.478
		l1.875,2.656v3.906l-3.594,3.906l-2.5,1.094v1.094l1.094,1.719v8.281l-0.781,8.906l-0.156,4.688l0.938,1.25l-0.156,4.375
		l-0.469,1.719l1.406,1.953l16.719-3.984l2.188-0.625l2.031-3.125L869.544,289.76z"/>
	<path id="VT" fill="#FFFFFF" d="M833.431,301.561l-0.781-5.469l-2.969-10.625l-0.625-0.312l-2.812-1.25l0.781-2.812l-0.781-2.031
		l-2.5-4.375l0.938-3.75l-0.781-5l-2.344-6.25l-0.779-4.758l26.248-6.96l0.312,5.625l1.875,2.656v3.906l-3.594,3.906l-2.5,1.094
		v1.094l1.094,1.719v8.281l-0.781,8.906l-0.156,4.688l0.938,1.25l-0.156,4.375l-0.469,1.719l1.406,1.953l-6.719,1.328
		L833.431,301.561z"/>
	<path id="NY" fill="#FFFFFF" d="M818.118,335.624l-1.094-0.938l-2.5-0.156l-2.188-1.875l-2.344-5.156l-2.904-0.899l-2.252-2.069
		l-17.969,3.906l-41.562,8.438l-8.594,1.406l-0.713-6.69l2.586-1.746l1.25-1.094l0.938-1.562l1.719-1.094l1.875-1.719l0.469-1.562
		l2.031-2.656l1.094-0.938l-0.156-0.938l-1.25-2.969l-1.719-0.156l-1.875-5.938l2.812-1.719l4.219-1.406l3.906-1.25l3.125-0.469
		l6.094-0.156l1.875,1.25l1.562,0.156l2.031-1.25l2.5-1.094l5-0.469l2.031-1.719l1.719-3.125l1.562-1.875h2.031l1.875-1.094
		l0.156-2.188l-1.406-2.031l-0.312-1.406l1.094-2.031v-1.406h-1.719l-1.719-0.781l-0.781-1.094l-0.156-2.5l5.625-5.312l0.625-0.781
		l1.406-2.812l2.812-4.375l2.656-3.594l2.031-2.344l2.334-1.764l2.979-1.205l5.312-1.25l3.125,0.156l4.375-1.406l7.312-2.001
		l0.502,4.813l2.344,6.25l0.781,5l-0.938,3.75l2.5,4.375l0.781,2.031l-0.781,2.812l2.812,1.25l0.625,0.312l2.969,10.625l0.469,5
		l-0.469,10.469l0.781,5.312l0.781,3.438l1.406,7.031v7.812l-1.094,2.188l1.777,1.926l-0.217,1.512l-1.875,1.719l0.312,1.25
		l1.25-0.312l1.406-1.25l2.188-2.5l1.094-0.625l1.562,0.625l2.188,0.156l7.656-3.75l2.812-2.656l1.25-1.406l4.062,1.562
		l-3.281,3.438l-3.75,2.812L846.085,345l-2.5,0.938l-5.625,1.875l-3.906,1.094l-1.465-0.515l-0.564-3.236l0.469-2.656l-0.156-2.031
		l-2.5-1.094l-4.375-0.938l-3.75-1.094L818.118,335.624z"/>
	<path id="NJ" fill="#FFFFFF" d="M818.118,335.624l-2.031,2.344v2.969l-1.875,2.969l-0.156,1.562l1.25,1.25l-0.156,2.344
		l-2.188,1.094l0.781,2.656l0.156,1.094l2.656,0.312l0.938,2.5l3.438,2.344l2.344,1.562v0.781l-3.125,2.969l-1.562,2.188
		l-1.406,2.656l-2.188,1.25l-1.172,0.703l-0.234,1.172l-0.588,2.52l1.055,2.169l3.125,2.812l4.688,2.188l3.906,0.625l0.156,1.406
		L825.148,385l0.312,2.656h0.781l2.031-2.344l0.781-4.688l2.656-3.906l2.969-6.25l1.094-5.312l-0.625-1.094L834.991,355
		l-1.562-3.281l-1.094,0.781l-2.656,0.312l-0.469-0.469l1.094-0.938l2.031-1.875l0.061-1.057l-0.371-3.319l0.469-2.656l-0.156-2.031
		l-2.5-1.094l-4.375-0.938l-3.75-1.094L818.118,335.624z"/>
	<path id="PA" fill="#FFFFFF" d="M813.9,371.093l1.094-0.625l2.188-1.25l1.406-2.656l1.562-2.188l3.125-2.969v-0.781l-2.344-1.562
		l-3.438-2.344l-0.938-2.5l-2.656-0.312l-0.156-1.094l-0.781-2.656l2.188-1.094l0.156-2.344l-1.25-1.25l0.156-1.562l1.875-2.969
		v-2.969l2.266-2.344l-1.328-0.938l-2.5-0.156l-2.188-1.875l-2.344-5.156l-2.904-0.899l-2.252-2.069l-17.969,3.906l-41.562,8.438
		l-8.594,1.406l-0.479-6.847l-5.305,5.441l-1.25,0.469l-4.062,2.908l2.814,18.497l1.631,10.391l3.451,18.617l4.477-0.726
		l11.545-1.452l36.656-7.409l14.379-2.729l8.021-1.568l1.246-1.218l2.031-1.562H813.9z"/>
	<path id="DE" fill="#FFFFFF" d="M812.804,374.375l0.783-2.032l0.234-1.25h-1.953l-2.031,1.562l-1.406,1.406l1.406,4.062
		l2.188,5.469l2.031,9.375l1.562,6.094l4.844-0.156l5.938-1.171l-2.189-7.109l-0.938,0.469l-3.438-2.344l-1.719-4.531l-1.875-3.438
		l-2.188-0.938l-2.031-3.438L812.804,374.375z"/>
	<path id="MD" fill="#FFFFFF" d="M826.398,397.656l-5.936,1.249l-4.844,0.156l-1.562-6.094l-2.031-9.375l-2.188-5.469l-1.246-4.251
		l-8.021,1.568l-14.379,2.729l-36.197,7.298l1.094,4.844l0.938,5.469l0.312-0.312l2.031-2.344l2.188-2.969l2.344-0.156l1.406-1.406
		l1.719-2.5l1.25,0.625l2.812-0.312l2.5-2.031l1.939-1.405l1.783-0.469l1.59,1.092l2.812,1.406l1.875,1.719l1.172,1.484l3.984,1.641
		v2.812l5.312,1.25l1.875,1.25l0.938-1.875l2.188,1.562l-1.406,3.125l-0.312,2.656l-1.719,2.5v2.031l0.625,1.719l4.895,1.311
		l4.166-0.06l2.969,0.938l2.031,0.312l0.938-2.031l-1.406-2.031v-1.719l-2.344-2.031l-2.031-5.312l1.25-5.156l-0.156-2.031
		l-1.25-1.25c0,0,1.406-1.562,1.406-2.188s0.469-2.031,0.469-2.031l1.875-1.25l1.875-1.562l0.469,0.938l-1.406,1.562l-1.25,3.594
		l0.312,1.094l1.719,0.312l0.469,5.312l-2.031,0.938l0.312,3.438l0.469-0.156l1.094-1.875l1.562,1.719l-1.562,1.25l-0.312,3.281
		l2.5,3.281l3.75,0.469l1.562-0.781l3.125,5l1.719,0.469v3.438l-2.188,4.688l-0.469,6.719l1.406,3.281l1.406,0.157l1.875-4.063
		l0.781-3.438l0.156-6.875l2.969-4.688l2.031-6.719V397.656z M810.542,407.108l1.094,2.422l0.156,1.719l1.094,1.797
		c0,0,0.859-0.859,0.859-1.172s-0.703-2.969-0.703-2.969l-0.703-2.266L810.542,407.108z"/>
	<path id="WV" fill="#FFFFFF" d="M750.011,385.533l1.076,4.779l0.938,5.469l0.312-0.312l2.031-2.344l2.188-2.969l2.344-0.156
		l1.406-1.406l1.719-2.5l1.25,0.625l2.812-0.312l2.5-2.031l1.939-1.405l1.783-0.469l1.59,1.092l2.812,1.406l1.875,1.719l1.328,1.25
		l-1.016,4.844l-5.469-2.969l-4.375-1.719l-0.156,5.156l-0.469,2.031l-1.562,2.656l-0.625,1.562l-2.969,2.344l-0.469,2.188
		l-3.281,0.312l-0.312,2.969l-1.094,5.312h-2.5l-1.25-0.781l-1.562-2.656l-1.719,0.156l-0.312,4.219l-2.031,6.406l-4.844,10.469
		l0.781,1.25l-0.156,2.656l-2.031,1.875l-1.406-0.312l-3.125,2.344l-2.5-0.938l-1.719,4.531c0,0-3.594,0.781-4.219,0.938
		s-2.344-1.25-2.344-1.25l-2.344,2.188l-2.5,0.625l-2.812-0.781l-1.25-1.25l-2.119-2.922l-3.037-1.922l-2.5-2.656l-2.812-3.594
		l-0.625-2.188l-2.5-1.406l-0.781-1.562l-0.234-5.078l2.109-0.078l1.875-0.781l0.156-2.656l1.562-1.406l0.156-4.844l0.938-3.75
		l1.25-0.625l1.25,1.094l0.469,1.719l1.719-0.938l0.469-1.562l-1.094-1.719v-2.344l0.938-1.25l2.188-3.281l1.25-1.406l2.031,0.469
		l2.188-1.562l2.969-3.281l2.188-3.75l0.312-5.469l0.469-4.844v-4.531l-1.094-2.969l0.938-1.406l1.24-1.25l3.373,19.164l4.477-0.726
		L750.011,385.533z"/>
	<path id="VA" fill="#FFFFFF" d="M716.4,438.906l1.875,3.438l1.25,1.25l2.812,0.781l2.5-0.625l2.344-2.188
		c0,0,1.719,1.406,2.344,1.25s4.219-0.938,4.219-0.938l1.719-4.531l2.5,0.938l3.125-2.344l1.406,0.312l2.031-1.875l0.156-2.656
		l-0.781-1.25l4.844-10.469l2.031-6.406l0.312-4.219l1.719-0.156l1.562,2.656l1.25,0.781h2.5l1.094-5.312l0.312-2.969l3.281-0.312
		l0.469-2.188l2.969-2.344l0.625-1.562l1.562-2.656l0.469-2.031l0.156-5.156l4.375,1.719l5.469,2.969l0.781-4.922l4.062,1.953v2.812
		l5.312,1.25l1.875,1.25l0.938-1.875l2.188,1.562l-1.406,3.125l-0.312,2.656l-1.719,2.5v2.031l0.625,1.719l4.895,1.311l1.822,1.502
		l5,0.312l2.5,2.188l3.125,0.625l1.25,1.25l-0.469,4.375l0.938,0.938l0.156,2.188l1.25,2.031l-0.156,1.719l-3.125-1.094v0.938
		l1.875,1.562v1.094l1.406,1.094l1.25,1.562l0.156,2.188l-2.188,1.406l0.312,0.469l2.5-0.469l3.125-0.625l1.094-0.156l3.939,6.791
		l-4.719,1.646l-11.094,2.812l-18.525,3.696l-19.912,3.647l-16.562,2.5l-15.291,1.875l-6.896,1.25l-4.361-0.597l-2.045-0.028
		l-2.344,1.875l-7.656,0.156l-11.594,1.837l-9.664,0.901l2.664-1.332l5.469-3.281l3.75-2.031v-2.031l1.719-1.719l4.375-5.156
		l4.062-3.438L716.4,438.906z"/>
	<path id="KY" fill="#FFFFFF" d="M716.288,439.623l-3.014,3.032l-4.062,3.438l-4.375,5.156l-1.719,1.719v2.031l-3.75,2.031
		l-5.469,3.281l-2.525,1.358l-50.131,4.735l-15.232,1.719l-4.467,0.495l-3.738-0.026v3.75l-8.125,0.469l-6.719,0.625l-10.082,0.198
		l0.971-1.201l2.107-1.703l1.988-1.104l0.221-3.094l0.885-1.769l-1.553-2.454l0.775-1.843l2.188-1.719l2.031-0.625l2.656,1.25
		l3.438,1.25l1.094-0.312l0.156-2.188l-1.25-2.344l0.312-2.188l1.875-1.406l2.5-0.625l1.562-0.625l-0.781-1.719l-0.625-1.875
		l1.094-0.781l1.016-3.203l2.891-1.641l5.625-0.938l3.438-0.469l1.406,1.875l1.719,0.781l1.719-3.125l2.812-1.406l1.875,1.562
		l0.781,1.094l2.031-0.469l-0.156-3.281l2.812-1.562l1.094-0.781l1.094,1.562h4.531l0.781-2.031l-0.312-2.188l2.812-3.438
		l4.531-3.75l0.469-4.375l2.656-0.312l3.75-1.719l2.656-1.875l-0.312-1.875l-1.406-1.406l0.547-2.109l3.984-0.234l2.344-0.781
		l2.812,1.562l1.562,4.219l5.625,0.312l1.719,1.719l2.031,0.156l2.344-1.406l2.969,0.469l1.25,1.406l2.656-2.5l1.719-1.25h1.562
		l0.625,2.656l1.719,0.938l3.438,2.031l0.156,5.312l0.781,1.562l2.5,1.406l0.625,2.188l2.812,3.594l2.5,2.656L716.288,439.623z"/>
	<path id="OH" fill="#FFFFFF" d="M725.618,340.035l-6.877,4.027l-3.75,2.188l-3.281,3.594l-3.906,3.75l-3.125,0.781l-2.812,0.469
		l-5.312,2.5l-2.031,0.156l-3.281-2.969l-5,0.625l-2.5-1.406l-2.301-1.306l-4.729,0.68l-9.844,1.562l-7.5,1.172l1.25,14.141
		l1.719,13.281l2.5,22.656l0.547,5.547l3.984-0.234l2.344-0.781l2.812,1.562l1.562,4.219l5.625,0.312l1.719,1.719l2.031,0.156
		l2.344-1.406l2.969,0.469l1.25,1.406l2.656-2.5l1.719-1.25h1.562l0.625,2.656l1.719,0.938l3.359,2.266l2.109-0.078l1.875-0.781
		l0.156-2.656l1.562-1.406l0.156-4.844l0.938-3.75l1.25-0.625l1.25,1.094l0.469,1.719l1.719-0.938l0.469-1.562l-1.094-1.719v-2.344
		l0.938-1.25l2.188-3.281l1.25-1.406l2.031,0.469l2.188-1.562l2.969-3.281l2.188-3.75l0.312-5.469l0.469-4.844v-4.531l-1.094-2.969
		l0.938-1.406l1.328-0.703l-1.797-10.391L725.618,340.035z"/>
	<path id="MI" fill="#FFFFFF" d="M579.829,230.976l1.768-1.989l2.1-0.773l5.191-3.756l2.211-0.553l0.441,0.442l-4.973,4.972
		l-3.203,1.878l-1.988,0.884L579.829,230.976z M663.118,262.029l0.625,2.422l3.125,0.156l1.25-1.172c0,0-0.078-1.406-0.391-1.562
		s-1.562-1.797-1.562-1.797l-2.109,0.234l-1.562,0.156l-0.312,1.094L663.118,262.029z M692.179,322.969L689.054,315l-2.188-8.75
		l-2.344-3.125l-2.5-1.719l-1.562,1.094l-3.75,1.719l-1.875,4.844l-2.656,3.594l-1.094,0.625l-1.406-0.625
		c0,0-2.5-1.406-2.344-2.031s0.469-4.844,0.469-4.844l3.281-1.25l0.781-3.281l0.625-2.5l2.344-1.562l-0.312-9.688l-1.562-2.188
		l-1.25-0.781l-0.781-2.031l0.781-0.781l1.562,0.312l0.156-1.562l-2.344-2.188l-1.25-2.5h-2.5l-4.375-1.406l-5.312-3.281h-2.656
		l-0.625,0.625l-0.938-0.469l-2.969-2.188l-2.812,1.719l-2.812,2.188l0.312,3.438l0.938,0.312l2.031,0.469l0.469,0.781l-2.5,0.781
		l-2.5,0.312l-1.406,1.719l-0.312,2.031l0.312,1.562l0.312,5.312l-3.438,2.031l-0.625-0.156V287.5l1.25-2.344l0.625-2.344
		l-0.781-0.781l-1.875,0.781l-0.938,4.062l-2.656,1.094l-1.719,1.875l-0.156,0.938l0.625,0.781l-0.625,2.5l-2.188,0.469v1.094
		l0.781,2.344l-1.094,5.938l-1.562,3.906l0.625,4.531l0.469,1.094l-0.781,2.344l-0.312,0.781l-0.312,2.656l3.438,5.781l2.812,6.25
		l1.406,4.688l-0.781,4.531l-0.938,5.781l-2.344,5l-0.312,2.656l-2.98,3.007l-0.717,0.743l4.48-0.157l21.25-2.188l5.938-0.625
		l0.312,1.172l7.5-1.172l9.844-1.562l5.041-0.445l-1.293-1.117l0.156-1.406l2.031-3.594l1.934-1.68L684.366,340l1.543-1.543
		l1.055-0.332l0.215-3.438l1.484-2.93l1.016,0.586l0.156,0.625l0.781,0.156l1.875-0.938L692.179,322.969z M565.077,259.594l1.789-1
		l2.656-0.781l3.438-2.188v-0.938l0.625-0.625l5.781-0.938l2.344-1.875l4.219-2.031l0.156-1.25l1.875-2.812l1.719-0.781l1.25-1.719
		l2.188-2.188l4.219-2.344l4.531-0.469l1.094,1.094l-0.312,0.938l-3.594,0.938l-1.406,2.969l-2.188,0.781l-0.469,2.344l-2.344,3.125
		l-0.312,2.5l0.781,0.469l0.938-1.094l3.438-2.812l1.25,1.25h2.188l3.125,0.938l1.406,1.094l1.406,2.969l2.656,2.656l3.75-0.156
		l1.406-0.938l1.562,1.25l1.562,0.469l1.25-0.781h1.094l1.562-0.938l3.906-3.438l3.281-1.094l6.406-0.312l4.375-1.875l2.5-1.25
		l1.406,0.156v5.469l0.469,0.312l2.812,0.781l1.875-0.469l5.938-1.562l1.094-1.094l1.406,0.469v6.719l3.125,2.969l1.25,0.625
		l1.25,0.938l-1.25,0.312l-0.781-0.312l-3.594-0.469l-2.031,0.625l-2.188-0.156l-3.125,1.406h-1.719l-5.625-1.25l-5,0.156
		l-1.875,2.5l-6.719,0.625l-2.344,0.781l-1.094,2.969l-1.25,1.094l-0.469-0.156l-1.406-1.562l-4.375,2.344h-0.625l-1.094-1.562
		l-0.781,0.156l-1.875,4.219l-0.938,3.906l-3.623,7.863l-1.576-1.109l-1.326-1.326l-1.547-9.944l-3.535-1.104l-1.326-2.21
		l-12.152-2.651l-2.432-1.105l-7.955-2.209l-7.955-1.105L565.077,259.594z"/>
	<path id="WY" fill="#FFFFFF" d="M361.002,290.783l-11.127-0.936l-31.014-3.185l-15.689-1.989l-27.4-3.978l-19.225-2.873
		l-1.372,10.802l-3.711,23.448l-5.082,29.389l-1.48,10.165l-1.614,11.491l6.306,0.897l16.323,2.209l8.535,1.137l19.881,2.385
		l36.018,3.977l23.645,1.989l4.198-42.868l1.547-24.528L361.002,290.783z"/>
	<path id="MT" fill="#FFFFFF" d="M363.184,270.31l0.781-11.243l2.183-24.112l1.326-14.584l1.219-13.754l-30.889-3.18L309.523,200
		l-28.281-3.906l-31.25-5.156l-17.812-3.281l-31.628-6.7l-4.329,20.633l3.314,7.292l-1.326,4.419l1.768,4.419l3.093,1.326
		l3.536,9.944l3.536,3.536l0.442,1.105l3.314,1.104l0.442,1.989l-6.85,17.015v2.431l2.431,3.093h0.884l4.641-2.873l0.663-1.105
		l1.546,0.663l-0.221,5.083l2.652,12.153l2.873,2.431l0.884,0.663l1.768,2.209l-0.442,3.314l0.663,3.314l1.104,0.884l2.21-2.21
		h2.652l3.093,1.547l2.431-0.884h3.978l3.536,1.547l2.652-0.442l0.442-2.873l2.873-0.663l1.326,1.326l0.442,3.094l2.496,2.405
		l1.482-11.023l19.225,2.873l27.4,3.978l15.689,1.989l31.014,3.185l11.088,1.163l1.637-15.376L363.184,270.31z"/>
	<path id="ID" fill="#FFFFFF" d="M153.625,323.293l4.589-17.848l4.198-17.125l1.326-4.088l2.431-5.746l-1.216-2.209l-2.431,0.11
		l-0.773-0.994l0.442-1.105l0.331-2.983l4.309-5.303l1.768-0.442l1.104-1.105l0.553-3.093l0.884-0.663l3.756-5.635l3.756-4.198
		l0.221-3.646l-3.314-2.542l-1.271-4.253l0.387-9.336l3.535-15.91l4.309-20.108l3.646-13.037l0.736-3.676l13.647,2.599
		l-4.329,20.633l3.314,7.292l-1.326,4.419l1.768,4.419l3.093,1.326l3.536,9.944l3.536,3.536l0.442,1.105l3.314,1.104l0.442,1.989
		l-6.85,17.015v2.431l2.431,3.093h0.884l4.641-2.873l0.663-1.105l1.546,0.663l-0.221,5.083l2.652,12.153l2.873,2.431l0.884,0.663
		l1.768,2.209l-0.442,3.314l0.663,3.314l1.104,0.884l2.21-2.21h2.652l3.093,1.547l2.431-0.884h3.978l3.536,1.547l2.652-0.442
		l0.442-2.873l2.873-0.663l1.326,1.326l0.442,3.094l2.541,1.989l-3.646,23.644l-4.972,29.279l-4.641-0.773l-8.065-1.326
		l-9.943-1.768l-11.601-1.989l-12.264-2.265l-7.734-1.934l-8.949-1.768l-9.391-1.878L153.625,323.293z"/>
	<path id="WA" fill="#FFFFFF" d="M108.116,157.812l4.219,1.406l9.375,2.656l8.281,1.875l19.375,5.469l22.188,5.469l15.584,3.591
		l-0.971,3.754l-3.646,13.037l-4.309,20.108l-3.535,15.91l-0.185,9.375l-13.515-3.298l-14.584-3.425l-14.916,0.11l-0.442-1.326
		l-5.303,1.989l-4.309-0.552l-2.32-1.547l-1.215,0.663l-4.53-0.221l-1.657-1.326l-5.082-1.989l-0.773,0.11l-4.199-1.437
		l-1.878,1.768l-5.966-0.332l-5.745-3.978l0.663-0.773l0.221-7.513l-2.21-3.757l-3.978-0.552l-0.663-2.431l-2.275-0.451
		l-1.854-1.448l-1.719,0.938l-2.188-2.812l0.312-2.812l2.656-0.312l1.562-3.906l-2.5-1.094l0.156-3.594l4.219-0.625l-2.656-2.656
		L76.398,185l0.625-2.812v-7.656l-1.719-3.125l2.188-9.062l2.031,0.469l2.344,2.812l2.656,2.5L87.648,170l4.375,2.031l2.969,0.625
		l2.812,1.406l3.281,0.938l2.188-0.156V172.5l1.25-1.094l2.031-1.25l0.312,1.094l0.312,1.719l-2.188,0.469l-0.312,2.031l1.719,1.406
		l1.094,2.344l0.625,1.875l1.406-0.156l0.156-1.25l-0.938-1.25l-0.469-3.125l0.781-1.719l-0.625-1.406V170l1.719-3.438l-1.094-2.5
		l-2.344-4.688l0.312-0.781L108.116,157.812z M98.976,163.592l1.953-0.156l0.469,1.328l1.484-1.562h2.266l0.781,1.484l-1.484,1.641
		l0.625,0.781l-0.703,1.953l-1.328,0.391c0,0-0.859,0.078-0.859-0.234s1.406-2.5,1.406-2.5l-1.641-0.547l-0.312,1.406l-0.703,0.625
		l-1.484-2.188L98.976,163.592z"/>
	<path id="TX" fill="#FFFFFF" d="M362.778,473.88l21.932,1.05l30.052,1.104l-1.325,22.981l-0.442,17.235l0.222,1.547l4.198,3.536
		l1.988,1.104l0.663-0.222l0.663-1.988l1.326,1.768h1.988v-1.326l2.651,1.326l-0.441,3.757l3.978,0.221l2.431,1.104l3.978,0.664
		l2.431,1.768l2.209-1.989l3.315,0.663l2.431,3.314h0.884v2.209l2.209,0.664l2.21-2.211l1.768,0.664h2.431l0.884,2.43l4.641,1.768
		l1.326-0.662l1.768-3.977h1.104l1.105,1.988l3.978,0.662l3.535,1.326l2.873,0.885l1.768-0.885l0.663-2.43h4.198l1.988,0.883
		l2.652-1.988h1.104l0.663,1.547h3.978l1.547-1.988l1.767,0.441l1.988,2.43l3.094,1.768l3.094,0.885l2.652,1.215l2.209,1.879
		l2.873-1.326l2.652,1.105l0.648,10.73l0.014,9.377l0.664,9.061l0.662,3.756l2.43,3.979l0.885,4.861l4.199,5.303l0.221,3.094
		l0.662,0.662l-0.662,8.176l-2.873,4.861l1.547,1.99l-0.662,2.43l-0.664,7.072l-1.326,3.094l0.273,3.463l-6.25,1.688l-9.531,4.375
		l-0.938,1.875l-2.5,1.875l-2.031,1.406l-1.25,0.781l-5.468,5.156l-2.656,2.031L486.867,645l-5.469,2.344l-6.094,3.281l-1.719,1.406
		l-5.625,3.438l-3.281,0.625l-3.75,5.312l-3.906,0.312l-0.938,1.875l2.188,1.875l-1.406,5.312l-1.25,4.375l-1.094,3.75l-0.781,4.375
		l0.781,2.344l1.719,6.719l0.938,5.938l1.719,2.656l-0.938,1.406l-2.969,1.875l-5.469-3.75l-5.312-1.094l-1.25,0.469l-3.125-0.625
		l-4.062-2.969l-5-1.094l-7.344-3.281l-2.031-3.75l-1.25-6.25L417.023,680l-0.625-2.188l0.625-0.625l0.312-3.281l-1.25-0.625
		l-0.625-0.938l1.25-4.219l-1.562-2.188l-3.125-1.25l-3.281-4.219l-3.438-6.406l-4.062-2.5l0.156-1.875l-5.156-11.875l-0.781-4.062
		l-1.719-1.875l-0.156-1.406l-5.781-5.156l-2.5-2.969v-1.094l-2.5-2.031l-6.562-1.094l-7.188-0.625l-2.969-2.188l-4.375,1.719
		l-3.438,1.406l-2.188,3.125l-0.938,3.594l-4.219,5.938l-2.344,2.344l-2.5-0.938l-1.719-1.094l-1.875-0.625l-3.75-2.188v-0.625
		l-1.719-1.875l-5-2.031l-7.188-7.5l-2.188-4.531v-7.812l-3.125-6.25l-0.469-2.656l-1.562-0.938l-1.094-2.031l-4.844-2.031
		l-1.25-1.562l-6.875-7.656l-1.25-3.125l-4.531-2.188l-1.406-4.219l-2.5-2.812l-1.875-0.469l-0.627-4.521l7.734,0.664l28.063,2.65
		l28.062,1.547l2.21-22.98l3.757-53.695l1.547-18.121l1.325,0.028 M459.602,700l-0.547-6.875l-2.656-6.953l-0.547-6.797l1.484-7.969
		l3.203-6.641l3.359-5.234l3.047-3.438l0.625,0.234l-4.609,6.406l-4.219,6.328l-1.953,6.406l-0.312,5l0.859,5.938l2.5,6.953l0.469,5
		l0.156,1.406L459.602,700z"/>
	<path id="CA" fill="#FFFFFF" d="M150.46,526.094l3.998-0.783l1.437-2.099l0.552-2.651l-3.535-0.553l-0.442-0.773l0.442-1.657
		l0.11-5.635l1.989-0.663l2.762-2.651l0.552-4.751l1.437-3.535l1.878-1.879l3.314-1.657l1.547-1.325l0.111-2.211l-0.995-0.552
		l-0.773-0.994l-1.215-5.635l-2.651-4.751l0.559-3.158l-2.438-3.14l-14.032-21.986l-18.783-28.063l-21.986-32.704l-11.967-17.96
		l1.582-6.347l6.74-25.08l7.844-30.383l-13.037-3.536l-13.037-3.314l-12.154-3.978l-7.292-1.989l-11.048-2.873l-6.815-2.331
		l-1.527,4.566l-0.156,7.188l-5,11.406l-2.969,2.5l-0.312,1.094l-1.719,0.781l-1.406,4.062l-0.781,3.125l2.656,4.062l1.562,4.062
		l1.094,3.438l-0.312,6.25L34.523,350l-0.625,5.625l-0.938,3.594l1.719,3.75l2.656,4.375l2.188,4.688l1.25,3.906l-0.312,3.125
		l-0.312,0.469v2.031l5.469,6.094L45.148,390l-0.625,2.188l-0.625,1.875l0.156,7.969l2.031,3.594l1.875,2.5l2.656,0.469l0.938,2.656
		l-1.094,3.438l-2.031,1.562h-1.094L46.554,420l0.469,2.812l3.125,4.219l1.562,5.157l1.406,4.531l1.25,2.969l3.281,5.625l1.406,2.5
		l0.469,2.812l1.562,0.938v2.344l-0.781,1.875l-1.719,6.875l-0.469,1.875l2.344,2.656l4.062,0.469l4.375,1.719l3.75,2.031h2.812
		l2.812,2.969l2.5,4.688l1.094,2.188l3.75,2.031l4.688,0.781l1.406,2.031l0.625,3.125l-1.406,0.625l0.312,0.938l3.125,0.781
		l2.656,0.156l2.812,4.531l3.75,4.062l0.781,2.188l2.5,4.062l0.312,3.125v9.062l0.469,1.719l9.688,1.406l19.062,2.656
		L150.46,526.094z M64.836,477.42l1.25,1.484l-0.156,1.25l-3.125-0.078l-0.547-1.172l-0.625-1.406L64.836,477.42z M66.711,477.42
		l1.172-0.625l3.438,2.031l2.969,1.172l-0.859,0.625l-4.375-0.234l-1.562-1.562L66.711,477.42z M86.711,496.561l1.719,2.266
		l0.781,0.938l1.484,0.547l0.547-1.406l-0.938-1.719l-2.578-1.953l-1.016,0.156V496.561z M85.304,504.92l1.719,3.047l1.172,1.875
		l-1.406,0.234l-1.25-1.172c0,0-0.703-1.406-0.703-1.797s0-2.109,0-2.109L85.304,504.92z"/>
	<path id="AZ" fill="#FFFFFF" d="M150.812,526.196l-2.539,2.086l-0.312,1.406l0.469,0.938l18.281,10.312l11.719,7.344l14.219,8.281
		l16.25,9.688l11.875,2.344l25.838,3.391l1.98-12.865l3.627-26.021l6.732-51.42l4.115-29.775l-24.859-3.711l-26.295-4.419
		l-32.31-6.106l-2.824,17.486l-0.442,0.442l-1.657,2.541l-2.431-0.11l-1.215-2.652l-2.652-0.33l-0.884-1.105h-0.884l-0.884,0.553
		l-1.878,0.994l-0.11,6.739l-0.221,1.657l-0.552,12.154l-1.437,2.099l-0.552,3.204l2.651,4.751l1.215,5.635l0.773,0.994l0.995,0.552
		l-0.111,2.211l-1.547,1.325l-3.314,1.657l-1.878,1.879l-1.437,3.535l-0.552,4.751l-2.762,2.651l-1.989,0.663l-0.11,5.635
		l-0.442,1.657l0.442,0.773l3.535,0.553l-0.552,2.651l-1.437,2.099L150.812,526.196z"/>
	<path id="NV" fill="#FFFFFF" d="M153.625,323.293l20.278,4.36l9.391,1.878l8.949,1.768l7.79,2.044l-1.16,5.359l-3.425,16.904
		l-3.646,19.777L189.923,384l-2.099,13.148l-3.204,16.021l-3.093,14.694l-1.903,10.15l-2.848,17.14l-0.442,0.442l-1.657,2.541
		l-2.431-0.11l-1.215-2.652l-2.652-0.33l-0.884-1.105h-0.884l-0.884,0.553l-1.878,0.994l-0.11,6.739l-0.221,1.657l-0.552,12.154
		l-1.433,2.121l-2.434-3.116l-14.032-21.986l-18.783-28.063l-21.986-32.704l-11.967-17.96l1.582-6.347l6.74-25.08l7.624-30.299
		l32.482,7.87l13.258,2.873"/>
	<path id="UT" fill="#FFFFFF" d="M262.955,452.17l-24.749-3.979l-26.295-4.419l-32.384-5.974l2.001-9.936l3.093-14.694l3.204-16.021
		L189.923,384l1.878-8.618l3.646-19.777l3.425-16.904l1.077-5.386l12.292,2.182l11.601,1.989l9.943,1.768l8.065,1.326l4.641,0.773
		l-1.59,10.275l-1.614,11.491l6.306,0.897l16.323,2.209l8.867,1.137l-2.99,21.389l-3.094,21.655l-3.627,27.05l-1.455,10.735
		L262.955,452.17z"/>
	<path id="CO" fill="#FFFFFF" d="M380.732,463.66l3.978-63.64l1.547-21.655l-32.262-2.652l-23.645-1.989l-36.018-3.977
		l-19.998-2.431l-2.541,21.434l-3.094,21.655l-3.627,27.05l-1.455,10.735l-0.553,3.758l33.256,3.977l35.702,4.279l31.667,2.129
		l6.436,0.663l11.049,0.552"/>
	<path id="NM" fill="#FFFFFF" d="M292.023,568.438l-0.784-4.678l7.734,0.664l28.063,2.65l28.062,1.547l2.21-22.98l3.757-53.695
		l1.547-18.121l1.325,0.028l-0.014-11.325l-31.901-2.322l-35.702-4.279l-33.312-3.977l-4.06,29.729l-6.732,51.42l-3.627,26.021
		l-1.98,12.865l14.943,1.922l1.25-9.688l16.094,2.5L292.023,568.438z"/>
	<path id="OR" fill="#FFFFFF" d="M153.905,322.902l4.309-17.457l4.198-17.125l1.326-4.088l2.431-5.746l-1.216-2.209l-2.431,0.11
		l-0.773-0.994l0.442-1.105l0.331-2.983l4.309-5.303l1.768-0.442l1.104-1.105l0.553-3.093l0.884-0.663l3.756-5.635l3.756-4.198
		l0.221-3.646l-3.314-2.542l-1.013-4.049l-13.571-3.464l-14.584-3.425l-14.916,0.11l-0.442-1.326l-5.303,1.989l-4.309-0.552
		l-2.32-1.547l-1.215,0.663l-4.53-0.221l-1.657-1.326l-5.082-1.989l-0.773,0.11l-4.199-1.437l-1.878,1.768l-5.966-0.332
		l-5.745-3.978l0.663-0.773l0.221-7.513l-2.21-3.757l-3.978-0.552l-0.663-2.431l-2.275-0.451l-5.604,1.99l-2.188,6.25l-3.125,9.688
		l-3.125,6.25l-4.844,13.594l-6.25,13.125l-7.812,12.188l-1.875,2.812l-0.781,8.281l-1.25,5.781l2.152,4.34l6.815,2.331
		l11.048,2.873l7.292,1.989l12.154,3.978l13.037,3.314l13.037,3.756 M153.625,323.293l-45.35-10.692l32.482,7.87l13.258,2.873"/>
	<path id="ND" fill="#FFFFFF" d="M473.982,275.835l-0.663-8.176l-1.768-7.071l-1.768-13.037l-0.442-9.502l-1.768-3.314l-1.547-4.861
		v-9.944l0.663-3.756l-1.89-5.315l-28.402-0.545l-17.969-0.625l-25.625-1.25l-24.111-1.82l-1.219,13.754l-1.326,14.584
		l-2.183,24.112l-0.625,11.737l54.294,3.483L473.982,275.835z"/>
	<path id="SD" fill="#FFFFFF" d="M475.423,348.82l-0.921-1.976l-1.625-2.729l1.768-4.199l1.325-5.524l-2.651-1.989l-0.441-2.652
		l0.884-2.431h1.768l0.441-6.629l-0.221-29.389l-0.441-2.873l-3.978-3.315l-1.105-1.768v-1.547l1.989-1.547l1.326-1.326l0.331-3.094
		l-56.237-1.547l-54.294-3.756l-0.741,5.103l-1.559,15.337l-1.301,17.346l-1.547,24.859l15.026,0.994l19.445,1.105l17.235,1.104
		l22.981,1.105l10.386-0.442l1.988,2.21l4.641,2.873l1.105,0.884l4.198-1.326l3.756-0.442l2.652-0.221l1.768,1.326l4.861,1.547
		l2.872,1.547l0.442,1.547l0.884,1.989h1.768L475.423,348.82z"/>
	<path id="NE" fill="#FFFFFF" d="M486.798,390.077l1.326,2.431l-0.222,2.21l2.431,3.756l3.094,3.978h-5.966l-42.647-0.442
		l-39.112-1.326l-21.103-0.773l1.657-21.544l-32.262-2.652l4.198-42.537l15.026,0.994l19.445,1.105l17.235,1.104l22.981,1.105
		l10.386-0.442l1.988,2.21l4.641,2.873l1.105,0.884l4.198-1.326l3.756-0.442l2.652-0.221l1.768,1.326l4.861,1.547l2.872,1.547
		l0.442,1.547l0.884,1.989h1.768l1.547-0.11l1.105,5.192l2.651,7.292l0.884,4.641l2.21,3.536l0.663,5.083l1.546,3.977l0.222,6.408
		l1.872,5.317"/>
	<path id="IA" fill="#FFFFFF" d="M566.292,346.324l0.057,1.768l2.209,0.663l0.885,1.105l0.441,1.768l3.756,3.315l0.664,2.209
		l-0.664,3.314l-1.768,3.536l-0.662,2.431l-2.211,1.768l-1.768,0.663l-5.082,1.326l-0.662,1.768l-0.664,1.989l0.664,1.326
		l1.768,1.547l-0.221,3.978l-1.77,1.547l-0.662,1.546v2.652l-1.768,0.442l-1.547,1.105l-0.221,1.326l0.221,1.989l-1.658,1.712
		l-3.203-3.259l-1.105-2.209l-7.512,0.663l-9.502,0.442l-24.529,0.884l-13.037,0.221l-9.06,0.221l-1.053,0.117l-1.599-5.2
		l-0.222-6.408l-1.546-3.977l-0.663-5.083l-2.21-3.536l-0.884-4.641l-2.651-7.292l-1.105-5.192l-1.325-2.1l-1.547-2.651l1.768-4.199
		l1.325-5.524l-2.651-1.989l-0.441-2.652l0.884-2.431h1.657h11.159l47.951-0.663l17.457-0.663l3.977-0.111l0.664,3.204l2.209,1.547
		l0.221,1.326l-1.988,3.314l0.221,3.094l2.43,3.756l2.432,1.105l2.873,0.442L566.292,346.324z"/>
	<path id="MS" fill="#FFFFFF" d="M622.208,603.004l-1.123,1.215h-5l-1.406-0.781l-2.031-0.312L606.085,605l-1.719-0.781l-2.5,4.062
		l-1.066,0.752l-1.086-2.404l-1.104-3.758l-3.314-3.094l1.104-7.291l-0.662-0.885l-1.768,0.221l-7.955,0.664l-23.424,0.662
		l-0.441-1.547l0.662-7.732l3.314-5.967l5.084-8.84l-0.885-1.988h1.105l0.662-3.094l-2.209-1.768l0.221-1.768l-1.988-4.42
		l-0.277-5.164l1.326-2.57l-0.387-4.197l-1.326-2.873l1.326-1.326l-1.326-1.988l0.443-1.768l0.883-5.967l2.873-2.651l-0.664-1.989
		l3.537-5.082l2.65-0.883v-2.432l-0.662-1.326l2.652-5.082l2.65-1.104l0.104-3.298l8.387-0.075l23.281-1.875l5.305-0.221
		l0.008,6.158l0.156,16.095l-0.781,30L618.118,570l2.656,18.125L622.208,603.004z"/>
	<path id="IN" fill="#FFFFFF" d="M615.618,443.437l-0.156-3.75l0.469-4.375l2.188-2.812l1.719-3.75l2.5-4.062l-0.469-5.625
		l-1.719-2.656l-0.312-3.125l0.781-5.312l-0.469-6.719l-1.25-15.469l-1.25-14.844l-0.939-11.328l2.969,0.859l1.406,0.938
		l1.094-0.312l2.031-1.875l2.734-1.562l4.924-0.157l21.25-2.188l5.938-0.625l0.156,1.094l1.406,14.219l1.719,13.281l2.5,22.656
		l0.469,5.469l-0.469,2.188l1.406,1.406l0.312,1.875l-2.656,1.875l-3.75,1.719l-2.656,0.312l-0.469,4.375l-4.531,3.75l-2.812,3.438
		l0.312,2.188l-0.781,2.031h-4.531l-1.094-1.562l-1.094,0.781l-2.812,1.562l0.156,3.281l-2.031,0.469l-0.781-1.094l-1.875-1.562
		l-2.812,1.406l-1.719,3.125l-1.719-0.781l-1.406-1.875l-3.438,0.469l-5.625,0.938L615.618,443.437z"/>
	<path id="IL" fill="#FFFFFF" d="M615.462,443.281v-3.594l0.469-4.375l2.188-2.812l1.719-3.75l2.5-4.062l-0.469-5.625l-1.719-2.656
		l-0.312-3.125l0.781-5.312l-0.469-6.719l-1.25-15.469l-1.25-14.844l-0.783-11.25l-1.25-0.781l-0.781-2.5l-1.25-3.594l-1.562-1.719
		l-1.406-2.5l-0.227-5.305l-9.57,1.269l-26.295,1.657l-8.398-0.415l0.223,2.293l2.209,0.663l0.885,1.105l0.441,1.768l3.756,3.315
		l0.664,2.209l-0.664,3.314l-1.768,3.536l-0.662,2.431l-2.211,1.768l-1.768,0.663l-5.082,1.326l-0.662,1.768l-0.664,1.989
		l0.664,1.326l1.768,1.547l-0.221,3.978l-1.77,1.547l-0.662,1.546v2.652l-1.768,0.442l-1.547,1.105l-0.221,1.326l0.221,1.989
		l-1.658,1.271l-0.994,2.707l0.443,3.536l2.209,7.071l7.07,7.292l5.305,3.535l-0.221,4.199l0.883,1.326l6.188,0.442l2.652,1.326
		l-0.664,3.536l-2.209,5.745l-0.664,3.094l2.211,3.756l6.188,5.083l4.418,0.663l1.99,4.861l1.988,3.094l-0.885,2.873l1.547,3.977
		l1.768,1.988l2.867-0.326l0.555-1.981l2.188-1.719l2.031-0.625l2.656,1.25l3.438,1.25l1.094-0.312l0.156-2.188l-1.25-2.344
		l0.312-2.188l1.875-1.406l2.5-0.625l1.562-0.625l-0.781-1.719l-0.625-1.875l1.094-0.781L615.462,443.281z"/>
	<path id="MN" fill="#FFFFFF" d="M473.761,275.835l-0.442-8.176l-1.768-7.071l-1.768-13.037l-0.442-9.502l-1.768-3.314l-1.547-4.861
		v-9.944l0.663-3.756l-1.76-5.269l29.124,0.034l0.312-7.969l0.625-0.156l2.188,0.469l1.875,0.781l0.781,5.312l1.406,5.938
		l1.562,1.562h4.688l0.312,1.406l6.094,0.312v2.031h4.688l0.312-1.25l1.094-1.094l2.188-0.625l1.25,0.938h2.812l3.75,2.5
		l5.156,2.344l2.344,0.469l0.469-0.938l1.406-0.469l0.469,2.812l2.5,1.25l0.469-0.469l1.25,0.156v2.031l2.5,0.938h2.969l1.562-0.781
		l3.125-3.125l2.5-0.469l0.781,1.719l0.469,1.25h0.938l0.938-0.781l8.594-0.312l1.719,2.969h0.625l0.689-1.048l4.291-0.358
		l-0.592,2.204l-3.807,1.775l-8.936,3.925l-4.615,1.939l-2.969,2.5l-2.344,3.438l-2.188,3.75l-1.719,0.781l-4.375,4.844l-1.25,0.156
		l-3.281,2.969l0.666,0.525l-2.723,2.616l-0.221,2.652v8.176l-1.105,1.547l-5.082,3.756l-2.211,5.745l0.443,0.221l2.43,1.989
		l0.664,3.094l-1.77,3.093v3.757l0.443,6.408l2.873,2.873h3.314l1.768,3.093l3.314,0.442l3.756,5.524l6.85,3.978l1.99,2.652
		l0.883,7.292h-3.977l-17.457,0.663l-47.951,0.663h-11.159l0.552-6.629l-0.221-29.389l-0.441-2.873l-3.978-3.315l-1.105-1.768
		v-1.547l1.989-1.547l1.326-1.326L473.761,275.835z"/>
	<path id="WI" fill="#FFFFFF" d="M610.321,343.452l0.139-4.077L608.898,335l-0.625-5.938l-1.094-2.344l0.938-2.969l0.781-2.812
		l1.406-2.5l-0.625-3.281l-0.625-3.438l0.469-1.719l1.875-2.344l0.156-2.656l-0.781-1.25l0.625-2.5l0.469-3.125l2.656-5.469
		l2.812-6.562l0.156-2.188l-0.312-0.938l-0.781,0.469l-4.062,6.094l-2.656,3.906l-1.875,1.719l-0.781,2.188l-1.406,0.781
		L604.523,300l-1.406-0.312l-0.156-1.719l1.25-2.344l2.031-4.531l1.719-1.562l1.064-2.215l-1.576-0.875l-1.326-1.326l-1.547-9.944
		l-3.535-1.104l-1.326-2.21l-12.152-2.651l-2.432-1.105l-7.955-2.209l-7.955-1.105l-4.029-5.224l-0.512,1.219l-1.094-0.156
		l-0.625-1.094l-2.656-0.781l-1.094,0.156l-1.719,0.938l-0.938-0.625l0.625-1.875l1.875-2.969l1.094-1.094l-1.875-1.406
		l-2.031,0.781l-2.812,1.875l-7.188,3.125l-2.812,0.625l-2.812-0.469l-0.949-0.849l-2.045,2.74l-0.221,2.652v8.176l-1.105,1.547
		l-5.082,3.756l-2.211,5.745l0.443,0.221l2.43,1.989l0.664,3.094l-1.77,3.093v3.757l0.443,6.408l2.873,2.873h3.314l1.768,3.093
		l3.314,0.442l3.756,5.524l6.85,3.978l1.99,2.652l0.883,7.181l0.664,3.204l2.209,1.547l0.221,1.326l-1.988,3.314l0.221,3.094
		l2.43,3.756l2.432,1.105l2.873,0.442l1.188,2.431h8.867l25.742-1.547L610.321,343.452z"/>
	<path id="MO" fill="#FFFFFF" d="M555.521,392.949l-3.094-3.094l-1.105-2.209l-7.512,0.663l-9.502,0.442l-24.529,0.884
		l-13.037,0.221l-7.623,0.111l-2.21,0.11l1.216,2.431l-0.222,2.21l2.431,3.756l2.983,3.978l2.983,2.651l2.208,0.221l1.326,0.884
		v2.873l-1.768,1.547l-0.441,2.209l1.988,3.315l2.432,2.873l2.43,1.768l1.326,11.269l-0.662,34.141l0.221,4.529l0.441,6.63
		l22.539-0.442l22.539-0.662l20.107-0.885l10.607-0.441l1.768,2.873l-0.441,2.209l-3.094,2.652l-0.662,2.872l5.965,0.442
		l4.861-0.664l1.988-6.187l-0.137-5.441l2.789-1.409l1.326-1.547l1.988-1.104l0.221-3.094l0.885-1.769l-1.326-2.348l-2.873,0.358
		l-1.768-1.988l-1.547-3.977l0.885-2.873l-1.988-3.094l-1.99-4.861l-4.418-0.663l-6.188-5.083l-2.211-3.756l0.664-3.094l2.209-5.745
		l0.664-3.536l-2.652-1.326l-6.188-0.442l-0.883-1.326l0.221-4.199l-5.305-3.535l-7.07-7.292l-2.209-7.071l-0.443-3.536
		L555.521,392.949z"/>
	<path id="AR" fill="#FFFFFF" d="M589.837,485.073l-4.707,0.906l-5.965-0.442l0.662-2.872l3.094-2.652l0.441-2.209l-1.768-2.873
		l-10.607,0.441l-20.107,0.885l-22.539,0.662l-22.539,0.442l1.547,6.629v7.955l1.326,10.606l0.221,36.57l2.209,1.879l2.873-1.326
		l2.652,1.105l0.635,10.855l21.461-0.027l18.562-0.885l10.441,0.139l1.436-2.57l-0.387-4.197l-1.326-2.873l1.326-1.326l-1.326-1.988
		l0.443-1.768l0.883-5.967l2.873-2.651l-0.664-1.989l3.537-5.082l2.65-0.883v-2.432l-0.662-1.326l2.652-5.082l2.65-1.104
		l-0.287-3.532l2.371-1.091l0.938-4.531l-1.406-3.438l3.906-2.188l0.312-2.5l1.303-4.234L589.837,485.073z"/>
	<path id="OK" fill="#FFFFFF" d="M380.456,463.44l-10.33-0.442l-6.215-0.47l0.249,0.193l-0.525,11.159l21.075,1.05l30.052,1.104
		l-1.325,22.981l-0.442,17.235l0.222,1.547l4.198,3.536l1.988,1.104l0.663-0.222l0.663-1.988l1.326,1.768h1.988v-1.326l2.651,1.326
		l-0.441,3.757l3.978,0.221l2.431,1.104l3.978,0.664l2.431,1.768l2.209-1.989l3.315,0.663l2.431,3.314h0.884v2.209l2.209,0.664
		l2.21-2.211l1.768,0.664h2.431l0.884,2.43l4.641,1.768l1.326-0.662l1.768-3.977h1.104l1.105,1.988l3.978,0.662l3.535,1.326
		l2.873,0.885l1.768-0.885l0.663-2.43h4.198l1.988,0.883l2.652-1.988h1.104l0.663,1.547h3.978l1.547-1.988l1.767,0.441l1.988,2.43
		l3.094,1.768l3.094,0.885l2.652,1.547l-0.221-36.902l-1.326-10.606v-7.955l-1.547-6.629l-0.441-6.63l-0.221-4.309l-12.817,0.773
		l-44.857-0.441l-43.531-1.989L380.456,463.44z"/>
	<path id="KS" fill="#FFFFFF" d="M505.14,466.533l-12.817,0.662l-44.857-0.441l-43.531-1.989l-23.34-1.216l4.005-63.639
		l21.103,0.773l39.112,1.326l42.647,0.442h5.855l2.983,2.651l2.208,0.221l1.326,0.884v2.873l-1.768,1.547l-0.441,2.209l1.988,3.315
		l2.432,2.873l2.43,1.768l1.326,11.269L505.14,466.533z"/>
	<path id="LA" fill="#FFFFFF" d="M600.929,608.828l-1.215-2.199l-1.104-3.758l-3.314-3.094l1.104-7.291l-0.662-0.885l-1.768,0.221
		l-7.955,0.664l-23.424,0.662l-0.441-1.547l0.662-7.732l3.314-5.967l5.084-8.84l-0.885-1.988h1.105l0.662-3.094l-2.209-1.768
		l0.221-1.768l-1.988-4.42l-0.332-5.303h-10.496l-18.562,0.885l-21.461,0.027l0.027,9.252l0.664,9.061l0.662,3.756l2.43,3.979
		l0.885,4.861l4.199,5.303l0.221,3.094l0.662,0.662l-0.662,8.176l-2.873,4.861l1.547,1.99l-0.662,2.43l-0.664,7.072l-1.326,3.094
		l0.119,3.494l4.529-1.469l7.812-0.312l10,3.438l6.25,1.094l3.594-1.406l3.125,1.094l3.125,0.938l0.781-2.031l-3.125-1.094
		l-2.5,0.469l-2.656-1.562c0,0,0.156-1.25,0.781-1.406s2.969-0.938,2.969-0.938l1.719,1.406l1.719-0.938l3.125,0.625l1.406,2.344
		l0.312,2.188l4.375,0.312l1.719,1.719l-0.781,1.562l-1.25,0.781l1.562,1.562l8.125,3.438l3.438-1.25l0.938-2.344l2.5-0.625
		l1.719-1.406l1.25,0.938l0.781,2.812l-2.188,0.781l0.625,0.625l3.281-1.25l2.188-3.281l0.781-0.469l-2.031-0.312l0.781-1.562
		l-0.156-1.406l2.031-0.469l1.094-1.25l0.625,0.781c0,0-0.156,2.969,0.625,2.969s4.062,0.625,4.062,0.625l3.906,1.875l0.938,1.406
		h2.812l1.094,0.938l2.188-2.969v-1.406h-1.25l-3.281-2.656l-5.625-0.781l-3.125-2.188l1.094-2.656l2.188,0.312l0.156-0.625
		l-1.719-0.938v-0.469h3.125l1.719-2.969l-1.25-1.875l-0.312-2.656l-1.406,0.156l-1.875,2.031l-0.625,2.5l-2.969-0.625l-0.938-1.719
		l1.719-1.875l1.953-1.719L600.929,608.828z"/>
</g>
<path id="Canada" fill="#3f3f3f" d="M654.691,132.743l-0.469-1.875l1.094-1.094l12.969-2.031l4.375,0.312l2.031-0.469l2.812,0.938
	l1.406,2.969l-1.875,3.906l-1.875,1.406l-3.906-0.156l-8.281-3.125l-5.156-0.625L654.691,132.743z M71.563,3.211l4.062,2.188
	l1.719,4.531l0.938,2.5l2.344,2.031l2.656,2.5l2.188,1.25l0.625,1.25l-1.719,2.5L85,24.148l1.562,0.781l2.188-0.156l2.5,1.25
	l5.78,1.723l15.469,4.062l19.375,5.469l22.188,5.469l28.906,6.406l31.719,6.562l17.812,3.281l31.25,5.156l28.281,3.906l28.282,3.438
	l30.781,3.125l24.219,1.875l25.625,1.25l17.969,0.625l34.844,0.625h22.812l0.312-7.969l0.625-0.156l2.188,0.469l1.875,0.781
	l0.781,5.312l1.406,5.938l1.562,1.562H490l0.312,1.406l6.094,0.312v2.031h4.688l0.312-1.25l1.094-1.094l2.188-0.625l1.25,0.938
	h2.812l3.75,2.5l5.156,2.344L520,91.965l0.469-0.938l1.406-0.469l0.469,2.812l2.5,1.25l0.469-0.469l1.25,0.156v2.031l2.5,0.938
	h2.969l1.562-0.781l3.125-3.125l2.5-0.469L540,94.621l0.469,1.25h0.938l0.938-0.781l8.594-0.312l1.719,2.969h0.625l0.469-0.938
	l1.41-0.316l3.594-0.156l1.406-1.562l2.188-4.688l-0.938-2.188l5.469-3.125l3.125-3.594l3.125-5.469l3.75-1.562l2.344,1.25
	l3.594,1.406l5.781,1.562h5.938l3.125-1.875l3.75,0.938c0,0,1.719,2.031,1.719,2.656s2.188,6.094,2.188,6.094l1.562,2.188
	l3.281,4.063l3.906,1.25l8.906-0.156l0.781,0.469l-0.625,0.938l0.156,3.594l0.781,0.469l3.75,3.281l2.656,2.031l-0.156,2.031
	l-1.562,5.156l0.312,1.25l2.969,0.938l1.094,2.344l5.312,4.375l1.406,0.312l0.156,3.75l9.844,1.25l7.188,0.469l2.969-0.625
	l10.938-0.625l4.375-0.469l0.312,0.781l1.562,1.094l6.25,1.094l2.656-1.094l4.062-0.156l1.875,1.875l2.344,3.125l2.812,4.375
	l2.656,1.25l3.281,4.688l2.344,1.25l0.156,3.438l-1.562,0.781v2.188l2.344,1.875l-0.312,2.188l-1.406,1.094l-9.375-2.812
	l-4.375-1.562l0.469-2.188l-0.469-1.094l-3.125,0.625l-1.25-1.25l-1.562,0.938l0.156,1.25l2.188,6.562l-1.562,3.594l-3.438,5.157
	l0.312,6.094l1.875,8.594l-1.094,4.375l-5,6.875l-3.906,1.875l0.625,8.594l1.562,2.812l-0.312,3.125l-6.875,0.625l-2.656,1.25
	l0.156,5l3.75,1.094l5.781-1.406l2.812-3.594l6.25-2.656l2.969-5.469l4.844-3.906l5.156-1.719l6.094,0.938l1.719-0.469l3.594-4.688
	l9.688-3.594l6.562-0.781l2.969-1.406l-0.156-1.25l-2.031-1.406l-2.188-5l-3.125,1.875h-5.781l-0.781-0.938l0.469-2.656l1.719-4.219
	l2.812-2.031l2.031-2.5l8.75-3.906l7.656-3.438l5.781-1.406l5.625,1.562l2.814-0.625l3.438-1.875l-0.312-0.938l-1.25-0.625
	l-0.938-1.562l3.125-3.125l1.875-0.469l3.438-2.812l4.688-4.844l2.344-7.031l5.312-3.906l3.906-6.875l3.906-2.031l7.656-5.156
	l2.031-2.969l2.969-3.906l6.719-8.75l5-6.719l4.219-3.907l5.781-3.594l5.469-5.938l1.875-6.719l4.062-7.031l7.5-15.781l7.031-16.094
	l0.781-6.094l1.875-2.969l5.938-6.875l2.812-5l3.594-0.781l1.406-1.719l3.906-1.562l1.094-3.281l-0.938-5H71.563z M42.656,3.367
	l6.875,4.062L50,13.055l4.063,5.312l2.5,4.375l7.344,5.312l6.406,5.469l4.062,3.438h1.875l2.812-1.562l0.781-5.781l-2.188-7.188
	l-2.812-7.188l-5.781-3.594l-3.75-4.062l-1.25-4.844L42.656,3.367z M892.5,94.465l-2.656,0.156l0.469,1.094l-0.156,0.469h-0.781
	l-2.812-2.188l-0.156-4.688l-0.781-1.875h-5.781l-8.75-28.906l-1.875-0.938l-5.781-2.344l-1.406-0.156l-1.719,1.719l-3.906,2.812
	v0.938l-0.781,0.781l-2.656-0.625l-1.25-2.188v-1.094l-1.25-0.156h-1.25l-2.031,4.062l-2.812,8.594l-1.719,4.688l0.156,4.688
	l0.156,1.406l-0.781,2.656l-0.781,0.938v5.781l1.875,2.344l-1.406,3.906l-2.5,4.531l-0.781,5.312v2.5l-0.469,0.156l-2.5-0.938
	l-1.562,0.938l-0.625,1.562l-0.625-0.469l-0.938-0.938l-1.406,1.875l-0.938,5.312l-14.688,3.906l-18.594,4.844l-4.375,1.406
	l-3.125-0.156l-5.312,1.25l-3.9,1.403l1.406-2.344l9.531-5.938l3.438-2.969l1.094-0.938l8.906-13.75l6.562-8.438l8.438-5.157
	l5.781-5l7.344-14.375l4.844-7.344l7.344-17.656l4.531-7.344l2.188-1.562l2.188-4.375l5-4.844c0,0,1.875-0.469,1.875-1.094
	s2.812-3.281,2.812-3.281l4.688-3.438l8.906-7.812l6.562-3.75l11.875-4.062h5.312l6.562,2.188l-0.469,16.25l-2.812,3.281
	l-2.031,3.281l-3.75,2.188l-3.906-0.938l-1.875-0.156l1.094,2.969l3.281,4.219l1.562,0.469l4.219-4.375l4.062-2.188l0.469,0.156
	l-0.469,59.375l-4.844,3.594l-3.906,2.5l-1.25-0.312l-2.031-2.031L892.5,94.465z"/>
<path id="Mexico" fill="#3f3f3f" d="M441.688,571.471l-1.219-1.068l-2.969,1.875l-5.469-3.75l-5.312-1.094l-1.25,0.469l-3.125-0.625
	l-4.062-2.969l-5-1.094l-7.344-3.281l-2.031-3.75l-1.25-6.25l-3.125-1.875l-0.625-2.188l0.625-0.625l0.312-3.281l-1.25-0.625
	l-0.625-0.938l1.25-4.219l-1.562-2.188l-3.125-1.25l-3.281-4.219l-3.438-6.406l-4.062-2.5l0.156-1.875l-5.156-11.875l-0.781-4.062
	l-1.719-1.875l-0.156-1.406l-5.781-5.156l-2.5-2.969v-1.094l-2.5-2.031l-6.562-1.094l-7.188-0.625l-2.969-2.188l-4.375,1.719
	l-3.438,1.406l-2.188,3.125l-0.938,3.594l-4.219,5.938l-2.344,2.344l-2.5-0.938l-1.719-1.094L325,498.84l-3.75-2.188v-0.625
	l-1.719-1.875l-5-2.031l-7.188-7.5l-2.188-4.531v-7.812l-3.125-6.25l-0.469-2.656L300,462.434l-1.094-2.031l-4.844-2.031
	l-1.25-1.562l-6.875-7.656l-1.25-3.125l-3.125-1.406l-1.406-1.25l-1.094-3.75l-2.969-2.812l-14.688-2.031l-16.094-2.5l-1.25,9.688
	l-15.156-1.875l-25.625-3.438l-11.875-2.344l-16.25-9.688l-14.219-8.281l-11.719-7.344l-18.281-10.312l-0.469-0.938l0.312-1.406
	l2.188-2.188l-14.062-1.562l-28.896-4.093l-0.552,0.673l1.104,5.303l1.547,6.629l3.536,4.641l-1.768,5.303l3.093,7.514l0.663,5.746
	l3.756,6.188l23.202-0.223l-1.547-3.535l2.652-9.281l1.105-3.977l5.966,1.547l4.419,6.629l1.989,0.664l4.419-1.326l3.314,2.65
	l-0.884,2.652l5.524,3.535h2.21l2.209,2.211l-1.768,6.629l59.663,60.768l84.19-0.443l54.801,54.801l-0.221,37.125l82.422-0.223
	l1.989-5.965l4.419-6.852L441.688,571.471z"/>
<path id="Canada_inset" fill="#3f3f3f" d="M152.969,458.213l-0.312,82.5l1.562,0.938l2.969,0.156l1.406-1.094h2.5l0.156,2.812
	l6.719,6.562l0.469,2.5l3.281-1.875l0.625-0.156l0.312-2.969l1.406-1.562l1.094-0.156l1.875-1.406l2.969,2.031l0.625,2.812
	l1.875,1.094l1.094,2.344l3.75,1.719l3.281,5.781l2.656,3.75l2.188,2.656l1.406,3.594l4.844,1.719l5,2.031l0.938,4.219l0.469,2.971
	l-0.938,3.281l-1.388,1.59v2.541l1.768,1.658l1.105,0.994l37.123-0.109l-34.361-34.252l-0.332-55.354l-38.339-38.449l-3.646,1.438
	l-1.878-0.773l-0.884,0.551l-1.547-0.441l-3.314-1.768l-1.215-0.773l-1.878-1.988L152.969,458.213z"/>
<g id="Great_Lakes_borders" transform="translate(-43.12533,-131.9412)">
	<path id="IN_Great_Lakes" fill="none" stroke="none" d="M652.187,357.812l-2.344,1.406l-2.031,1.875l-1.094,0.312l-1.406-0.938
		l-3.125-0.938"/>
	<path id="MI_Great_Lakes" fill="none" stroke="none" d="M712.539,338.437l0.273-3.75l1.484-2.93l1.211-1.367 M717.851,323.164
		L714.687,315l-2.188-8.75l-2.344-3.125l-2.5-1.719l-1.562,1.094l-3.75,1.719l-1.875,4.844l-2.656,3.594l-1.094,0.625l-1.406-0.625
		c0,0-2.5-1.406-2.344-2.031s0.469-4.844,0.469-4.844l3.281-1.25l0.781-3.281l0.625-2.5l2.344-1.562l-0.312-9.688l-1.562-2.188
		l-1.25-0.781l-0.781-2.031l0.781-0.781l1.562,0.312l0.156-1.562l-2.344-2.188l-1.25-2.5h-2.5l-4.375-1.406l-5.312-3.281h-2.656
		L680,271.719l-0.938-0.469l-2.969-2.188l-2.812,1.719l-2.812,2.188l0.312,3.438l0.938,0.312l2.031,0.469l0.469,0.781l-2.5,0.781
		l-2.5,0.312l-1.406,1.719l-0.312,2.031l0.312,1.562l0.312,5.312l-3.438,2.031l-0.625-0.156V287.5l1.25-2.344l0.625-2.344
		l-0.781-0.781l-1.875,0.781l-0.938,4.062l-2.656,1.094l-1.719,1.875l-0.156,0.938l0.625,0.781l-0.625,2.5l-2.188,0.469v1.094
		l0.781,2.344l-1.094,5.938l-1.562,3.906l0.625,4.531l0.469,1.094l-0.781,2.344l-0.312,0.781l-0.312,2.656l3.438,5.781l2.812,6.25
		l1.406,4.688l-0.781,4.531l-0.938,5.781l-2.344,5l-0.312,2.656l-1.875,2.344l-2.656,1.562 M605.463,230.976l1.768-1.989l2.1-0.773
		l5.191-3.756l2.211-0.553l0.441,0.442l-4.973,4.972l-3.203,1.878l-1.988,0.884L605.463,230.976z M634.687,287.5l3.594-7.812
		l0.938-3.906l1.875-4.219l0.781-0.156l1.094,1.562h0.625l4.375-2.344l1.406,1.562l0.469,0.156l1.25-1.094l1.094-2.969l2.344-0.781
		l6.719-0.625l1.875-2.5l5-0.156l5.625,1.25h1.719l3.125-1.406l2.188,0.156l2.031-0.625l3.594,0.469l0.781,0.312l1.25-0.312
		l-1.25-0.938l-1.25-0.625l-3.125-2.969v-6.719l-1.406-0.469l-1.094,1.094L674.375,255l-1.875,0.469l-2.812-0.781l-0.469-0.312
		v-5.469l-1.406-0.156l-2.5,1.25l-4.375,1.875l-6.406,0.312l-3.281,1.094l-3.906,3.438l-1.562,0.938h-1.094l-1.25,0.781
		l-1.562-0.469l-1.562-1.25l-1.406,0.938l-3.75,0.156l-2.656-2.656l-1.406-2.969l-1.406-1.094l-3.125-0.938h-2.188l-1.25-1.25
		l-3.438,2.812l-0.938,1.094l-0.781-0.469l0.312-2.5l2.344-3.125l0.469-2.344l2.188-0.781l1.406-2.969l3.594-0.938l0.312-0.938
		l-1.094-1.094l-4.531,0.469l-4.219,2.344l-2.188,2.188l-1.25,1.719l-1.719,0.781l-1.875,2.812l-0.156,1.25l-4.219,2.031
		L605,253.125l-5.781,0.938l-0.625,0.625v0.938l-3.438,2.188l-2.656,0.781l-1.562,0.938 M688.752,262.029l0.625,2.422l3.125,0.156
		l1.25-1.172c0,0-0.078-1.406-0.391-1.562s-1.562-1.797-1.562-1.797l-2.109,0.234l-1.562,0.156l-0.312,1.094L688.752,262.029z
		 M707.344,352.812l-1.25-1.25l0.156-1.406l2.031-3.594l2.148-1.953"/>
	<path id="PA_Great_Lakes" fill="none" stroke="none" d="M762.031,331.406l-5.469,5.469l-1.25,0.469l-4.062,3.125"/>
	<path id="NY_Great_Lakes" fill="none" stroke="none" d="M773.437,318.281l0.156,0.938l-1.094,0.938l-2.031,2.656L770,324.375
		l-1.875,1.719l-1.719,1.094l-0.938,1.562l-1.25,1.094l-2.656,1.875 M823.75,260.469l-2.5,1.875l-2.031,2.344l-2.656,3.594
		l-2.812,4.375l-1.406,2.812l-0.625,0.781l-5.625,5.312l0.156,2.5l0.781,1.094l1.719,0.781h1.719v1.406l-1.094,2.031l0.312,1.406
		l1.406,2.031L810.937,295l-1.875,1.094h-2.031l-1.562,1.875l-1.719,3.125l-2.031,1.719l-5,0.469l-2.5,1.094l-2.031,1.25
		l-1.562-0.156l-1.875-1.25l-6.094,0.156l-3.125,0.469l-3.906,1.25l-4.219,1.406l-2.812,1.719"/>
	<path id="OH_Great_Lakes" fill="none" stroke="none" d="M751.406,340.469l-7.031,3.594l-3.75,2.188l-3.281,3.594l-3.906,3.75
		l-3.125,0.781l-2.812,0.469l-5.312,2.5l-2.031,0.156l-3.281-2.969l-5,0.625l-2.5-1.406l-2.656-1.406"/>
	<path id="IL_Great_Lakes" fill="none" stroke="none" d="M642.5,359.687l-1.25-0.781l-0.781-2.5l-1.25-3.594l-1.562-1.719
		l-1.406-2.5l-0.156-5.469"/>
	<path id="WI_Great_Lakes" fill="none" stroke="none" d="M590.937,259.531l-0.625,1.25l-1.094-0.156l-0.625-1.094l-2.656-0.781
		l-1.094,0.156l-1.719,0.938l-0.938-0.625l0.625-1.875l1.875-2.969l1.094-1.094l-1.875-1.406l-2.031,0.781l-2.812,1.875
		l-7.188,3.125l-2.812,0.625l-2.812-0.469l-0.781-0.938 M636.25,343.437l-0.156-4.062L634.531,335l-0.625-5.938l-1.094-2.344
		l0.938-2.969l0.781-2.812l1.406-2.5l-0.625-3.281l-0.625-3.438l0.469-1.719l1.875-2.344l0.156-2.656l-0.781-1.25l0.625-2.5
		l0.469-3.125l2.656-5.469l2.812-6.562l0.156-2.188l-0.312-0.938l-0.781,0.469l-4.062,6.094l-2.656,3.906l-1.875,1.719l-0.781,2.188
		l-1.406,0.781L630.156,300l-1.406-0.312l-0.156-1.719l1.25-2.344l2.031-4.531l1.719-1.562l1.094-2.5"/>
	<path id="MN_Great_Lakes" fill="none" stroke="none" d="M565.937,257.344l-0.625-0.781l3.281-2.969l1.25-0.156l4.375-4.844
		l1.719-0.781l2.188-3.75l2.344-3.438l2.969-2.5l4.062-1.719l7.5-3.594l2.812-0.781c0,0,2.969-1.719,3.281-2.344
		s0.625-1.406,0.625-1.406"/>
</g>
<g id="Frames" transform="translate(-17.49179,-131.9412)">
	<rect id="Outer_border" x="19.445" y="133.898" fill="none" width="955.486" height="590.286"/>
	<path id="Inset_border" fill="none" d="M229.212,633.123l0.469,55.312l35,35.312 M18.429,564.998l143.438,0.312l67.657,68.281
		l85.157,0.156l53.75,53.438l-0.312,36.25"/>
</g>
<g id="Labels_State_Names" transform="translate(-17.49179,-131.9412)">
</g>
<g id="Ocean_borders" transform="translate(-43.12533,-131.9412)">
	<path id="AK_Pacific" fill="none" stroke="none" d="M171.407,672.967l2.344-1.406l-0.938-1.719l-1.719,0.938L171.407,672.967z
		 M130.47,692.188l1.094,5.625l2.812,0.781l4.844-2.812l4.219-2.5l-1.562-2.344l0.469-2.346l-2.031,1.252l-2.812-0.783l1.562-1.094
		l1.875,0.781l3.75-1.719l0.469-1.406l-2.344-0.781l0.781-1.875l-2.656,1.875l-4.531,3.438l-4.688,2.814L130.47,692.188z
		 M122.032,704.219l1.406,1.719l0.938-1.094l-0.781-1.875L122.032,704.219z M99.219,706.094l1.094-2.188l2.031,0.312l-0.781,1.875
		H99.219z M96.407,703.125L97.969,705l2.031-1.562l-1.406-1.25L96.407,703.125z M49.063,707.5l3.281-2.188l3.281-0.938l2.5,0.312
		l0.469,1.562l1.875,0.469l1.875-1.875l-0.312-1.562l2.656-0.625l2.812,2.5l-1.094,1.719l-4.219,1.094l-2.656-0.469l-3.594-1.094
		l-4.219,1.406l-1.562,0.312L49.063,707.5z M62.344,636.873l1.094,2.5l1.094,1.562l-1.094,0.781l-2.031-2.969v-1.875H62.344z
		 M82.344,650.467l3.594,0.781l3.594,0.938l0.781,0.938l-1.562,3.594l-2.969-0.156l-3.281-3.438L82.344,650.467z M84.844,618.123
		l2.031,5.156l-0.156,0.938l-2.812-0.312l-1.719-3.906l-1.719-1.406h-2.344l-0.156-2.5l1.719-2.344l1.094,2.344l1.406,1.406
		L84.844,618.123z M248.595,718.594l-1.562-0.781l-1.406-2.969l-2.656-1.406l-1.719-1.094l-0.781,0.781l1.406,2.656l0.156,3.594
		l-1.094,0.469l-1.875-1.875l-2.031-1.25l0.469,1.562l1.25,1.719l-0.781,0.781c0,0-0.781-0.312-1.25-0.938s-2.031-3.281-2.031-3.281
		l-0.938-2.188c0,0-0.312,1.25-0.938,0.938s-1.25-1.406-1.25-1.406l1.719-1.875l-1.406-1.406v-4.844h-0.781l-0.781,3.281
		l-1.094,0.469l-0.938-3.594l-0.625-3.594l-0.781-0.469l0.312,5.469v1.094l-1.406-1.25l-3.438-5.781l-2.031-0.469l-0.625-3.594
		l-1.562-2.812l-1.562-1.094v-2.188l2.031-1.25l-0.469-0.312l-2.5,0.625l-3.281-2.346l-2.5-2.812l-4.688-2.5l-3.906-2.5l1.25-3.125
		v-1.562l-1.719,1.562l-2.812,1.094l-3.594-1.094l-5.469-2.344h-5.312l-0.625,0.469l-6.25-3.75l-2.031-0.312l-2.656-5.625
		l-3.438,0.312l-3.438,1.406l0.469,4.375l1.094-2.812l0.938,0.312l-1.406,4.219l3.125-2.656l0.625,1.562l-3.75,4.219l-1.25-0.312
		l-0.469-1.875l-1.25-0.781l-1.25,1.094l-2.656-1.719l-2.969,2.031l-1.719,2.031l-3.281,2.031l-4.531-0.156l-0.469-2.031
		l3.594-0.625v-1.25l-2.188-0.625l0.938-2.344l2.188-3.75v-1.719l0.156-0.781l4.219-2.188l0.938,1.25h2.656l-1.25-2.5l-3.594-0.312
		l-4.844,2.656l-2.344,3.281l-1.719,2.5l-1.094,2.188l-4.062,1.406l-2.969,2.5l-0.312,1.562l2.188,0.938l0.781,2.031l-2.656,3.125
		l-6.25,4.062l-7.5,4.064l-2.031,1.094l-5.156,1.094l-5.156,2.188l1.719,1.25l-1.406,1.406l-0.469,1.094l-2.656-0.938L105,699.531
		l-0.781,2.188h-0.938l0.312-2.344l-3.438,1.25l-2.812,0.938l-3.281-1.25l-2.812,1.875h-3.125l-2.031,1.25l-1.562,0.781
		l-2.031-0.312l-2.5-1.094l-2.188,0.625l-0.938,0.938l-1.562-1.094v-1.875l2.969-1.25l6.094,0.625l4.219-1.562l2.031-2.031
		l2.812-0.625l1.719-0.781l2.656,0.156l1.562,1.25l0.938-0.312l2.188-2.656l2.969-0.938l3.281-0.625l1.25-0.312l0.625,0.469h0.781
		l1.25-3.596l3.906-1.406l1.875-3.594l2.188-4.375l1.562-1.406l0.312-2.5l-1.562,1.25l-3.281,0.625l-0.625-2.344l-1.25-0.312
		l-0.938,0.938l-0.156,2.812l-1.406-0.156l-1.406-5.625l-1.25,1.25l-1.094-0.469l-0.312-1.875l-3.906,0.156l-2.031,1.094l-2.5-0.312
		l1.406-1.406l0.469-2.5l-0.625-1.875l1.406-0.938l1.25-0.156l-0.625-1.719v-4.219l-0.938-0.938l-0.781,1.406h-5.938L95,659.373
		l-0.625-3.75l-2.031-3.438v-0.938l2.031-0.781l0.156-2.031l1.094-1.094l-0.781-0.469l-1.25,0.469l-1.094-2.656l0.938-4.844
		l4.375-3.125l2.5-1.562l1.875-3.594l2.656-1.25l2.5,1.094l0.312,2.344l2.344-0.312l3.125-2.344l1.562,0.625l0.938,0.625h1.562
		l2.188-1.25l0.781-4.219c0,0,0.312-2.812,0.938-3.281s0.938-0.938,0.938-0.938l-1.094-1.875l-2.5,0.781l-3.125,0.781l-1.875-0.469
		L110,620.155l-4.844-0.156l-3.438-3.594l0.469-3.75l0.625-2.344l-2.031-1.719l-1.875-3.594l0.469-0.781l6.562-0.469h2.031
		l0.938,0.938h0.625l-0.156-1.562l3.75-0.625l2.5,0.312l1.406,1.094l-1.406,2.031l-0.469,1.406l2.656,1.562l4.844,1.719l1.719-0.938
		l-2.188-4.219l-0.938-3.125l0.938-0.781l-3.281-1.875l-0.469-1.094l0.469-1.562l-0.781-3.75l-2.812-4.531l-2.344-4.062l2.812-1.875
		h3.125l1.719,0.625l4.062-0.156l3.594-3.438l1.094-2.969l3.594-2.344l1.562,0.938l2.656-0.625l3.594-2.031l1.094-0.156l0.938,0.781
		l4.375-0.156l2.656-2.969h1.094l3.438,2.344l1.875,2.031l-0.469,1.094l0.625,1.094l1.562-1.562l3.75,0.312l0.312,3.594l1.875,1.406
		l6.875,0.625l6.094,4.062l1.406-0.938l5,2.5l2.031-0.625l1.875-0.781l4.688,1.875l4.219,2.812"/>
	<path id="HI_Pacific" fill="none" stroke="none" d="M268.595,653.592l1.875-3.438l2.188-0.312l0.312,0.781l-2.031,2.969H268.595
		z M278.439,649.998l5.938,2.5l2.031-0.312l1.562-3.75l-0.625-3.281l-4.062-0.469l-3.906,1.719L278.439,649.998z M308.126,659.686
		l3.594,5.312l2.344-0.312l1.094-0.469l1.406,1.25l3.594-0.156l0.938-1.406l-2.812-1.719l-1.875-3.594l-2.031-3.438l-5.625,2.812
		L308.126,659.686z M327.658,668.28l1.25-1.875l4.531,0.938l0.625-0.469l5.938,0.625l-0.312,1.25l-2.5,1.406l-4.219-0.312
		L327.658,668.28z M332.814,673.28l1.875,3.75l2.969-1.094l0.312-1.562l-1.562-2.031l-3.594-0.312V673.28z M339.533,672.186
		l2.188-2.812l4.531,2.344l4.218,1.094l4.219,2.656v1.875l-3.438,1.719l-4.687,0.938l-2.344-1.406L339.533,672.186z
		 M355.626,687.186l1.562-1.25l3.281,1.562l7.344,3.439l3.281,2.031l1.562,2.344l1.875,4.219l3.906,2.5l-0.312,1.25l-3.75,3.125
		l-4.062,1.406l-1.406-0.625l-2.969,1.719l-2.344,3.125l-2.188,2.812l-1.719-0.156l-3.438-2.5l-0.312-4.375l0.625-2.344L355.001,700
		l-2.031-1.719l-0.156-2.5l2.188-0.938l2.031-2.969l0.469-0.938l-1.562-1.721L355.626,687.186z"/>
	<path id="TX_Gulf" fill="none" stroke="none" d="M485.236,700l-0.547-6.875l-2.656-6.953l-0.547-6.797l1.484-7.969l3.203-6.641
		l3.359-5.234l3.047-3.438l0.625,0.234l-4.609,6.406l-4.219,6.328l-1.953,6.406l-0.312,5l0.859,5.938l2.5,6.953l0.469,5l0.156,1.406
		L485.236,700z M483.594,702.344l0.938-1.406l-1.719-2.656l-0.938-5.938l-1.719-6.719l-0.781-2.344l0.781-4.375l1.094-3.75
		l1.25-4.375l1.406-5.312l-2.188-1.875l0.938-1.875l3.906-0.312l3.75-5.312l3.281-0.625l5.625-3.438l1.719-1.406l6.094-3.281
		L512.5,645l5.156-3.125l2.656-2.031l5.468-5.156l1.25-0.781l2.031-1.406l2.5-1.875l0.938-1.875l9.531-4.375l6.406-1.719"/>
	<path id="FL_Gulf" fill="none" stroke="none" d="M798.596,705.391l1.172,1.016l2.656-2.031l5.158-4.062l3.594-3.75l2.422-6.406
		l0.938-1.641l0.156-3.281l-0.703,0.469l-0.938,2.734l-1.406,4.453l-3.125,5.078l-4.219,4.062l-3.283,1.875L798.596,705.391z
		 M785.549,710.235l2.344-0.625l1.25-0.234l1.406-2.266l2.266-1.562l1.25,0.469l1.641,0.312l0.391,1.016l-3.359,1.172l-4.062,1.406
		l-2.266,1.172L785.549,710.235z M664.992,603.217l3.445-0.561l5.781-2.031l5.781-0.469l4.219-0.625l7.344,1.719l7.812,3.75
		l1.562,1.406l2.812,1.094l1.562,1.875l0.312,2.656l3.125-1.25h3.75l3.438-1.875l3.594-3.438l2.969,0.156l0.469-1.094l-0.781-0.938
		l0.156-1.875l3.906-0.781h2.5l2.812,1.406l4.062,1.406l2.344,3.594l2.656,0.938l1.094,3.281l3.281,1.562l1.562,2.5l1.875,0.625
		l5,1.25l1.25,2.969l2.969,3.594v9.219l-1.406,4.531l0.312,2.656l1.25,4.688l1.719,3.906l0.781-0.469l1.406-4.375l-2.5-0.938
		l-0.312-0.625l1.562-0.625l4.375,0.938l0.156,1.562l-3.125,5.312l-2.031,2.344l3.438,3.594l2.5,2.969l2.812,5.156l2.812,3.75
		l2.031,4.844l1.719,0.312l1.562-2.031l1.719,1.094l2.5,3.906l0.625,3.438l2.969,4.219l0.781-1.25l3.75,0.312l3.438,2.188l3.281,5
		l0.781,3.281l0.312,2.812l1.094,0.938l1.25,0.469l2.344-0.938l1.406-1.562l3.75-0.156l2.969-1.406l2.656-3.125l-0.469-1.875
		l-0.312-2.344l0.625-1.875l-0.312-1.875l2.344-1.25l0.312-3.281l-0.625-1.719l-0.469-11.562l-1.25-7.344l-4.375-7.969l-3.438-5.625
		l-2.5-5.156l-2.812-2.812l-2.812-7.188l0.781-1.25l1.094-1.25l-1.562-2.812l-3.906-3.594l-4.688-5.312l-3.594-6.094l-5.156-9.062
		l-3.605-9.416l-2.508-8.381"/>
	<path id="ME_Atlantic" fill="none" stroke="none" d="M896.406,285.312l1.562-7.344l0.156-4.219l1.406-1.25l-0.938-3.125
		l2.969-3.438l1.562,1.406l1.25-0.469l5.156-2.969l0.312-2.812l2.812-0.469l1.562-2.5l-0.156-1.562l-0.312-2.969l0.781-1.25
		l-0.312-1.094l-1.25-1.406l2.031-1.25l1.719,3.125l1.406-0.312l0.312,1.25v1.562l1.875,0.156l0.469-2.656l0.469-0.625l-1.562-1.406
		l0.938-1.406l2.344-1.406l0.938-1.406l1.719-0.156c0,0,0.312,2.031,0.938,2.031s1.25,0,1.25,0l4.688-5.312l3.281-2.969l1.875-0.625
		l2.031-4.531v-1.875l-2.188-3.594l-1.875-2.031 M921.879,249.842l1.719,1.797c0,0,1.25,0.078,1.25-0.234s0.234-1.953,0.234-1.953
		l0.859-0.781l-0.781-1.719l-1.953,0.703L921.879,249.842z M915.394,255.545l1.484-1.484l1.328,1.016l0.547,2.344l-1.641,0.859
		L915.394,255.545z"/>
	<path id="NH_Atlantic" fill="none" stroke="none" d="M895.156,290.156l0.312-1.875l1.094-3.438"/>
	<path id="MA_Atlantic" fill="none" stroke="none" d="M913.166,319.697l2.098-0.663l0.443-1.657l0.994,0.11l0.994,2.21
		l-1.215,0.442l-3.758,0.11L913.166,319.697z M904.105,320.47l2.209-2.542h1.547l1.768,1.437l-2.32,0.994l-2.098,0.995
		L904.105,320.47z M898.125,319.687l2.812-1.406l-0.469-2.188l0.781-1.406l2.812-1.406l0.781,2.969l-0.469,1.719l-2.344,1.406v0.938
		l1.875-1.406l3.75-4.375l3.75-1.875l4.062-1.406l-0.312-2.344l-0.938-2.812l-1.875-2.344l-1.719-0.781l-2.031,0.156l-0.469,0.469
		l0.938,1.25l1.406-0.781l2.031,1.562l0.781,2.656L911.562,310l-2.188,0.938l-3.438-0.469l-3.75-5.781l-2.188-2.5h-1.719
		l-1.094,0.781l-1.875-2.5l0.312-1.406l2.344-5L895,289.687"/>
	<path id="GA_Atlantic" fill="none" stroke="none" d="M773.217,581.395l-0.561-6.082l2.188-9.688l1.406-4.062l-0.469-2.5
		l3.906-6.719l-0.625-1.562"/>
	<path id="SC_Atlantic" fill="none" stroke="none" d="M779.062,550.781l2.031-1.25l4.844-5.312L785,541.094l2.812-0.156
		l3.438-3.281l1.562-0.781l2.188-3.281l2.656-2.656l2.031-3.438l2.344-0.625l1.094-2.656l1.562-0.781l0.469-6.094l2.5-5.938
		l5.156-5.469"/>
	<path id="NC_Atlantic" fill="none" stroke="none" d="M812.5,506.094l5.938-2.031l4.531-0.469l0.469-2.344l1.875-6.25
		l3.281-4.531l6.25-5.156l5-2.344l2.656-0.625l1.094,0.469h1.25l2.969-4.688l1.875-3.438l-1.25,0.469l-2.188,2.188l-0.625-1.562
		h-4.062l1.875-6.094l-0.781-1.25h-1.875V467.5l-0.312-1.25l1.562,1.25l1.406,0.156l2.344,0.312l3.594-1.562l1.25-2.812l0.625-2.031
		l2.5-1.25l0.312-4.062l-0.781-0.625l2.344-0.156L855,453.281l-2.344-2.344l-3.438-6.25L847.5,440 M851.332,472.03l2.5-2.422
		l3.047-2.5l1.484-0.625l0.156-1.953l-0.625-5.938l-1.406-2.266l-0.625-1.797l0.703-0.234l2.656,5.312l0.391,4.297l-0.156,3.281
		l-3.281,1.484l-2.734,2.344l-1.094,1.172L851.332,472.03z"/>
	<path id="VA_Atlantic" fill="none" stroke="none" d="M847.5,440l-3.906-6.719l-1.094,0.156l-3.125,0.625l-2.5,0.469
		l-0.312-0.469l2.188-1.406l-0.156-2.188l-1.25-1.562l-1.406-1.094v-1.094l-1.875-1.562v-0.938l3.125,1.094l0.156-1.719l-1.25-2.031
		l-0.156-2.188L835,418.437l0.469-4.375l-1.25-1.25l-3.125-0.625l-2.5-2.188l-5-0.312l-2.188-1.562"/>
	<path id="MD_Atlantic" fill="none" stroke="none" d="M821.406,408.125h4.531l2.969,0.938l2.031,0.312l0.938-2.031l-1.406-2.031
		v-1.719l-2.344-2.031l-2.031-5.312l1.25-5.156l-0.156-2.031l-1.25-1.25c0,0,1.406-1.562,1.406-2.188s0.469-2.031,0.469-2.031
		l1.875-1.25l1.875-1.562l0.469,0.938l-1.406,1.562l-1.25,3.594l0.312,1.094l1.719,0.312l0.469,5.312l-2.031,0.938l0.312,3.438
		l0.469-0.156l1.094-1.875l1.562,1.719l-1.562,1.25l-0.312,3.281l2.5,3.281l3.75,0.469l1.562-0.781l3.125,5l1.719,0.469v3.438
		l-2.188,4.688l-0.469,6.719l1.406,3.281l1.406,0.157l1.875-4.063l0.781-3.438l0.156-6.875l2.969-4.688l2.031-6.719v-5.469
		 M836.176,407.108l1.094,2.422l0.156,1.719l1.094,1.797c0,0,0.859-0.859,0.859-1.172s-0.703-2.969-0.703-2.969l-0.703-2.266
		L836.176,407.108z"/>
	<path id="RI_Atlantic" fill="none" stroke="none" d="M888.125,325.469l2.812-0.938l2.344-1.875l1.094-1.719l1.25,0.156
		l2.812-1.562"/>
	<path id="CT_Atlantic" fill="none" stroke="none" d="M861.797,339.297l4.922-3.203l3.438-3.125l1.875-2.031l0.781,0.625
		l2.656-1.406l5-1.094l8.125-3.594"/>
	<path id="NJ_Atlantic" fill="none" stroke="none" d="M838.594,374.844l1.094,2.188l3.125,2.812l4.688,2.188l3.906,0.625
		l0.156,1.406L850.781,385l0.312,2.656h0.781l2.031-2.344l0.781-4.688l2.656-3.906l2.969-6.25l1.094-5.312l-0.625-1.094L860.625,355
		l-1.562-3.281l-1.094,0.781l-2.656,0.312l-0.469-0.469l1.094-0.938l2.031-1.875l-0.156-1.25"/>
	<path id="NY_Atlantic" fill="none" stroke="none" d="M857.812,348.281l1.875,0.625l3.906-1.094l5.625-1.875l2.5-0.938
		l6.875-5.156l3.75-2.812l3.281-3.438l-4.062-1.562l-1.25,1.406l-2.812,2.656l-7.656,3.75l-2.188-0.156l-1.562-0.625L865,339.687
		l-2.188,2.5l-1.406,1.25l-1.25,0.312l-0.312-1.25l1.875-1.719l0.312-1.875"/>
	<path id="DE_Atlantic" fill="none" stroke="none" d="M852.031,397.656l-2.188-7.031l-0.938,0.469l-3.438-2.344l-1.719-4.531
		l-1.875-3.438l-2.188-0.938l-2.031-3.438l0.781-2.031"/>
	<path id="CA_Pacific" fill="none" stroke="none" d="M70.781,294.375l-1.562,4.688l-0.156,7.188l-5,11.406l-2.969,2.5
		l-0.312,1.094l-1.719,0.781l-1.406,4.062l-0.781,3.125l2.656,4.062l1.562,4.062l1.094,3.438l-0.312,6.25L60.156,350l-0.625,5.625
		l-0.938,3.594l1.719,3.75l2.656,4.375l2.188,4.688l1.25,3.906l-0.312,3.125l-0.312,0.469v2.031l5.469,6.094L70.781,390
		l-0.625,2.188l-0.625,1.875l0.156,7.969l2.031,3.594l1.875,2.5l2.656,0.469l0.938,2.656l-1.094,3.438l-2.031,1.562h-1.094
		L72.187,420l0.469,2.812l3.125,4.219l1.562,5.157l1.406,4.531l1.25,2.969l3.281,5.625l1.406,2.5l0.469,2.812l1.562,0.938v2.344
		l-0.781,1.875l-1.719,6.875l-0.469,1.875l2.344,2.656l4.062,0.469l4.375,1.719l3.75,2.031h2.812l2.812,2.969l2.5,4.688l1.094,2.188
		l3.75,2.031l4.688,0.781l1.406,2.031l0.625,3.125l-1.406,0.625l0.312,0.938l3.125,0.781l2.656,0.156l2.812,4.531l3.75,4.062
		L130,502.5l2.5,4.062l0.312,3.125v9.062l0.469,1.719 M90.469,477.42l1.25,1.484l-0.156,1.25l-3.125-0.078l-0.547-1.172
		l-0.625-1.406L90.469,477.42z M92.344,477.42l1.172-0.625l3.438,2.031l2.969,1.172l-0.859,0.625l-4.375-0.234l-1.562-1.562
		L92.344,477.42z M112.344,496.561l1.719,2.266l0.781,0.938l1.484,0.547l0.547-1.406l-0.938-1.719l-2.578-1.953l-1.016,0.156
		V496.561z M110.938,504.92l1.719,3.047l1.172,1.875l-1.406,0.234l-1.25-1.172c0,0-0.703-1.406-0.703-1.797s0-2.109,0-2.109
		L110.938,504.92z"/>
	<path id="WA_Pacific" fill="none" stroke="none" d="M133.75,157.812l-1.094,0.781l-0.312,0.781l2.344,4.688l1.094,2.5
		L134.062,170v2.188l0.625,1.406l-0.781,1.719l0.469,3.125l0.938,1.25l-0.156,1.25l-1.406,0.156l-0.625-1.875l-1.094-2.344
		l-1.719-1.406l0.312-2.031l2.188-0.469l-0.312-1.719l-0.312-1.094l-2.031,1.25l-1.25,1.094v2.344L126.719,175l-3.281-0.938
		l-2.812-1.406l-2.969-0.625L113.281,170l-3.125-1.875l-2.656-2.5l-2.344-2.812l-2.031-0.469l-2.188,9.062l1.719,3.125v7.656
		L102.031,185l1.406,6.875l2.656,2.656l-4.219,0.625l-0.156,3.594l2.5,1.094l-1.562,3.906L100,204.062l-0.312,2.812l2.188,2.812
		l1.719-0.938l2.188,1.562 M124.61,163.592l1.953-0.156l0.469,1.328l1.484-1.562h2.266l0.781,1.484l-1.484,1.641l0.625,0.781
		L130,169.06l-1.328,0.391c0,0-0.859,0.078-0.859-0.234s1.406-2.5,1.406-2.5l-1.641-0.547l-0.312,1.406l-0.703,0.625l-1.484-2.188
		L124.61,163.592z"/>
	<path id="OR_Pacific" fill="none" stroke="none" d="M105.781,210.312l-5.938,1.875l-2.188,6.25l-3.125,9.688l-3.125,6.25
		l-4.844,13.594l-6.25,13.125L72.5,273.281l-1.875,2.812l-0.781,8.281l-1.25,5.781l2.188,4.219"/>
	<path id="AL_Gulf" fill="none" stroke="none" d="M647.969,602.813h2.656l0.625,0.156l1.25-2.656l1.406-4.219l2.188,0.625
		l2.969,5.781v0.938l-2.656,1.875l2.656,0.312l6.592-2.629"/>
	<path id="MS_Gulf" fill="none" stroke="none" d="M626.25,609.063l1.25-0.781l2.5-4.062l1.719,0.781l6.562-1.875l2.031,0.312
		l1.406,0.781h5l1.25-1.406"/>
	<path id="LA_Gulf" fill="none" stroke="none" d="M547.969,622.735l4.688-1.484l7.812-0.312l10,3.438l6.25,1.094l3.594-1.406
		l3.125,1.094l3.125,0.938l0.781-2.031l-3.125-1.094l-2.5,0.469l-2.656-1.562c0,0,0.156-1.25,0.781-1.406s2.969-0.938,2.969-0.938
		l1.719,1.406L586.25,620l3.125,0.625l1.406,2.344l0.312,2.188l4.375,0.312l1.719,1.719l-0.781,1.562l-1.25,0.781l1.562,1.562
		l8.125,3.438l3.438-1.25l0.938-2.344l2.5-0.625l1.719-1.406l1.25,0.938l0.781,2.812l-2.188,0.781l0.625,0.625l3.281-1.25
		l2.188-3.281l0.781-0.469l-2.031-0.312l0.781-1.562l-0.156-1.406l2.031-0.469l1.094-1.25l0.625,0.781c0,0-0.156,2.969,0.625,2.969
		s4.062,0.625,4.062,0.625l3.906,1.875l0.938,1.406h2.812l1.094,0.938l2.188-2.969v-1.406h-1.25l-3.281-2.656l-5.625-0.781
		l-3.125-2.188l1.094-2.656l2.188,0.312l0.156-0.625l-1.719-0.938v-0.469h3.125l1.719-2.969l-1.25-1.875l-0.312-2.656l-1.406,0.156
		l-1.875,2.031l-0.625,2.5l-2.969-0.625l-0.938-1.719l1.719-1.875l2.5-2.188l0.859-0.547"/>
</g>
</svg>
