<?xml version="1.0" encoding="utf-8"?>
<!-- Generator: Adobe Illustrator 16.0.0, SVG Export Plug-In . SVG Version: 6.00 Build 0)  -->
<!DOCTYPE svg PUBLIC "-//W3C//DTD SVG 1.1//EN" "http://www.w3.org/Graphics/SVG/1.1/DTD/svg11.dtd">
<svg version="1.1" id="svg2116" xmlns:svg="http://www.w3.org/2000/svg"
	 xmlns="http://www.w3.org/2000/svg" xmlns:xlink="http://www.w3.org/1999/xlink" x="0px" y="0px" width="615.748px"
	 height="955.218px" viewBox="0 1.454 615.748 955.218" enable-background="new 0 1.454 615.748 955.218" xml:space="preserve">

<g id="IE" data-map-country="Irland" data-map-region="Irland" tabindex="0">

	<path id="Ireland" fill="#ff0000" stroke="#ffff00" stroke-width="2" 
	d="m 159.77148,514.21767 c -2.418,0.191 1.98725,2.25 2.78125,2.75 -2.746,0.426 1.49675,3.859 3.71875,5.625 -3.61,1.188 -3.561,-0.85775 -5,-2.46875 -2.717,3.434 -7.52075,0.7555 -7.96875,3.8125 -4.271,4.869 3.4815,8.3405 1.9375,13.8125 3.114,6.178 -4.787,6.50575 -7.5,11.4707 -3.948,-0.02 8.479,-8.02329 0.375,-6.02929 0.589,-2.597 8.83146,-6.33025 2.56446,-11.03125 -4.415,-0.976 0.32525,-11.1035 -4.59375,-8.5625 -1.509,1.715 -9.18671,3.896 -4.34571,6.5 1.776,0.879 2.105,2.2423 1.75,-2.34571 1.765,1.779 3.257,6.01401 1.375,10.5 1.344,-4.283 -3.99,-6.78929 -6.5,-8.65429 2.34,-5.022 0.7233,-3.87225 -2.5957,-1.65625 1.604,2.102 3.4567,7.83925 -1.4043,7.40625 3.803,-3.719 -0.6647,-0.551 0.1543,-3.5 -2.788,-0.162 -1.6923,-4.11545 -5.0293,-4.06446 -0.607,4.57802 -4.6405,5.46501 -7.5625,8.25 0.646,-2.38798 1.10455,-3.78375 -2.43945,-1.59375 -5.442,-3.463 -5.30175,4.42525 -5.96875,5.40625 2.427,3.28101 -4.52,2.02052 -3.875,6.1875 -4.771,0 0.72375,4.73276 0.84375,5.59375 -6.58,-0.408 -1.04334,7.13327 1.59766,3.90625 4.701,1.93001 -1.125,0.903 -1.625,3.5 6.415,2.27601 -1.544,1.2043 -4.375,1.0293 -6.292148,0.976 -1.69966,2.93825 1.65234,5.65625 4.48064,2.97045 -4.24799,-0.57255 -4.49219,-0.4082 v 0.002 0.002 0.002 0.002 0.002 l 0.002,0.002 c 0.0355,0.0749 0.49814,0.3389 1.61523,0.89648 6.102,4.318 -6.854999,-2.6375 -9.249999,1.3125 -2.079,2.951 -6.8145,4.305 -5.1875,7 1.842,4.242 9.54956,6.93371 14.937499,4.0957 -1.436,4.111 7.98066,-2.49829 3.72266,2.59571 -5.365,4.683 1.40875,1.06275 3.34375,-1.78125 4.558,-5.7 0.921,4.41195 5.625,-0.0312 3.521,-4.008 8.51675,0.33145 4.34375,0.81445 -1.297,0.814 -5.64975,7.1105 -6.71875,11.0625 -3.687,2.055 -9.75825,0.2805 -9.65625,2.9375 -1.692,4.187 -5.4545,4.7925 -9.187502,6.5625 -2.461,6.188 4.541002,0.50625 7.875002,3.78125 -1.07,1.194 -5.848216,-0.78525 -1.06446,1.96875 7.626,3.363 -9.016756,0.56325 -3.125,3.90625 5.18,3.678 1.434,5.29075 -1.999996,1.71875 -2.24,-6.15 -8.507296,-1.1735 -12.904296,-2.9375 -3.997,-4.287 -10.249704,-2.139 -10.595704,3.625 -1.002,3.968 -1.9155,4.7515 -5.0625,1.4375 -1.604,-1.338 0.9235,-5.6615 -1.4375,-5.8125 -0.888,-0.082 -4.719,-6.578 -7.25,-2.125 -6.396,-2.334 -13.85625,0.0503 -21.15625,-3.4707 -5.529,1.172 -2.0255,4.752 0.0625,4.625 2.935,4.076 -0.258703,0.27145 -3.095703,1.31445 -0.549,3.229 -2.6465,7.28375 -5.6875,3.71875 1.248,0.479 6.58675,-2.56175 0.96875,-3.21875 -2.141,-4.64 -3.189,-2.19325 -6.25,0.34375 -0.325,0.838 0.021,2.37275 -1.375,2.09375 3.912,1.494 -0.2435,5.49375 -0.9375,9.84375 1.085,4.881 3.67675,0.74425 2.59375,-0.46875 0.104,-2.313 0.197,-4.95675 3.125,-4.96875 -2.741,-5.609 5.2785,-0.7585 2.8125,0.8125 0.327,0.457 -0.186,2.6185 1.5,3.9375 0.764,0.924 -5.7525,3.151 -0.8125,5.375 2.282,-0.846 5.21775,-6.56375 4.34375,-3.34375 0.271,2.766 -4.618,5.313 -0.875,8.25 2.238,2.387 1.48425,4.15225 3.78125,4.28125 0.896,5.506 -0.18775,1.396 -2.96875,0 -3.604,-1.967 -6.251703,9.90075 -0.845703,7.34375 4.528,-2.466 11.72225,-3.65 15.03125,-1.75 0.597,2.475 -1.60875,3.39275 -2.09375,5.21875 4.449,1.793 1.745547,4.9687 -3.689453,3.7207 -5.609,0.131 -13.679,0.78671 -11.25,8.47071 3.432,5.724 -0.6825,7.26529 -6.4375,6.15429 1.499,2.834 1.66375,3.8875 -2.90625,2.9375 1.296,1.58 -8.75375,1.64271 -2.59375,2.22071 0.513,2.914 4.8985,5.5195 4.1875,7.9375 -2.643,-1.559 -8.02375,3.20925 -3.21875,2.90625 3.181,-1.936 4.798,2.0445 8.125,3.1875 2.17,-0.787 5.9165,-7.58 4.6875,-2 3.353,-2.185 2.727,-1.4735 4.125,-0.1875 0.117,2.691 -6.461,2.09975 -5.5,5.96875 1.708,0.388 4.935297,2.28125 7.654297,1.90625 1.009,-2.396 7.47,-9.98075 5.125,-3.09375 -0.717,3.719 4.201453,-4.85425 3.439453,1.21875 -2.137,0.279 -2.97025,6.9875 -1.03125,7.4375 2.046,-2.32 2.053,-5.07527 2.375,-0.0957 8.636,1.478 18.92125,-0.4195 27.40625,-2.5625 7.814,-0.592 -3.4495,3.68775 1.8125,4.96875 5.861,-1.902 -0.509703,1.55675 1.654297,5.09375 -0.481,1.033 -3.63675,-3.991 -7.09375,-1.25 6.402,1.056 2.048,1.49471 -1.875,0.59571 1.855,1.61 -3.14175,3.76 -6.59375,0.375 -3.002,0.998 -4.2845,6.36 -6.5625,9.25 0.073,2.916 -7.4375,9.0055 -2.8125,8.4375 8.143,-1.186 -0.84625,4.215 -0.65625,7.25 -2.11,2.68 -1.637,10.24045 -6.875,8.18945 -4.54,5.313 -9.98575,11.83375 -17.46875,14.96875 3.246,0.69 11.0255,-0.11125 11.9375,-3.53125 4.304,-0.246 6.646,-2.244 6.875,-5 1.29,5.652 9.4795,5.11075 14.0625,2.59375 -2.944,1.755 -2.995,5.83545 0.75,2.18945 5.479,-0.293 10.12175,-5.57825 11.09375,-10.53125 2.789,-5.799 6.63675,1.53071 3.84375,4.47071 2.943,-1.956 14.575,0.51729 7.75,2.15429 -4.71,-3.826 -9.2135,3.769 -12.4375,2.875 -4.399,0.031 -12.13825,5.86525 -17.15625,3.53125 -3.818,2.291 -9.58,-1.1985 -13.125,1.6875 -3.898,2.877 4.09625,7.8023 -0.96875,6.0293 -3.802,2.42 -8.156703,4.76025 -12.845703,5.15625 0.392,3 7.814453,1.76775 5.189453,7.59375 -4.829,4.063 -0.67875,4.021 4.03125,4.375 1.065,4.672 -4.436453,-0.73275 -5.439453,2.78125 -6.742,2.836 -7.16,-5.166 -9,-6 1.384,1.932 -1.5085,6.5023 -5.5625,6.0293 1.591,-5.019 -4.396,-5.01975 -7.375,-0.71875 -4.898,-0.157 -1.55125,6.22825 -5.03125,5.40625 -1.8660177,-4.713 -5.3715019,4.7395 -1.9375002,6.5625 5.1170002,-0.691 3.0017032,-3.2665 8.0957032,-1.1875 -1.52,-2.051 0.13075,-1.869 2.59375,-1 2.533,3.043 10.953,-4.55475 13.5,0.65625 -0.846,-2.123 3.07225,-4.84746 6.03125,-1.81446 6.854,-0.965 -1.828,3.77171 -3.125,0.59571 -0.88,2.104 -2.128,8.455 -3.125,3.375 -0.73,4.498 -8.049703,3.83775 -11.845703,6.46875 -1.717,0.832 -5.4695,3.221 -4.4375,4.5 6.796,5.135 -6.529015,3.43925 -4.75,7.53125 1.949,0.801 2.58575,2.8105 2.34375,5.6875 3.037,-2.039 8.1155,-10.01225 7.8125,-0.90625 -5.252,2.388 3.519297,1.27845 2.404297,4.56445 3.774,-2.162 9.855703,-5.94045 12.970703,-5.68945 2.248,-0.098 8.034,-4.99975 14,-5.21875 -0.907,2.688 -8.8025,2.45675 -10.4375,6.84375 1.315,2.865 -2.42525,0.56545 -3.90625,3.43945 -0.598,-0.912 -3.096,-0.516 -5.625,1.875 3.313,1.342 -0.706297,4.9685 -4.654297,4.0625 -0.152,1.205 2.700297,4.65275 -2.470703,4.46875 -2.825,3.311 0.787,0.97425 3.875,1.28125 5.49,-0.034 7.59325,-5.68725 14.15625,-4.90625 5.009,-0.947 11.66375,-3.004 11.34375,-7.5 0.385,5.02 5.957703,0.758 4.470703,4.5 -3.572,4.262 -11.854,5.11525 -16.25,9.28125 -3.916,3.271 -2.293703,3.8895 1.779297,1.3125 1.985,-0.617 11.669453,-5.88275 8.314453,-3.09375 -2.571,5.555 -12.904453,6.72275 -11.939453,11.59375 1.185,0.684 4.964453,0.59425 5.564453,-1.84375 2.52,-5.506 3.775,1.174 6.25,-2 1.537,-1.748 6.98025,-0.85545 6.90625,-4.18945 3.531,1.756 -0.1,5.24845 3.5,7.06445 4.068,-2.058 4.6205,-2.7487 7.4375,-1.2207 0.741,-4.086 4.07675,-1.588 5.34375,-5.25 -2.467,-3.258 4.398453,0.7595 5.939453,-1.5625 2.597,4.168 3.84875,2.46725 6.46875,-0.59375 2.821,-2.949 5.273,1.25175 8.5,0.34375 -1.598,-4.58 4.8252,-7.91375 7.187505,-3.21875 0.074,-0.195 1.47883,-6.14671 0.96874,-7.22071 2.758,3.5 4.36451,-0.309 8.3125,-1 3.11702,-2.196 5.03571,-6.72275 2.09571,-10.09375 0.671,-3.832 -5.897,0.404 -3.75,-3.25 2.772,2.781 11.71675,-1.7815 10.34375,1.9375 -8.387,5.188 -0.17,6.514 3.375,4 6.262,1.061 3.233,-4.07229 8.25,-4.90429 6.251,0.889 0.0692,-3.15971 2.90625,-3.09571 0.347,-7.306 7.72475,0.66971 8.71875,-4.90429 4.938,-0.297 6.4625,-3.11725 8.6875,-6.28125 -3.005,0.443 -4.8735,-5.422 -0.6875,-2.375 4.66,-5.813 13.85425,-3.0793 19.53125,-5.1543 3.123,-0.438 1.44,-2.1935 4.125,-1.6875 -3.219,3.496 3.452,3.777 5,0.5 1.169,-2.041 0.212,-5.563 -0.875,-9.5 1.001,1.141 5.35,6.12475 4.5,9.71875 -4.525,5.338 2.40075,-0.67145 3.96875,-1.93945 0.215,-3.576 -0.84925,-3.3323 3.09375,-6.2793 -1.278,3.711 -2.42475,4.78275 2.65625,3.59375 4.621,1.933 8.188,4.6035 12.125,0.5625 -1.513,2.996 4.50325,-0.957 3.53125,1.5 1.812,2.981 6.263,-6.006 1,-6.75 -0.589,-1.109 -0.396,-2.2225 0,-3.3125 -0.809,1.24 -4.028,1.09055 -3.125,-2.81445 3.091,-1.449 4.46075,1.623 3.96875,-4 3.688,-6.465 10.48725,-12.3813 6.90625,-20.4043 3.165,-5.066 3.3535,-10.357 5.6875,-15.625 1.813,-2.828 7.48045,-9.29325 3.56445,-11.65625 -0.396,-6.41 0.54655,-13.28675 -3.18945,-18.84375 1.631,-6.168 -3.46375,-6.37845 -5.96875,-11.06445 1.315,-5.012 6.8765,-0.77075 8.4375,-2.84375 -0.14,-0.727 -1.0833,-0.71675 -1.6543,-0.84375 -5.385,-2.098 -0.4167,-8.72875 0.2793,-13.09375 -2.605,-4.523 -8.9393,-7.226 -8.6543,-14.25 1.604,-5.15 -0.358,-6.46371 0.25,-11.09571 -4.351,-0.569 -8.706,-5.272 -6.125,-10.75 0.694,-6.899 7.8785,3.0215 12.1875,-1.1875 1.02764,-2.72025 -5.90921,-5.353 -6.31445,-7.10546 -0.13373,-0.0846 -0.20294,-0.2583 -0.14453,-0.47461 -0.0129,-0.01 -0.0257,-0.021 -0.0371,-0.0312 -0.24171,-0.11071 -0.33601,-0.30301 -0.30078,-0.47266 v -0.002 l -0.15625,-0.10157 c -0.386,-1.065 -1.50898,-1.19779 -2.08204,-0.21679 -0.51598,1.143 -2.19748,-0.54092 -2.4375,0.95508 0.37201,1.402 -1.34495,1.3934 -2.12695,2.0664 -0.56,-0.771 -1.8212,0.86156 -2.2832,-0.52344 -0.451,-0.85 -1.44678,-1.09767 -1.92578,-0.13867 -0.619,0.861 -1.46458,1.29883 -2.51758,0.92383 -0.871,0.459 -2.1488,0.3125 -2.7168,1.1875 -1.862,0.451 -1.95222,-2.00148 -3.07422,-2.89648 -0.851,-1.629 0.14714,-3.23851 0.86914,-4.64454 0.308,-1.54499 -0.23893,-3.5272 -1.58593,-4.4082 -1.022,-0.25 -2.62864,-1.94973 -3.18164,-0.2168 -0.598,1.17501 -1.30885,-0.6932 -2.05078,-0.9082 -1.82804,-1.029 -2.96363,-3.04114 -2.89063,-5.11914 -0.518,-1.011 -2.07436,-1.96073 -1.19336,-3.25391 -0.453,-1.30198 -0.53841,-3.14239 -1.81641,-3.90039 -1.257,0.18 -0.58068,-1.66845 -1.50586,-2.18945 -0.96198,-0.565 -1.38232,-1.79275 -2.23632,-2.34375 -1.488,0.275 -2.46441,-2.06247 -3.94141,-1.23047 -0.889,1.785 -2.41209,3.13472 -3.37109,4.88672 -0.793,1.068 -1.84327,1.98366 -3.19727,2.22266 -0.033,1.045 -0.74573,1.658 -1.55273,2.25 -0.946,1.258 2.12486,0.883 1.38086,2.375 0.612,0.675 1.61376,1.42334 1.00976,2.52734 -0.066,0.793 0.61949,2.24558 -0.72851,2.39258 -0.96,-0.112 -1.58163,0.52703 -2.51953,0.41601 -0.10401,1.068 -0.49799,2.07618 -1.58399,2.45118 -0.145,0.957 0.88545,2.08618 -0.18555,2.86718 -0.204,1.25 -1.054,2.6953 -2.5,2.5293 -0.989,0.959 -1.56582,-0.13631 -2.29882,-0.69531 -0.093,-1.627 -1.63425,-0.14611 -2.53125,-0.66211 -1.612,-0.488 0.54517,-0.92236 0.32617,-1.94336 -0.375,-1.282 -1.78546,-0.21061 -2.18946,0.52539 -0.0334,0.0244 -0.0654,0.0503 -0.0976,0.0762 -0.026,0.0712 -0.0852,0.12385 -0.16602,0.14258 -0.87758,0.80675 -1.37676,2.08597 -2.63867,2.29492 -0.947,-0.43 -1.81434,-1.09751 -2.90234,-0.60351 -1.336,0.177 -1.40282,-1.83252 -2.85742,-1.47852 -1.15702,-0.832 -0.49066,-2.74058 -1.97266,-3.39258 -1.157,1.124 -1.21228,-0.57045 -1.86328,-1.18945 -2.642,-0.571 -5.5286,-0.34376 -8.0586,-1.17188 -0.984,-1.93399 -0.11548,-4.61326 -1.77148,-6.19726 -1.89,-0.275 -3.01653,-1.98225 -4.01953,-3.40625 -0.412,-1.072 -0.50891,-2.53492 -2.00391,-2.54492 -2.101,-0.547 -3.09015,-2.71357 -4.41015,-4.22657 -0.643,-0.99299 -1.58225,-1.80079 -2.40625,-2.59179 1.443,-0.553 -0.8275,-1.48316 -0.3125,-2.03516 1.385,-0.198 2.83559,-0.5384 3.55859,-1.8164 1.127,0.201 2.25366,-0.60486 1.84766,-1.88086 0.125,-1.189 1.54225,-1.8651 2.40625,-2.6211 0.855,-1.217 1.27565,-0.0646 2.09765,0.27539 1.51641,-0.182 3.04385,0.0531 4.55078,-0.0801 0.089,-0.0227 0.17774,-0.0439 0.26563,-0.0703 0.03,-0.19648 0.15536,-0.33983 0.32812,-0.39258 0.37725,-0.49747 1.66284,-0.46363 1.78321,-1.36718 1.032,-2.267 3.48909,-2.96436 5.37109,-4.31836 0.857,-0.379 0.0277,-2.53467 -0.69727,-1.26367 -1.083,1.192 -1.84434,-0.78141 -3.02734,-0.81641 -1.189,-0.627 -2.56794,-0.57839 -3.83594,-0.40039 -0.397,-1.573 -1.92367,-2.2652 -3.01367,-3.2832 0.754,-0.727 0.52686,-1.8755 1.63086,-2.4375 0.604,-0.953 0.41891,-3.09374 2.00391,-3.17774 1.707,0.156 2.50281,2.04839 3.88281,2.77539 1.638,1.103 2.62523,-1.16084 4.11523,-1.46484 1.081,-0.52 1.7636,-2.35947 3.1836,-1.48047 1.087,0.029 2.22051,-0.3142 3.22851,0.3418 1.722,0.219 0.78569,-1.82572 1.30469,-2.76172 0.418,-1.359 0.43989,-3.12761 1.08789,-4.22461 1.073,-0.5 1.85303,-1.35942 1.83203,-2.60742 1.177,-0.842 1.49824,-2.45939 1.61524,-3.77539 -0.522,-1.188 0.1235,-2.46522 0.0625,-3.69922 0.667,-0.666 1.51548,-1.15096 1.64648,-2.25196 -0.967,-0.797 1.3957,-1.68395 -0.4043,-2.12695 -0.292,-0.862 1.02882,-1.54887 1.25782,-2.42187 0.815,-1.063 1.36447,-3.05288 3.10547,-2.42188 0.895,-0.918 1.57625,0.55553 2.40625,-0.35547 0.357,-0.294 0.85493,-0.60576 1.33593,-0.50976 l 0.61328,-0.50391 v -0.002 h -0.002 v -0.002 -0.002 -0.002 h -0.002 v -0.002 -0.002 -0.002 c -1.356,-3.932 6.798,-9.6495 11.125,-11.8125 7.844,-1.748 1.318,-6.59725 -2.375,-6.15625 -5.493,-2.966 -8.02673,-9.44375 -15.5957,-9.21875 -0.219,-0.01 -0.4259,-0.0113 -0.5879,-0.004 z m -51.90625,95.375 c -0.657,1.078 5.44371,-1.1415 5.47071,0.9375 -1.854,2.189 -8.00471,1.4475 -5.47071,-0.9375 z m -67.654292,4.4375 c 0.746999,-0.002 1.617497,0.293 2.1875,0.625 0.732998,5.168 -3.313751,1.545 -2.84375,-0.5 0.209,-0.067 0.40625,-0.123 0.65625,-0.125 z m 85.468752,4.125 c 0.615,-0.002 1.53425,0.1183 2.90625,0.4043 0.615,3.111 -2.33171,12.261 -2.84571,4.75 0.562,-2.692 -2.73178,-5.1463 -0.0605,-5.1543 z m -59.939456,5.28125 c 1.029,-0.051 2.601,0.84525 3.5,2.65625 -3.772,3.443 5.074694,5.318 -0.404296,6.875 -3.769003,-0.006 -4.69125,-6.74 -2.65625,-5.625 -2.074,-2.566 -1.607454,-3.84925 -0.439454,-3.90625 z m 51.345706,5.90625 c 0.523,0.006 1.229,0.5095 2.125,1.8125 l -0.25,0.125 -0.0625,0.375 c -3.167,3.719 -3.6935,-2.3335 -1.8125,-2.3125 z m -45.849612,3.27344 c 0.456371,0.008 0.949908,0.68829 1.25586,2.63281 -3.496,2.459 -2.573704,-2.422 -1.345704,-2.625 0.015,-0.003 0.02981,-0.005 0.04492,-0.006 0.01463,-10e-4 0.0302,-0.002 0.04492,-0.002 z m 36.253902,1.13281 c 0.378,-0.018 0.903,0.11725 1.625,0.53125 0.602,-0.334 0.79925,0.3983 0.28125,0.6543 -1.455,2.761 -1.32525,5.41225 -4.15625,2.40625 1.59,-0.165 0.613,-3.5178 2.25,-3.5918 z m 56.90625,12.40625 c 0.437,0.09 1.68271,0.2843 1.34571,1.0293 -1.58,4.608 -7.75771,1.9397 -1.34571,-1.0293 z M 66.25,652.49892 c 0.0072,-9.2e-4 0.01405,-3.7e-4 0.02148,0 0.521,0.025 1.632449,3.23825 2.064454,3.28125 0.156998,-0.687 1.336296,-1.06 1.154296,0 -1.636,5.563 -2.6595,2.604 -3.4375,-0.75 -0.121093,-1.84159 -0.02527,-2.5027 0.197266,-2.53125 z m -1.664062,5.625 c 0.183999,-0.002 0.356498,0.0267 0.5625,0.0937 0.753,3.709 0.146703,7.3115 -1.154297,9.6875 -2.774795,2.68166 -6.846452,-2.27805 -6.791016,-2.54492 l 0.002,-0.002 0.002,-0.002 h 0.002 0.002 0.002 0.002 c 0.01675,4.4e-4 0.04781,0.0148 0.0918,0.0488 3.753,-0.023 4.526296,-7.25625 7.279297,-7.28125 z m 95.935542,0.96875 c 0.327,-0.018 0.721,0.104 1.125,0.375 2.821,3.303 3.97325,6.0485 -0.34375,2.0625 -2.97,1.172 -2.54525,-2.3495 -0.78125,-2.4375 z m -32.27734,0.3125 c 0.0299,-0.002 0.0603,-10e-4 0.0918,0 0.287,0.014 0.64675,0.1345 1.09375,0.4375 -1.197,3.187 1.4075,8.49025 3.0625,9.53125 2.139,-1.307 4.883,-1.607 4.125,0.375 -5.123,1.83 -1.32575,6.60425 -3.09375,6.90625 -3.775,1.285 -3.071,-2.076 -3.75,-2.75 0.775,-4.668 -1.007,-4.90825 -3,-7.40625 0.91744,-1.008 -0.41332,-6.99836 1.4707,-7.09375 z m 31.62109,6.34375 c 5.762,6.988 -5.007,0.24 0,0 z m -93.779292,5.3125 c 2.438,-0.026 3.592999,1.175 3.625,4.375 -1.646001,4.252 7.50275,4.1025 8.09375,5.3125 -5.182001,2.322 3.99675,8.70925 -3.40625,8.65625 -3.439,-3.804 1.91825,-8.8967 -4.59375,-9.0957 -4.235,-0.024 -6.905001,-5.79875 -13.125,-5.84375 1.289999,-3.104 5.761747,1.25175 3.59375,-2.15625 2.414999,-0.749 4.346499,-1.23205 5.8125,-1.24805 z m 94.382812,3.33789 c 0.0761,10e-4 0.15419,0.004 0.24219,0.006 0.18,0.004 0.3585,0.007 0.5625,0.0293 -2.015,7.874 -5.87621,0.3277 -1.03321,-0.0293 0.0775,-0.006 0.1524,-0.007 0.22852,-0.006 z m -40.30273,33.59571 c 0.0351,7.5e-4 0.0694,0.003 0.10742,0.004 0.527,0.016 0.93775,0.281 1.09375,1.125 -6.008,1.506 -6.1173,7.3295 -4.9043,11.1875 -2.716,1.254 -0.5315,3.553 -5.5625,2.25 -0.633,2.422 -4.69575,9.93202 -3.96875,3.56445 4.474,-3.97498 -6.1035,-2.89045 0.6875,-5.43945 4.849,0.877 7.1825,-2.488 4.3125,-6.5 4.049,-0.111 2.038,-3.556 4.25,-5.75 1.257,0.552 2.79705,-0.3385 3.87305,-0.4375 0.0405,-0.004 0.0762,-0.005 0.11133,-0.004 z m 90.19921,61.78515 c -0.06,0.133 -0.1355,0.2905 -0.1875,0.4375 0.082,-0.135 0.1685,-0.2775 0.1875,-0.4375 z M 51.521484,790.61806 c 0.02897,-0.003 0.05325,0.003 0.09375,0.006 0.471,0.025 1.247702,0.4915 2.345704,1.6875 0.429,0.465 2.011,0.44175 1.5,1.34375 -3.409,2.253 -5.375704,-2.81325 -3.970704,-3.03125 0.0115,-0.003 0.02159,-0.005 0.03125,-0.006 z" />

	<path id="Irland Insel" fill="#111111" stroke="#727271" stroke-width="2" d="M310.778,596.856c-2.51,4.188-0.032,8.217,1.837,10.276
		c-3.337,4.478-2.861,8.724-7.785,11.604c-0.744,2.782-6.907,5.518-7.302,7.387c-2.562-0.68-4.858-1.561-8.173,0.469
		c1.964-3.885,2.188-10.271,4.723-13.944c7.259-3.855,5.77-15.336,15.474-16.119C310.023,595.975,310.597,596.217,310.778,596.856z"
		/>
</g>

<g id="GB-ENG" data-map-country="England" data-map-region="England" tabindex="0">
	<path id="path2408" fill="#111111" stroke="#727271" stroke-width="2" d="M375.314,547.565c6.456-0.591-4.772,3.973,0.838,2.995
		c-0.762,5.781-9.525-3.153-12.299,3.021c2.878,1.258,1.067,5.268-2.081,2.699c-2.199-0.623-6.25,7.149-5.56,10.746
		c-6.499,5.282-5.769,13.973-9.256,20.399c1.616,7.013,12.171,12.771,11.012,21.063c1.201,3.403,6.843,10.403,8.167,4.795
		c1.503-9.32,2.812,3.854-0.077,4.52c-0.463,3.479,1.063,5.398,3.728,7.523c0.61,0.799,3.615-3.791,5.047-6.738
		c1.284-6.17,2.439-0.467,5.325,0.139c1.021-1.707,8.473-6.159,5.438-2.758c4.115,5.293,0.773,8.271-3.028,12.117
		c-0.071,4.502,3.799,2.266,2.394,5.938c1.665,2.545-5.051,2.622-8.401,3.313c-3.155,7.336-2.741,21.396,8.852,15.975
		c-3.238,2.83-10.731,7.832-12.688,14.712c3.376,5.598,3.826,13.646,9.924,17.329c2.289,4.736,10.19-1.711,7.655,2.962
		c-5.194,7.973-12.769-3.277-13.479-9.146c-10.561-0.965-5.865,11.125-4.391,13.855c2.432,2.272-0.049,0.092,2.295,1.764
		c2.343,1.674,0.487,0.344,0.487,0.344s4.303,3.529,5.237,5.57c0.936,2.043-2.681,0.496-2.492,1.979
		c0.188,1.484,1.121,1.177,2.989,4.455c1.869,3.279,3.739,8.662,3.739,8.662l4.486,0.742l0.748,5.197c0,0-1.62,2.723-2.991,2.475
		c-1.371-0.246-0.623-2.598-2.493-3.465c-1.869-0.865-3.302,0.496-4.983,0c-1.683-0.494-0.563-1.918-1.744-1.979
		c-1.185-0.063-1.371,1.052-2.991,1.73c-1.62,0.682-1.994-1.979-3.489,0.99c-1.496,2.971-3.104,9.565-2.493,10.891
		c0.246,0.533,7.979,4.826,8.228,5.197c0.897,1.338-5.897,8.531-8.228,12.127c-1.121,1.731,0.132,3.555,1.745,3.713
		c0.623,0.063,3.677-3.959,4.736-3.465c1.059,0.494,0.239,4.418-0.499,5.444c-0.472,0.654-4.735,0.558-7.479,1.73
		c-2.742,1.176-3.487,2.973-3.487,2.973s5.008,8.668,8.973,8.166c3.428-0.434,5.048-0.682,4.736,0
		c-1.782,3.896-6.657,9.894-8.976,16.584c-0.686,1.979,1.122,6.435,3.24,11.138c2.119,4.703,2.521,6.551,5.233,7.672
		c0.748,0.311,3.987-1.67,4.735-1.484c2.678,0.664,1.853,6.695,7.907,6.855c3.301,0.088,0.958,16.225,1.162,19.332
		c5.465-2.742,8.789-10.693,15.278-12.859c1.946-3.525,4.066,0.006,0.343,0.879c-5.973,4.654-9.813,12.502-14.021,18.92
		c-5.574,0.219-9.187,8.506-12.563,9.605c-0.271,4.36-3.2,3.602-2.361,7.586c2.228,4.949-1.485,8.041-6.567,6.508
		c-5.92,3.016-12.822,2.494-18.027-1.232c-4.854,0.664-10.271-1.381-15.467-0.371c-5.68,1.054-17.633-0.522-19.24,4.427
		c-4.246,2.604,2.893,7.207-2.268,10.606c-3.396,6.748-9.074,0.531-13.682,1.234c-0.044,2.621,0.637,5.348-0.851,7.592
		c-1.488,2.244-1.836-8.121-0.17-0.629c1.668,7.494-1.953,13.066-6.589,17.678c-5.518,0.867-2.034,9.588-9.102,8.695
		c-3.792-0.572-2.128,1.646-3.913,2.438c-4.444-1.065-4.285,5.443-5.526,10.189c-6.101-0.25-3.068,5.518-7.596,7.834
		c-2.452,4.717-8.642,5.395-10.885,9.652c-4.014-3.156-7.977,1.145-12.625,2.807c-1.658,2.377-2.64,7.369-0.233,9.158
		c7.688,3.168,5.532-9.021,11.647-5.797c7.516,0.416,9.039,7.004,12.096,11.903c1.118-0.856,3.122-4.395,5.823-4.44
		c5-3.594-4.021-5.709,0.202-7.387c2.779-2.714,0.015-4.378,2.718-7.57c0.471-0.029,1.219,4.834,1.056,5.49
		c1.948-3.216,3.908-4.199,6.522-6.105c4.922,0.32,4.893-3.295,5.776-6.678c0.823-4.42,4.399-0.144,5.65-1.219
		c6.899,1.807,11.783-4.349,18.712-1.818c2.272,5,6.964-0.045,2.234-1.174c5.938-2.246,5.68,7.668,11.881,4.705
		c4.774-2.006,6.3,7.356,10.296,6.244c4.106,1.961,7.2-0.265,7.003-5.148c3.39-2.09,2.742-5.463,5.528-3.934
		c3.89-4.375-0.729-3.765-1.025-8.097c5.54-0.457-0.543-5.629,3.991-8.789c3.515-2.045-1.981-12.723,1.926-6.521
		c2.472,7.59,7.173-3.242,11.632-3.224c7.711,1.103,14.534-6.319,21.91-1.172c5.609,3.859,16.191,7.617,14.77,15.08
		c0.847-0.646,0.765-2.02,1.738-2.637c-2.522-3.016-1.578-9.35,4.598-6.814c7.015-0.311,11.963,3.813,18.184,2.959
		c2.657-2.672,1.874-4.254,1.353-6.536c-3.855,0.231-4.028-2.193-6.195-1.125c-2.477-0.867,2.451-2.521,4.923-2.177
		c1.226,5.816,5.629-3.219,10.248,0.232c0.487-0.408,0.938-2.926,4.893-2.082c5.019,3.514,6.491-0.553,11.041-2.574
		c7.591,0.394,6.519-6.236,1.477-9.021c-7.218-3.941,2.242-0.925,4.162,2.344c3.195,0.988,8.032,8.738,10.063,4.041
		c-3.12-3.111-1.188-3.918,2.392-2.746c-4.271,3.119,1.716,7.326,1.862,0.879c4.508-4.258,0.116,5.105,1.508,3.918
		c4.714,2.285,0.992-8.746,3.759-3.594c-0.407,0.252,5.521-0.275,1.537,2.561c-2.916,1.49,8.5,8.146,7.002,2.729
		c1.929-1.58,12.502-2.588,17.798-3.73c11.082-5.016,21.873,2.92,32.313,4.979c3.981-7.521,12.859-7.6,20.296-10.191
		c3.628-6.178,9.439-4.844,15.327-3.422c-2.036-7.293,5.036-13.311,11.786-13.771c5.771-1.244,12.711-6.08,9.55-13.431
		c-3.894-5.401,3.682-4.987,2.578-10.438c-1.666-0.74-3.711,0.104-5.45,0.293c-9.281-0.84-17.844,5.697-26.725,2.176
		c3.225,0.922,10.957-1.592,3.647-4.949c-3.548-1.944-7.365-1.291-7.53,0.523c-1.162,0.088-1.331,4.203-4.984,2.221
		c-6.02,1.188-0.619-5.25,3.214-3.731c4.89-2.859-6.293-4.765-9.053-3.869c-1.207,0.59-7.345,4.938-4.799,2.065
		c1.747-5.358,8.366-3.211,11.476-5.752c4.633,0.949,10.165,0.515,13.435-4.239c4.702-3.619-1.558-2.127-2.422-1.711
		c-5.441-3.605,1.884,0.42,3.646-3.332c3.458-5.187-0.892-9.974-5.651-5.597c-1.85,0.922-4.734,1.152-4.828-1.373
		c6.479,1.453,7.339-5.563,13.197-5.688c3.023,5.449,10.701,1.914,13.713-2.683c3.278-5.42-1.061-0.186-3.354-2.776
		c1.993-2.258,7.34-6.586,0.326-5.412c-5.903,0.783-4.021-2.48,0.403-0.848c6.202,2.049-1.044-5.949,3.244-2.066
		c2.154,7.992,7.354-1.58,9.18-5.35c6.404-0.701,8.258-8.125,7.935-14.095c1.263-7.748,6.652-14.625,6.879-22.221
		c-0.979-10.238-1.672-22.488-12.687-27.631c-5.951-7.494-15.508-7.566-23.696-10.607c-5.152-1.389-0.449,0.709-1.848,1.172
		c-6.152-0.883-10.813-0.979-17.597-0.725c-6.183-2.166-9.293,4.314-10.124,10.053c-2.963,2.687-2.183,8.248-5.498,3.009
		c-7.192,3.12-7.896-11.003-15.65-6.369c0.864-3.354,6.204-7.922,9.395-12.088c6.003-3.574,9.673-8.986,7.005-16.099
		c-3.209-9.766-5.754-19.981-15.326-23.699c-3.104-5.559-8.853-5.811-12.688-11.317c-1.29-6.765-6.77-3.781-11.46-3.793
		c-3.52,3.701-6.251-0.883-8.991-0.556c-5.841,2.955-3.658-1.756,1.148-2.034c5.758,5.284,14.709-4.476,19.132,1.727
		c3.446,5.031,8.428,7.49,14.021,5.336c5.658-0.393,2.047,8.332,4.35,4.502c0.199-7.754-7.777-13.695-11.134-20.477
		c-5.076-6.527-11.249-20.851,0.264-23.886c-1.982-3.405-11.356-2.53-9.426-7.973c-6.232-2.289-7.189-7.418-9.022-13.092
		c-3.278-4.219-3.563-10.08-9.627-11.226c-5.646-6.389-14.372-6.004-20.933-10.5c-4.978-4.129-2.61,3.74-6.491,1.064
		c2.092-2.9-0.758-5.27,1.149-7.588c-7.998-3.754-8.329-13.947-9.457-21.479c-2.755-6-5.773-10.909-7.454-17.178
		c1.15-5.026-3.998-9.004-2.111-14.217c-2.325-3.885-1.66-7.912-1.491-12.521c-1.609-5.064-1.132-9.554-5.171-13.138
		c-4.407-0.981-2.863,0.097-4.348-3.36c-1.197,0.967-4.037,0.146-4.938-3.732c-3.256-2.939-6.832-6.74-9.037-10.645
		c-2.203-3.904-0.816-0.281-2.195,1.908c-1.381,2.189-2.456,2.414-3.001,3.498c-0.533,1.06-1.031,1.726-1.765,2.451
		c-0.594,0.59-1.634,1.271-2.292,1.924c-0.618,0.615-0.713,1.935-1.231,2.451c-0.771,0.762-1.381,1.598-2.291,2.273
		c-0.909,0.678-1.126,1.146-1.41,2.274c-0.2,0.793,0.028,1.861,0.177,2.449c0.219,0.869,0.301,1.824,0.704,2.625
		c0.5,0.992,1.868,2.029,2.468,2.627c0.418,0.414,0.667,2.096,1.234,2.799c0.457,0.568,0.179,2.109,0.352,2.802
		c0.266,1.045,0,1.95,0,2.975c0,1.32-1.351,1.811-2.291,2.275c-0.882,0.438-1.319,1.69-1.763,2.274
		c-0.662,0.877-1.273,0.721-2.291,1.226c-0.824,0.409-1.488,1.788-2.468,2.274c-0.104,0.053-0.234,0-0.353,0
		c-1.059,0-2.061,1.344-2.646,1.926c-0.833,0.826-1.849,1.289-2.996,1.574c-0.669,0.166-1.688,1.271-2.291,1.75
		c-0.813,0.646-1.858,1.73-2.644,1.926c-0.807,0.199-0.854,1.293-1.06,2.101c-0.245,0.975-0.449,1.592-0.882,2.451
		c-0.45,0.893-0.95,1.36-1.41,2.272c-0.599,1.189-1.509,2.199-2.467,3.15c-0.938,0.93-1.711,1.373-2.82,1.924
		c-1.257,0.625-1.571,1.268-2.818,1.576c-0.747,0.186-1.706,2.336-2.291,2.801c-0.667,0.529-1.367,0.646-2.291,0.875
		c-1.147,0.283-1.403,1.225-2.82,1.225c-0.497,0-1.618,3.718-2.025,4.021c-0.405,0.305,3.703,0.436-0.154,1.055 M438.912,488.131
		c-2.741,2.517-4.999-3.279-0.15-0.391L438.912,488.131z M562.355,716.176c4.057,1.572-4.406,0.406-0.413-0.022L562.355,716.176z
		 M589.645,804.926C588.482,806.934,588.247,803.844,589.645,804.926z M576.67,812.954c-5.758,2.979-4.11-2.451,0.646-0.73
		C577.962,812.801,577.094,812.961,576.67,812.954z M365.894,618.995c-2.574,3.981,6.758,11.242,0.428,6.567
		C365.705,623.975,363.176,619.276,365.894,618.995z M370.174,581.03c0.221-0.031,0.498,0.262,0.839,1.096
		C369.404,587.411,369.216,581.169,370.174,581.03z M379.909,596.819c0.112,0.006,0.313,0.108,0.638,0.34
		c3.665,2.127-1.521,14.983,0.248,6.199C382.758,601.739,379.116,596.792,379.909,596.819z"/>
	<path id="path4771" fill="#111111" stroke="#727271" stroke-width="2" d="M473.725,899.831c-5.723,1.065-4.354,10.096-11.815,7.324
		c-2.632-4-11.202-6.808-12.075-6.634c2.147-4.715,7.287-2.987,8.681-5.063c3.854-5.916,8.795,0.748,13.707,0.455
		C472.358,897.251,475.238,898.624,473.725,899.831z"/>
</g>

<g id="GB-SCT" data-map-country="Schottland" data-map-region="Schottland" tabindex="0">
	<path id="path26828" fill="#222222" stroke="#727271" stroke-width="2" d="M375.113,546.991c-0.406,0.303,3.703,0.436-0.155,1.053
		c-3.857,0.619-7.422,1.5-11.494,0.947c-4.073-0.556-7.954-1.496-10.867-1.297c-1.247,2.059-4.484-2.17-3.014,3.19
		c1.473,5.461-2.036,7.031-6.895,6.138c-3.605,3.225-5.941,1.254-5.715,0.37c-1.946,3.3,0.869,5.062-4.736,7.386
		c-3.94,4.008-8.197,0.469-6.584-4.24c-1.64,4.01-1.969,7.955-5.979,3.469c-2.734-1.52-0.027-8.985-3.978-3.684
		c-4.194,0.908-5.924-5.604-6.986-5.552c-3.857,3.729,1.062,6.824,2.625,9.931c-2.527,1.42,1.519,7.412-1.584,9.268
		c-6.068-0.088-8.548-5.625-12.314-8.975c-3.774-1.596-7.834-4.938-10.591-6.521c-6.126,1.854-7.379,6.285-4.115,11.181
		c1.788,2.701,3.348,7.364,2.099,8.479c-6.563-1.459-2.265-8.399-6.726-11.211c-4.386-4.785-12.563-14.508-6.662-21
		c6.323-2.352,1.572,11.266,7.969,8.219c-2.961-5.146-5.367-11.282-1.662-17.254c2.742-6.121,10.217-10.194,9.038-18.379
		c3.735-3.422,3.609-9.768,9.827-10.549c3.051-3.68-1.183-8.119-1.506-9.174c1.168-6.521-7.82-5.892-8.99-10.484
		c-7.245-2.461,3.104-7.301-2.406-11.827c-1.965-6.492,1.513-17.66,9.131-11.532c2.383,0.047,13.216,2.321,9.131,0.385
		c-6.993-0.229-12.194-8.353-15.342-11.023c0.251,3.26,6.866,8.584-0.357,6.508c-4.148-3.256,1.103-10.912,0.326-11.657
		c-3.146,6.424-2.964-8.166-3.51,0.293c1.267,2.754,1.603,10.743-0.822,11.041c0.753,1.612-0.688,10.065-4.24,11.733
		c-3.327-0.401-2.352-13.11-4.19-8.188c3.256,7.828-4.771,0.746-5.047-1.002c-1.018,4.27-2.558,7.268-0.468,11.532
		c-5.522-0.957-8.478-5.985-7.157-11.426c-0.058-5.574,5.021-11.723,9.191-15.418c5.448-1.852,4.795-8.475,11.072-10.178
		c1.443-2.891-5.771,2.35-6.756,2.697c-1.167,6.772-10.088,7.319-11.771,14.141c-1.158,3.459-5.282,5.77-6.584,3.531
		c-0.363,8.119,3.235,13.615,6.537,20.799c-4.492,3.252-9.942,10.084-7.873,15.977c1.064,2.353-1.788,6.623-2.268,10.347
		c-0.947,3.678-4.604,4.838-0.574,7.153c2.881,7.22-9.226,11.361-14.24,8.437c-1.733-6.236,3.631-9.474,5.095-14.217
		c-0.767-6.66,1.135-13.914,3.027-19.197c1.896-5.355,9.244-9.43,9.598-13.985c-2.749,3.359-6.455,9.858-9.316,5.013
		c-4.262-4.042,3.756-11.157,2.92-12.538c-2.483,3.985-7.213,4.436-4.193-1.078c4.159-3.554,6.629-12.496,2.081-5.674
		c-2.003,2.491-4.093,9.543-3.463,2.495c3.011-3.438,3.762-10.549,8.386-9.327c-3.645-1.9,2.177-7.332,0.437-8.943
		c-2.33,3.697-6.393,7.924-3.229,0.879c3.033-3.611,0.295-4.232-0.218-7.463c-0.176-7.256,4.714-11.396,7.624-17.223
		c2.031,0.016,14.242,0.803,5.639-0.463c-2.92,0.576-4.42-1.629-5.343-3.285c-3.129,4.988-0.307-5.375,3.493-1.727
		c3.312-1.271,8.216-5.396,1.739-2.221c-5.407,3.186-3.875-3.687-1.335-6.537c3.063-2.493,2.23-6.188,8.214-6.461
		c3.556,2.396,9.012-3.579,2.733-0.016c-8.579-0.048-2.867-6.465,0.2-10.33c1.546-3.563-5.596,4.087-5.729,5.612
		c-1.511,3.854-5.788,3.851-7.718,8.496c-5.037,1.42-8.348,13.134-14.847,12.673c-3.695-2.833-4.461-3.036-9.86-4.178
		c-5.61-3.263-7.382-12.09,1.118-9.021c3.647-3.675,7.368-4.859,12.065-2.437c8.05-2.491-1.932,0.475-4.349-2.715
		c-4.128-0.351-7.441,4.893-11.941,2.268c-3.591-1.372-14.146,2.479-13.4-4.396h-0.029c2.912-3.738,9.417-2.663,13.818-4.023
		c2.983,3.958,3.712-0.052,4.426-0.169c3.515,0.771,5.776-2.11,0.39-3.517c0.063-3.754,10.729-1.982,8.588-5.891
		c-1.577,4.17-7.855,0.996-2.221-0.693c-2.859,0.167-13.711,1.175-7.394-1.003c1.439-0.524-0.137-4.07,1.708-6.814
		c0.698-6.262,6.483-3.016,9.146-0.432c3.203,0.542,10.229-3.655,3.013-1.173c-5.557,1.619-2.345-6.899-7.517-3.979
		c-5.524-4.269,5.93-12.196,9.349-5.675c3.51,1.488,8.867-2.279,2.189-0.37c-1.393-2.7-5.498-3.603-8.435-5.058
		c1.983-3.338,3.022-5.183,2.642-8.327c4.969-3.964,6.791,2.387,11.521,2.667c0.58-0.707-5.387-3.252-7.096-5.304
		c-4.329,1.04-13.339-0.762-6.104-5.473c4.034,0.348,12.271-4.691,10.482-7.094c-2.362,4.533-10.868,7.702-7.826,1.173
		c-2.451,3.128-10.952,7.879-9.737,1.188c0.012-2.123,1.188-5.251-2.53-5.396c-1.214-5.168,1.047-16.874,5.698-9.205
		c2.229-1.398,2.854,3.396,5.172,2.96c-2.47-2.968,10.754-0.419,3.4-3.284c-5.365,0.827-4.995-1.063-7.407-2.714
		c-0.05-4.573-7.161-4.871-2.979-9.468c0.686-3.476,8.146,1.352,3.727-3.777c-7.023,0.313-4.391-8.56-5.201-12.706
		c4.749-0.562,7.546-0.668,7.517,5.351c1.464,4.314,2.496,2.803,3.138,1.449c2.79-1.063-1.015-6.443-2.313-8.866
		c0.314-5.632,5.419-2.92,5.467,1.45c5.719,5.719,3.439-7.323,9.115-1.835c1.868,3.813,10.225,4.448,3.399,1.142
		c-2.48-2.146-8.695-5.764-2.702-5.366c1.542,3.886,6.518,0.835,9.009,5.058c2.997,1.568,5.405,7.058,2.979,0.802
		c-3.184-2.572-7.118-4.229-4.705-7.664c-4.738-1.979-9.191-6.288-11.6-8.958c-4.332-3.595,1.154-6.837,2.902-1.525
		c1.901-1.103,8.439,0.57,4.781-4.086c1.457-1.293-0.213-1.456,1.771-3.331c-4.247-0.971-4.934-5.896-7.826-8.975
		c1.965-2.608,5.661,3.162,9.564-0.509c3.354,0.89,4.658-3.39,8.245-0.169c2.8,0.068,4.268,3.159,3.558-0.123
		c1.231-0.028-11.062-2.995-8.571-6.831c-2.178,0.358-0.629-10.646,2.717-6.893c6.317,2.251-1.481-1.887-0.479-2.405
		c-0.587-4.312,7.876,0.554,3.728-3.438c-5.813-0.901-4.856-6.514-0.389-9.575c1.116-2.045,0.214-4.631,1.087-6.692
		c3.475,1.606,8.577,1.472,9.457,5.937c2.765-1.114,0.85-6.104,3.168-0.925c7.212,1.799,1.385,7.476-0.854,12.012
		c3.542-0.975,4.469-6.628,8.323-9.036c-2.369-7.656,14.124-0.05,6.646,5.027c-3.008,5.839,0.927,3.625,1.786-0.603
		c1.901-5.208,8.901-3.108,9.007-3.269c1.563-2.919,3.78-0.005,5.574-3.454c3.983,4.124,5.06-6.997,6.366,0.185
		c6.511,0.995,12.233,0.035,17.206-5.149c4.548-1.115,4.943,1.479,7.903,1.649c3.309-0.428,10.815,1.294,4.83-3.516
		c0.055-1.876,0.414-2.523,0.993-2.575c1.479-0.094,4.396,3.799,7.329,1.419c3.414,1.658,7.998-0.264,11.023,1.357
		c0.05,5.266-7.013,9.221-5.435,14.771c2.269,1.625,7.576-0.368,3.369,4.502c-2.136,7.76-7.892,12.982-15.699,15.465
		c-4.333,6.099-8.915,12.523-15.326,16.515c-3.981,2.989-7.886,5.526-9.954,9.528c-4.943,1.555-7.002,5.271-5.979,9.375
		c-0.432,3.978-6.396,4.282-10.03,2.992c2.149,3.914,8.541,4.369,12.221,2.081c3.134,1.481-1.348,3.421,3.883,1.496
		c2.369-0.132,5.706-7.762,4.426-1.419c-3.438,4.915-6.934,10.922-11.443,14.047c0.89-4.328-1.862-5.973-5.047-2.436
		c-3.478,4.088-9.71,1.289-11.366,7.185c-4.639,2.335-5.556,8.865-0.605,2.76c3.794-5.408,8.357-7.187,13.323-5.582
		c6.82-3.841,2.581,1.966-0.078,5.242c-0.451,3.141-3.797,3.125-5.278,5.443c-5.575-1.365,2.388,1.573-2.3,4.548
		c4.601,2.179,7.59-3.819,10.498-6.476c-4.837-4.255,8.479-0.188,11.307-3.101c3.82-4.915,9.172-5.432,14.486-6.43
		c6.983-10.063,17.314,1.678,26.479,0.155c3.983-3.25,8.12-3.049,12.825-1.096c6.503-0.331,15.109,3.859,20.717,0.231
		c3.32-0.011,7.543,2.1,10.774-0.987c5.819-0.016,9.206,2.396,12.796,7.031c1.845,2.05,0.441,8.188,3.76,10.747
		c-2.607,0.837,1.672,3.615-2.159,5.858c-3.479,6.438-15.185,16.573-12.688,27.308c1.16,6.765-7.989,12.167-5.821,19.629
		c-1.606,6.458-7.646,11.973-11.646,14.725c-1.127,4.799-0.754,6.824-4.332,10.115c2.447,5.639-6.291,9.46-10.265,12.752
		c-0.726,5.066-5.019,0.836-8.401,3.361c-6.551-0.557-13.314,2.572-17.903,8.373c-5.896,0.021-3.982,2.429,0.854,0.939
		c5.943-2.484,11.549-6.885,17.237-8.436c5.803-0.342,1.872,7.475,2.529,7.803c1.567,4.418,12.985,2.637,11.088,8.93
		c-4.304,5.193-10.918,8.24-17.021,5.057c-4.777,3.566-10.457,7.722-11.615,13.275c-6.499-0.992-11.021,6.643-17.144,1.772
		c-3.415-4.325-13.25,0.748-5.699,2.111c5.448,0.002,11.189,2.199,15.918,2.514c4.449,0.562,9.283,0.56,13.229,3.285
		c4.349-0.461,9.675-3.254,9.521-7.647c2.805-4.406,14.6-3.482,14.193,3.285c6.426-2.563,11.901,8.629,19.255,6.782
		c3.234,1.873,4.44,4.523,6.031,9.588c-1.381,2.19-4.41,4.521-4.955,5.604c-0.533,1.059-1.031,1.725-1.765,2.449
		c-0.594,0.592-1.634,1.272-2.292,1.926c-0.619,0.615-0.713,1.934-1.231,2.449c-0.771,0.764-1.382,1.6-2.291,2.274
		c-0.909,0.679-1.126,1.146-1.41,2.275c-0.2,0.793,0.028,1.861,0.177,2.449c0.22,0.869,0.301,1.824,0.704,2.625
		c0.5,0.992,1.868,2.028,2.468,2.625c0.418,0.416,0.667,2.098,1.234,2.801c0.457,0.568,0.179,2.109,0.352,2.801
		c0.266,1.045,0,1.951,0,2.976c0,1.319-1.351,1.811-2.291,2.274c-0.882,0.438-1.319,1.691-1.763,2.273
		c-0.662,0.879-1.273,0.723-2.291,1.227c-0.824,0.41-1.488,1.789-2.468,2.275c-0.104,0.053-0.234,0-0.354,0
		c-1.058,0-2.06,1.344-2.645,1.926c-0.833,0.826-1.85,1.289-2.996,1.574c-0.669,0.166-1.688,1.271-2.291,1.75
		c-0.813,0.646-1.859,1.729-2.644,1.926c-0.807,0.199-0.854,1.293-1.06,2.1c-0.245,0.976-0.448,1.593-0.882,2.451
		c-0.45,0.894-0.95,1.361-1.41,2.273c-0.599,1.188-1.509,2.199-2.467,3.149c-0.938,0.931-1.711,1.373-2.82,1.925
		c-1.257,0.625-1.571,1.268-2.818,1.575c-0.747,0.187-1.706,2.337-2.291,2.802c-0.667,0.528-1.367,0.646-2.291,0.875
		c-1.147,0.283-1.403,1.225-2.82,1.225C376.641,542.971,375.52,546.686,375.113,546.991z"/>
	<path id="line475" fill="#222222" stroke="#727271" stroke-width="2" d="M448.148,130.291c-0.662,3.978-4.942,4.871-1.533-0.108
		C446.908,129.807,448.836,129.565,448.148,130.291z"/>
	<path id="line476" fill="#222222" stroke="#727271" stroke-width="2" d="M409.153,146.613c-0.329,3.708-4.812,4.039-2.192-0.054
		C407.849,146.654,410.243,144.1,409.153,146.613z"/>
	<path id="line477" fill="#222222" stroke="#727271" stroke-width="2" d="M407.898,156.771c-4.598-2.054-5.308,8.34-6.102,2.414
		c-2.43,5.267-3.272-1.595-6.584,4.18c-3.293,5.75-1.793-3.787,2.814-4.555c-2.673-4.247,7.262-5.906,1.49-1.637
		C400.658,161.623,410.135,147.805,407.898,156.771z"/>
	<path id="line478" fill="#222222" stroke="#727271" stroke-width="2" d="M400.788,172.455c0.356,2.878,1.652,3.525-2.845,4.03
		c-0.501-6.063-2.424,0.444-4.306-0.428c1.271-3.617,5.294-3.949,1.076-7.155c3.576-0.458,4.473,0.721,3.74,3.366
		C398.925,172.827,401.936,170.93,400.788,172.455z"/>
	<path id="line479" fill="#222222" stroke="#727271" stroke-width="2" d="M387.744,176.005c-0.619,4.611-0.266,6.119-5.302,4.718
		c-1.71-2.324,0.649-4.405,3.343-2.878C386.262,176.99,386.405,174.523,387.744,176.005z"/>
	<path id="line480" fill="#222222" stroke="#727271" stroke-width="2" d="M393.515,187.853c-0.067,4.827-5.52,2.68-6.915,7.618
		c-3.075-2.296-7.325-2.168-6.336-7.832c-5.373,1.846-7.074,4.157-12.203,4.197c-4.645-2.621,2.05-12.146-2.442-10.156
		c-1.714,0.857,0.52,3.478-1.505,5.641c-3.553,3.729-5.29-7.082-3.492-9.663c-2.146-7.809,8.115-10.234,12.673-5.391
		c2.563,0.428,1.229,3.856,4.954,4.884c-1.012,2.771-3.995,2.224-6.252,6.127c0.073,2.134,4.473,1.625,5.451-0.853
		c2.9,3.282,4.271-1.438,6.02,2.368c0.002,3.215,3.998-1.351,5.535,0.825c-3.107,1.421-3.446,4.814,1.133,2.419
		C390.28,186.38,393.176,186.612,393.515,187.853z"/>
	<path id="line481" fill="#222222" stroke="#727271" stroke-width="2" d="M384.721,198.281c-5.68,2.133-3.407-2.671-0.994-1.644
		C382.358,198.919,385.572,196.848,384.721,198.281z"/>
	<path id="line482" fill="#222222" stroke="#727271" stroke-width="2" d="M383.561,201.141c-3.099,1.602,0.57,12.134-4.705,6.004
		c0.996-3.632-2.93-4.411,0.481-6.057C369.654,201.447,386.35,196.53,383.561,201.141z"/>
	<path id="line483" fill="#222222" stroke="#727271" stroke-width="2" d="M375.832,208.201
		C373.411,211.586,375.414,206.098,375.832,208.201z"/>
	<path id="line484" fill="#222222" stroke="#727271" stroke-width="2" d="M372.796,213.928
		C370.454,219.505,370.704,210.626,372.796,213.928z"/>
	<path id="line485" fill="#222222" stroke="#727271" stroke-width="2" d="M370.298,195.206
		C371.927,197.806,367.426,194.397,370.298,195.206z"/>
	<path id="line486" fill="#222222" stroke="#727271" stroke-width="2" d="M370.298,197.91
		C371.445,201.889,367.425,197.252,370.298,197.91z"/>
	<path id="line487" fill="#222222" stroke="#727271" stroke-width="2" d="M374.135,200.268c-3.689,4.983-2.956-4.769-0.194-1.483
		C371.054,199.648,373.535,199.297,374.135,200.268z"/>
	<path id="line488" fill="#222222" stroke="#727271" stroke-width="2" d="M368.35,197.937c0.667,2.848,1.153,3.269-2.678,5.479
		c1.543-0.763,9.124-1.431,3.342,1.271c-6.124,2.429-8.387-4.105-10.117-8.578c-6.326-0.125,2.663-9.446,4.651-3.396
		C366.297,194.152,367.201,195.32,368.35,197.937z"/>
	<path id="line489" fill="#222222" stroke="#727271" stroke-width="2" d="M364.762,190.509
		C363.035,192.527,361.109,188.014,364.762,190.509z"/>
	<path id="line490" fill="#222222" stroke="#727271" stroke-width="2" d="M379.738,175.791
		C379.188,178.065,376.676,173.725,379.738,175.791z"/>
	<path id="line491" fill="#222222" stroke="#727271" stroke-width="2" d="M379.919,167.272c0.219,3.05-3.289,7.002-6.446,2.646
		c-3.788-2.555,1.719-8.055,3.229-3.342C377.891,165.443,381.259,165.254,379.919,167.272z"/>
	<path id="line492" fill="#222222" stroke="#727271" stroke-width="2" d="M382.485,168.902c-0.697,6.425-3.759-2.851-0.024-0.615
		l0.149,0.267L382.485,168.902z"/>
	<path id="line493" fill="#222222" stroke="#727271" stroke-width="2" d="M380.36,172.241
		C377.259,175.486,375.703,170.55,380.36,172.241z"/>
	<path id="line494" fill="#222222" stroke="#727271" stroke-width="2" d="M380.36,150.325c-4.189,4.168,3.61,3.874,5.106,7.492
		c1.694,2.257-3.159,5.419-1.644,0.751c-3.997-4.656-4.018-0.221-6.185-0.966c-1.155-3.502-5.708-6.648,0.497-5.8
		C378.002,150.15,380.423,147.886,380.36,150.325z"/>
	<path id="line495" fill="#222222" stroke="#727271" stroke-width="2" d="M384.46,148.174c0.174,4.502-2.996,5.874-1.464,0.619
		C382.842,147.398,384.109,145.398,384.46,148.174z"/>
	<path id="line496" fill="#222222" stroke="#727271" stroke-width="2" d="M387.109,162.534
		C387.719,166.795,385.552,162.167,387.109,162.534z"/>
	<path id="line497" fill="#222222" stroke="#727271" stroke-width="2" d="M391.581,162.748c-3.479,2.38,1.066,9.533-3.146,6.662
		c-3.096-3.9-0.786-3.033,0.083-5.591C387.582,158.096,389.701,159.395,391.581,162.748z"/>
	<path id="line498" fill="#222222" stroke="#727271" stroke-width="2" d="M391.76,160.096
		C393.331,163.405,388.688,158.419,391.76,160.096z"/>
	<path id="line524" fill="#222222" stroke="#727271" stroke-width="2" d="M243.363,446.856c0.955,5.231-4.201,10.895-6.198,15.807
		c-1.423-2.291-10.854,3.287-7.467-3.258C232.379,453.723,239.672,449.313,243.363,446.856z"/>
	<path id="line525" fill="#222222" stroke="#727271" stroke-width="2" d="M249.009,439.938
		C249.664,444.748,246.207,440.229,249.009,439.938z"/>
	<path id="line526" fill="#222222" stroke="#727271" stroke-width="2" d="M246.552,436.287c2.153,2.309-1.702,10.172-1.036,2.764
		C246.063,438.445,244.725,434.543,246.552,436.287z"/>
	<path id="line527" fill="#222222" stroke="#727271" stroke-width="2" d="M248.912,431.719
		C248.38,441.219,242.39,429.588,248.912,431.719z"/>
	<path id="line528" fill="#222222" stroke="#727271" stroke-width="2" d="M253.328,423.207
		C250.679,429.822,245.479,423.875,253.328,423.207z"/>
	<path id="line529" fill="#222222" stroke="#727271" stroke-width="2" d="M244.094,442.721
		C245.136,449.408,236.819,443.647,244.094,442.721z"/>
	<path id="line530" fill="#222222" stroke="#727271" stroke-width="2" d="M243.555,440.578
		C243.53,443.535,241.822,439.707,243.555,440.578z"/>
	<path id="line531" fill="#222222" stroke="#727271" stroke-width="2" d="M240.934,437.891
		C239.103,440.328,239.391,436.623,240.934,437.891z"/>
	<path id="line532" fill="#222222" stroke="#727271" stroke-width="2" d="M221.623,448.947c-1.448,4.848-4.49,10.139-6.527,6.508
		C215.867,451.635,219.94,448.686,221.623,448.947z"/>
	<path id="line533" fill="#222222" stroke="#727271" stroke-width="2" d="M217.784,457.811
		C213.876,461.615,216.481,454.813,217.784,457.811z"/>
	<path id="line534" fill="#222222" stroke="#727271" stroke-width="2" d="M245.807,420.135c-1.251,1.353,0.139,6.9-3.203,4.285
		c-0.866-1.621-3.758,4.188,0.925,1.412c0.498,4.732-12.634,9.078-7.979,2.695c-5.585,3.838-12.09,6.123-19.462,6.104
		c-2.134,5.547-9.505-5.795-2.846-5.238c1.983,2.826,3.305,2.339,3.672,0.396c2.994,2.195,14.55-4.719,9.058-3.635
		c-3.011,2.135-11.609,2.586-5.813-2.104c0.173-4.973,9.502-4.143,7.701-8.232c-5.521,4.432-7.031-1.451-11.993-2.782
		c-6.388,1.229-2.528-3.718-2.069-4.748c-3.972-2.046,3.324-3.814,4.375-1.792c-2.41-6.404,8.562-5.435,9.551,0.821
		c1.877,4.221,4.117,7.222,8.561,6.812C238.979,414.147,243.502,418.313,245.807,420.135z"/>
	<path id="line535" fill="#222222" stroke="#727271" stroke-width="2" d="M256.559,410.974c-0.954,3.015-10.702,10.954-7.081,6.108
		C250.085,415.629,256.744,408.981,256.559,410.974z"/>
	<path id="line536" fill="#222222" stroke="#727271" stroke-width="2" d="M210.828,433.621
		C211.918,438.688,212.233,433.941,210.828,433.621z"/>
	<path id="line537" fill="#222222" stroke="#727271" stroke-width="2" d="M209.449,430.063
		C204.912,437.672,206.163,426.578,209.449,430.063z"/>
	<path id="line538" fill="#222222" stroke="#727271" stroke-width="2" d="M221.098,418.672c-4.942,2.133-6.736-5.17-0.979-1.291
		C220.488,417.732,221.863,417.936,221.098,418.672z"/>
	<path id="line539" fill="#222222" stroke="#727271" stroke-width="2" d="M215.315,416.363
		C211.217,418.768,214.473,413.809,215.315,416.363z"/>
	<path id="line540" fill="#222222" stroke="#727271" stroke-width="2" d="M204.769,419.342
		C202.705,421.934,204.953,416.797,204.769,419.342z"/>
	<path id="line541" fill="#222222" stroke="#727271" stroke-width="2" d="M207.613,416.264
		C206.763,420.18,206.153,414.504,207.613,416.264z"/>
	<path id="line542" fill="#222222" stroke="#727271" stroke-width="2" d="M192.678,412.167c-1.799,2.062-4.379,0.995-4.956,4.224
		c-5.14-1.553-2.997,5.986-7.771,3.148c-2.371-3.932,1.942-7.183,6.394-7.049C189.028,412.648,191.445,409.156,192.678,412.167z"/>
	<path id="line543" fill="#222222" stroke="#727271" stroke-width="2" d="M206.038,399.269c-1.236,6.379-7.503,9.331-11.828,9.666
		c-1.438,0.444,3.284-5.449,5.978-7.022C200.95,400.38,206.558,397.056,206.038,399.269z"/>
	<path id="line544" fill="#222222" stroke="#727271" stroke-width="2" d="M237.318,389.426
		C232.051,390.277,236.534,385.803,237.318,389.426z"/>
	<path id="line545" fill="#222222" stroke="#727271" stroke-width="2" d="M217.773,385.194
		C214.122,387.943,215.007,382.178,217.773,385.194z"/>
	<path id="line546" fill="#222222" stroke="#727271" stroke-width="2" d="M223.555,377.018c1.889,6.645-8.45,4.188-4.003,0.452
		C221.438,377.935,220.846,371.485,223.555,377.018z"/>
	<path id="line547" fill="#222222" stroke="#727271" stroke-width="2" d="M216.53,370.482c-0.04,7.319-7.423,4.859-9.126,0.075
		c-4.366-1.081,5.573-8.775,7.454-4.003C217.645,367.31,216.113,369.324,216.53,370.482z"/>
	<path id="line548" fill="#222222" stroke="#727271" stroke-width="2" d="M204.397,364.842c-3.657,2.272-8.878,0.819-2.471-0.78
		C202.607,363.67,204.6,363.653,204.397,364.842z"/>
	<path id="line549" fill="#222222" stroke="#727271" stroke-width="2" d="M205.501,366.404
		C202.489,367.185,203.805,364.284,205.501,366.404z"/>
	<path id="line550" fill="#222222" stroke="#727271" stroke-width="2" d="M221.664,317.814c1.107,5.125-0.443,14.83-1.396,15.834
		c3.456,0.271,1.088,5.004,3.563,7.039c3.31,0.683,1.825,4.495,2.473,4.489c4.583-0.677,9.853,5.905,14.383,0.279
		c1.985,0.165,4.318,0.093,5.313,2.052c1.656,5.979-7.171,5.806-6.792,9.158c-0.997,3.533-5.378,6.675-7.425,9.89
		c-4.32,4.358-6.018-0.68-3.425-4.311c-2.055-5.422,8.933-7.255,7.73-8.739c-3.769,2.43-7.19,0.178-8.627-2.707
		c0.841,3.771-4.786,11.505-3.866,3.415c-1.747-3.271-8.973,3.108-10.448,0.531c5.452-2.951-7.861-1.564-2.416-5.338
		c-1.393,0.019-5.655-3.973-6.071-6.313c1.251-6.928,7.267,0.851,7.453-0.48c-2.979-3.032-2.767-5.795-6.171-4.468
		c-0.681-2.496-1.796-5.193-3.341-2.339c-0.439-6.146-2.437,1.339-2.539,4.065c-4.341-2.056-8.336-3.382-9.456-8.16
		c-3.927-1.932,1.143-3.025,1.408-3.158c-3.265-5.421,3.324-4.415,3.977,0.153c4.414,3.931,3.653,0.7,1.588-3.135
		c1.867-1.851,4.14-0.688,0.497-4.465c-3.338-3.774,0.854-9.248,1.917-2.146c1.797,3.436,7.479,4.886,6.983,5.312
		c-0.426,6.322,1.736-6.253,3.244,0.383c6.688,5.008-5.362-5.113,0.165-7.737c-4.43-2.625-1.46-6.563,1.036-9.678
		c-1.338-3.323,6.625,1.863,6.377,5.124C220.363,312.676,220.92,316.091,221.664,317.814z"/>
	<path id="line551" fill="#222222" stroke="#727271" stroke-width="2" d="M237.69,338.858
		C239.174,341.8,234.936,337.08,237.69,338.858z"/>
	<path id="line552" fill="#222222" stroke="#727271" stroke-width="2" d="M237.055,344.973
		C235.924,347.377,235.239,343.658,237.055,344.973z"/>
	<path id="line553" fill="#222222" stroke="#727271" stroke-width="2" d="M233.011,342.717
		C229.113,351.419,224.235,334.438,233.011,342.717z"/>
	<path id="line554" fill="#222222" stroke="#727271" stroke-width="2" d="M231.148,317.583
		C229.893,330.574,226.441,317.64,231.148,317.583z"/>
	<path id="line555" fill="#222222" stroke="#727271" stroke-width="2" d="M229.822,325.497c-3.098,4.396-1.527,9.183-0.91,13.234
		c-5.431,5.012-4.598-7.799-2.235-10.15C229.117,329.741,228.41,322.609,229.822,325.497z"/>
	<path id="line556" fill="#222222" stroke="#727271" stroke-width="2" d="M210.718,287.698
		C213.194,292.986,207.288,286.203,210.718,287.698z"/>
	<path id="line557" fill="#222222" stroke="#727271" stroke-width="2" d="M207.529,302.417
		C208.965,304.718,204.633,301.511,207.529,302.417z"/>
	<path id="line558" fill="#222222" stroke="#727271" stroke-width="2" d="M247.904,293.419
		C250.142,297.537,244.525,291.256,247.904,293.419z"/>
	<path id="line559" fill="#222222" stroke="#727271" stroke-width="2" d="M255.523,288.111
		C257.488,292.046,253.354,286.898,255.523,288.111z"/>
	<path id="line560" fill="#222222" stroke="#727271" stroke-width="2" d="M267.547,283.801
		C266.053,282.015,269.597,283.137,267.547,283.801z"/>
	<path id="line561" fill="#222222" stroke="#727271" stroke-width="2" d="M258.712,277.754
		C254.535,277.977,259.08,273.528,258.712,277.754z"/>
	<path id="line562" fill="#222222" stroke="#727271" stroke-width="2" d="M257.345,280.805
		C254.604,280.256,258.554,279.549,257.345,280.805z"/>
	<path id="line563" fill="#222222" stroke="#727271" stroke-width="2" d="M253.825,282.536
		C250.361,282.362,254.724,280.104,253.825,282.536z"/>
	<path id="line564" fill="#222222" stroke="#727271" stroke-width="2" d="M270.57,243.226
		C267.155,244.723,271.745,240.051,270.57,243.226z"/>
	<path id="line565" fill="#222222" stroke="#727271" stroke-width="2" d="M220.85,240.113c-4.203,2.627,0.544,6.856-0.662,7.5
		c-3.469,3.103-8.079,7.995-8.158,10.711c4.587,4.315,11.063-9.247,10.216-0.338c-2.017,4.13-5.701,3.736-8.985,2.549
		c-1.974,0.514-4.74-2.479-2.72,2.132c3.506,4.92-6.237,6.247-7.676,7.813c5.486-0.207,7.583-3.758,7.979,2.901
		c1.514,7.086-8.674,2.628-8.462,4.116c6.663,1.587,1.792,8.157-0.951,7.313c-0.813,4.81-5.078-5.217-3.506,1.213
		c-4.846-0.836-5.354-8.313-4.279-10.984c-4.349,3.551-0.002,10.676,1.242,13.254c-0.753,2.356-10.396-1.774-5.08,3.273
		c2.678,2.64-1.247,4.007-1.974,4.299c-3.13-0.51-4.4,5.016-6.931,7.632c-2.249-1.282-8.19-6.906-9.151-10.103
		c3.854,0.639,2.716,5.002,5.121,0.181c1.146-1.771,5.58-3.215,5.384-3.813c-4.649-3.294,3.268-1.964,5.188-2.319
		c-1.515-3.297-6.792-4.895-10.808-4.931c-4.021-2.521-4.354-5.443-0.275-6.359c4.372-1.903-1.785-1.369-0.069-2.849
		c-2.5-2.15-4.584-6.799-1.959-10.245c-0.063-2.352,7.036-0.271,2.043-3.432c0.1-5.515,4.772-0.777,5.659-2.16
		c3.507,2.58-2.48,3.307,3.325,5.071c0.781-4.907,8.366,1.945,8.313-1.272c-3.718-2.964-8.021-10.546-1.507-12.058
		c2.311-3.695,7.774-2.785,10.202-4.569c2.315-6.518,11.665-9.036,13.814-13.979C219.873,233.329,220.146,236.124,220.85,240.113z"
		/>
	<path id="line566" fill="#222222" stroke="#727271" stroke-width="2" d="M190.096,258.454c-0.385,5.182-8.603-7.539-2.511-2.004
		C188.016,257.196,189.226,257.394,190.096,258.454z"/>
	<path id="line567" fill="#222222" stroke="#727271" stroke-width="2" d="M186.742,259.572
		C184.453,258.665,187.075,257.787,186.742,259.572z"/>
	<path id="line568" fill="#222222" stroke="#727271" stroke-width="2" d="M173.063,277.47
		C165.46,278.492,173.744,271.03,173.063,277.47z"/>
	<path id="line569" fill="#222222" stroke="#727271" stroke-width="2" d="M179.924,287.982c-2.902,2.558-6.822,1.369-1.795-1.471
		C179.479,284.884,179.93,286.773,179.924,287.982z"/>
	<path id="line570" fill="#222222" stroke="#727271" stroke-width="2" d="M168.163,299.129
		C168.254,303.973,161.812,297.718,168.163,299.129z"/>
	<path id="line571" fill="#222222" stroke="#727271" stroke-width="2" d="M171.187,303.65
		C167.243,310.359,166.045,300.695,171.187,303.65z"/>
	<path id="line572" fill="#222222" stroke="#727271" stroke-width="2" d="M164.657,305.369
		C164.421,309.093,162.342,303.55,164.657,305.369z"/>
	<path id="line573" fill="#222222" stroke="#727271" stroke-width="2" d="M145.374,306.574
		C144.988,308.248,143.854,305.408,145.374,306.574z"/>
	<path id="line575" fill="#222222" stroke="#727271" stroke-width="2" d="M175.272,312.723c-0.353,4.104-8.237-3.084-5.203,1.383
		c-0.056,3.599,5.581,0.336,2.098,5.087c-4.819,0.843-8.823-1.855-7.84,2.248c-0.061,6.765-5.435-8.005-9.387-2.938
		c-5.54-2.15-1.287-5.739,0-8.366c2.911,0.443,5.032-1.318,3.091,1.896c1.958,1.208,5.249-8.419,4.253-1.946
		c2.941,6.672,3.605-6.527,7.882-1C166.26,313.751,176.27,308.886,175.272,312.723z"/>
	<path id="line576" fill="#222222" stroke="#727271" stroke-width="2" d="M157.59,318.912
		C159.715,322.339,155.16,318.292,157.59,318.912z"/>
	<path id="line577" fill="#222222" stroke="#727271" stroke-width="2" d="M146.921,323.023
		C142.3,323.133,149.33,321.655,146.921,323.023z"/>
	<path id="line578" fill="#222222" stroke="#727271" stroke-width="2" d="M149.13,322.258
		C148.726,325.515,146.988,321.691,149.13,322.258z"/>
	<path id="line579" fill="#222222" stroke="#727271" stroke-width="2" d="M161.4,322.232
		C161.392,331.143,155.904,315.898,161.4,322.232z"/>
	<path id="line580" fill="#222222" stroke="#727271" stroke-width="2" d="M167.776,330.415c-1.038,8.702-16.314-3.256-6.087-4.765
		C163.913,327.661,166.657,327.55,167.776,330.415z"/>
	<path id="line581" fill="#222222" stroke="#727271" stroke-width="2" d="M166.202,339.315c-3.432,0.092-11.146-5.982-4.515-4.905
		C165.179,335.869,164.462,336.981,166.202,339.315z"/>
	<path id="line582" fill="#222222" stroke="#727271" stroke-width="2" d="M168.467,343.401c-2.152,2.946-3.471,7.784-7.37,5.702
		c1.407,0.056,7.937,6.271,2.939,7.284c-6.465,0.273,2.472,0.924,3.117,3.282c0.021,2.641-8.899,1.896-9.178-2.298
		c-1.781-7.033-0.898-11.336,0.646-18.286c-1.937-6.041,0.021-1.789,3.053-0.354C164.629,339.961,167.649,342.008,168.467,343.401z"
		/>
	<path id="line583" fill="#222222" stroke="#727271" stroke-width="2" d="M165.127,362.724
		C163.369,369.755,161.046,359.451,165.127,362.724z"/>
	<path id="line584" fill="#222222" stroke="#727271" stroke-width="2" d="M159.758,366.026
		C156.639,367.097,159.369,363.329,159.758,366.026z"/>
	<path id="line585" fill="#222222" stroke="#727271" stroke-width="2" d="M157.273,366.404c-0.463,3.565,2.441,4.879-0.027,7.825
		c-2.978,2.086-9.057-0.091-4.168-3.445c-1.372-1.488,3.865-4.404,3.188-5.136C156.586,365.928,157.066,365.986,157.273,366.404z"/>
	<path id="line586" fill="#222222" stroke="#727271" stroke-width="2" d="M154.015,376.265c-0.387,2.569-5.349,1.433-2.648-1.156
		C151.69,375.828,155.42,375.651,154.015,376.265z"/>
	<path id="line587" fill="#222222" stroke="#727271" stroke-width="2" d="M153.754,380.507
		C149.118,381.967,154.047,377.288,153.754,380.507z"/>
	<path id="line588" fill="#222222" stroke="#727271" stroke-width="2" d="M150.633,384.092
		C145.658,384.623,151.088,381.898,150.633,384.092z"/>
	<path id="line589" fill="#222222" stroke="#727271" stroke-width="2" d="M147.61,386.371
		C145.968,393.956,143.612,385.162,147.61,386.371z"/>
	<path id="line590" fill="#222222" stroke="#727271" stroke-width="2" d="M161.786,368.871
		C163.697,371.148,158.841,368.206,161.786,368.871z"/>
	<path id="line591" fill="#222222" stroke="#727271" stroke-width="2" d="M168.991,334.512
		C165.592,337.482,168.947,329.427,168.991,334.512z"/>
	<path id="line592" fill="#222222" stroke="#727271" stroke-width="2" d="M168.093,326.058
		C167.854,329.292,163.473,323.014,168.093,326.058z"/>
	<path id="line593" fill="#222222" stroke="#727271" stroke-width="2" d="M170.26,325.269
		C170.003,331.08,167.057,322.757,170.26,325.269z"/>
	<path id="line594" fill="#222222" stroke="#727271" stroke-width="2" d="M168.342,320.751
		C168.081,328.194,162.224,320.211,168.342,320.751z"/>
	<path id="line595" fill="#222222" stroke="#727271" stroke-width="2" d="M171.752,320.496
		C172.005,327.502,164.557,321.486,171.752,320.496z"/>
	<path id="line597" fill="#222222" stroke="#727271" stroke-width="2" d="M487.582,2.687c-2.075-2.015-4.938,9.845-4.044,3.653
		c2.388-3.805-0.601-5.115-1.795-1.012c-1.523,2.59-0.903,9.002-2.359,10.074c-1.527,5.235,5.075,2.893,6.667,3.023
		c-2.131-3.21,1.654-6.819,0.927-8.801c1.075-2.378,2.55-3.336,1.697-6.321C488.375,3.188,487.42,3.257,487.582,2.687z"/>
	<path id="line598" fill="#222222" stroke="#727271" stroke-width="2" d="M478.638,24.691c2.24,1.482-4.229,2.97-0.109,0.083
		L478.638,24.691z"/>
	<path id="line599" fill="#222222" stroke="#727271" stroke-width="2" d="M489.172,27.902c0.412-2.521-2.687-3.602-5.233-3.185
		c-7.101-4.329,1.297,10.93,0.415,3.185C486.85,27.284,488.097,32.368,489.172,27.902z"/>
	<path id="line600" fill="#222222" stroke="#727271" stroke-width="2" d="M490.261,44.632
		C488.321,42.179,487.259,48.786,490.261,44.632z"/>
	<path id="line601" fill="#222222" stroke="#727271" stroke-width="2" d="M481.925,49.376c1.756-4.912-10.208,6.166-2.831,3.852
		C480.4,52.186,480.668,50.471,481.925,49.376z"/>
	<path id="line602" fill="#222222" stroke="#727271" stroke-width="2" d="M477.078,72.362
		C477.432,68.816,474.815,74.687,477.078,72.362z"/>
	<path id="line603" fill="#222222" stroke="#727271" stroke-width="2" d="M475.34,73.16c1.982-5.098-5.961-6.659-3.34-0.854
		C471.125,75.567,475.848,78.274,475.34,73.16z"/>
	<path id="line604" fill="#222222" stroke="#727271" stroke-width="2" d="M467.912,40.047c-0.317-6.528-3.83,3.069-4.153-1.335
		c-2.138,2.907,4.942,4.398-1.726,4.727c-2.191,6.094-3.356,1.083-0.389-2c1.655-3.957-0.428-2.634-0.578-4.062
		c-0.154-4.278,0.578-3.596,1.118-8.274c2.047-2.482-0.756-9.122-0.677-2.932c-0.15,1.284-6.771-2.209-5.094,3.237
		c-5.771,2.431,0.991,6.03,1.157,6.995c-5.065,1.452-6.611-10.339-7.604-1.197c-4.314,1.139-2.307,5.932,0.76,3.284
		c3.791-1.948,1.104,5.549,4.044,0.584c0.985-1.245,0.337,7.284,3.285,6.418c-1.754,4.986,3.279,1.111,2.732,4.438
		c5.858,1.663,1.706,0.496,0.553,2.384c-2.11-0.142-0.641,4.461-2.002,5.646c-2.16-6.577-5.181-0.929-5.189,0.58
		c-0.589-8.227-4.415,2.871-6.419-2.71c-9.145-0.361-2.243,13.347,2.597,8.622c1.191,4.167,2.713-5.815,3.313,0.524
		c-2.354,1.17-2.754,4.254,1.449,6.45c1.029-3.984,2.471-2.095,3.409-5.347c4.811,2.354-5.52-8.478,1.478-3.809
		c0.924,6.744,1.285,1.255,3.977,0.166c-1.286,2.592-3.636,10.564-0.166,5.38c-0.356,5.548,0.951,10.195-1.406,16.443
		c-2.502,4.463-0.982,6.377-3.162,10.735c-1.161,2.827,4.3,2.801,3.382,4.508c3.521,3.325,0.04-6.075,2.498-8.119
		c-0.327-5.227,0.646-3.112,2.54-4.081c-3.402-4.711,3.937-4.352-0.193-8.533c-0.604-4.353,1.503-5.134,3.673-7.399
		c-2.45-2.254,0.28-5.926-3.438-2.563c3.434-5.723-1.141-1.578,0.564-4.356c-2.56-0.944-0.039-2.426-0.149-4.805
		c-0.333,4.774,6.612,1.188,3.339-0.774c-3.354,0.083,6.078-5.535-0.883-5.257c-5.041-2.313,6.999-0.4,3.409-5.986
		c-5.837,3.52,0.451-2.012,1.572-5.386c-3.45,0.813-4.178,4.502-5.659,5.469c-0.354-3.392-3.638-0.868-3.243-2.22
		C469.884,44.043,470.754,43.646,467.912,40.047z"/>
	<path id="line605" fill="#222222" stroke="#727271" stroke-width="2" d="M426.697,73.215
		C423.738,64.229,420.912,79.277,426.697,73.215z"/>
	<path id="line606" fill="#222222" stroke="#727271" stroke-width="2" d="M449.72,66.465
		C444.985,65.259,451.252,69.565,449.72,66.465z"/>
	<path id="line607" fill="#222222" stroke="#727271" stroke-width="2" d="M442.709,52.286c-3.122,2.903,6.595,1.773,0.315,0.111
		L442.709,52.286z"/>
	<path id="line608" fill="#222222" stroke="#727271" stroke-width="2" d="M459.328,53.394
		C457.382,50.169,458.391,57.482,459.328,53.394z"/>
	<path id="line609" fill="#222222" stroke="#727271" stroke-width="2" d="M458.679,49.542
		C451.163,45.108,456.746,57.196,458.679,49.542z"/>
	<path id="line610" fill="#222222" stroke="#727271" stroke-width="2" d="M477.548,14.057c-4.017-0.463-6.755-1.28-5.729,4.538
		c-0.963,3.583,0.704,10.989-1.395,3.944c-3.766,0.376-2.002,12.028,0.621,15.478c2.234-1.88,0.463-2.259,5.063-1.252
		c-0.726-5.058,2.341-7.694-2.043-10.983c5.5,1.987-2.681-9.678,2.929-2.878C479.39,22.44,476.816,16.06,477.548,14.057z"/>
	<path id="line2130" fill="#222222" stroke="#727271" stroke-width="2" d="M166.947,316.126c-3.815,3.095-1.678-0.333-2.027-1.791
		C165.21,315.591,167.243,314.77,166.947,316.126z"/>
	<path id="path26824" fill="#222222" stroke="#727271" stroke-width="2" d="M321.274,250.426c0.718-0.015,1.939,0.594,3.214,2.452
		l-0.513-0.046C320.281,252.214,320.077,250.45,321.274,250.426z"/>
	<path id="path26822" fill="#222222" stroke="#727271" stroke-width="2" d="M312.934,256.379
		C307.094,263.617,309.772,257.425,312.934,256.379z"/>
	<path id="path26820" fill="#222222" stroke="#727271" stroke-width="2" d="M293.214,262.716
		c5.892,3.307,11.815,7.418,15.403,13.185c-0.687,0.319-1.099-0.692-1.477-1.064C303.783,270.69,293.05,263.031,293.214,262.716z"/>
	<path id="path26818" fill="#222222" stroke="#727271" stroke-width="2" d="M322.702,282.838c0.839-0.142,8.362,3.271,3.244,2.282
		C323.071,283.491,322.373,282.895,322.702,282.838z"/>
	<path id="path26816" fill="#222222" stroke="#727271" stroke-width="2" d="M309.131,286.847c0.232,0.005,0.877,0.627,2.05,2.251
		c0.483,3.7,10.049,0.615,5.217,2.699C312.632,294.58,308.291,286.83,309.131,286.847z"/>
	<path id="path26814" fill="#222222" stroke="#727271" stroke-width="2" d="M255.277,298.426c0.351-0.111,0.979,0.621,1.646,2.837
		c0.375,0.6,3.186,2.886,0.946,2.515C254.947,301.923,254.612,298.641,255.277,298.426z"/>
	<path id="path26812" fill="#222222" stroke="#727271" stroke-width="2" d="M248.476,300.817c0.074-0.014,2.32,2.499,4.439,3.994
		c1.493,1.142,12.141,7.851,7.548,6.32c-3.375-3.914-9.867-1.691-9.984-7.709C248.999,301.524,248.436,300.823,248.476,300.817z"/>
	<path id="path26810" fill="#222222" stroke="#727271" stroke-width="2" d="M276.567,310.468c0.571,0.019,1.423,0.097,2.624,0.278
		c0.948,0.748,5.556-1.302,4.208,0.524c-3.141,1.5-9.585-0.626-7.313-0.786C276.217,310.476,276.376,310.467,276.567,310.468z"/>
	<path id="path26808" fill="#222222" stroke="#727271" stroke-width="2" d="M348.184,310.577c0.679-0.021,1.127,0.513,0.561,2.128
		C344.088,313.302,346.692,310.623,348.184,310.577z"/>
	<path id="path26806" fill="#222222" stroke="#727271" stroke-width="2" d="M310.015,324.023c1.076,1.067,7.224-0.185,5.326,1.479
		C311.467,327.656,301.216,324.64,310.015,324.023z"/>
	<path id="path26804" fill="#222222" stroke="#727271" stroke-width="2" d="M275.371,330.344c1.657-0.175,4.854,2.592,2.997,2.359
		c-2.657-1.954-10.766-0.284-3.589-2.082C274.936,330.459,275.134,330.369,275.371,330.344z"/>
	<path id="path26802" fill="#222222" stroke="#727271" stroke-width="2" d="M311.258,334.538c0.743-0.02,0.314,1.007,0.373,1.373
		c-6.024,6.459-10.449,16.938-17.252,20.908C300.441,349.555,305.528,341.716,311.258,334.538z"/>
	<path id="path26800" fill="#222222" stroke="#727271" stroke-width="2" d="M284.083,362.355c0.57,0.013,1.209,0.081,1.879,0.216
		c0.159,0.576-0.546,0.527-0.823,0.787C278.803,364.746,280.076,362.271,284.083,362.355z"/>
	<path id="path26798" fill="#222222" stroke="#727271" stroke-width="2" d="M264.967,362.556c1.473-0.095,2.82,0.512,4.021,1.711
		c-2.389-0.805-9.391,2.265-8.742,0.756C261.907,363.441,263.494,362.649,264.967,362.556z"/>
	<path id="path26796" fill="#222222" stroke="#727271" stroke-width="2" d="M286.366,368.784c0.211,0.005,0.233,0.298-0.032,1.019
		c-1.353,3.514-9.807,9.89-4.271,3.347C282.498,372.418,285.61,368.77,286.366,368.784z"/>
	<path id="path26794" fill="#222222" stroke="#727271" stroke-width="2" d="M239.733,373.256c3.128,1.677,11.48,0.017,12.112,1.249
		l-0.265,0.154l-0.373,0.077C247.836,375.412,236.151,375.998,239.733,373.256z"/>
	<path id="path26792" fill="#222222" stroke="#727271" stroke-width="2" d="M314.828,377.173c0.364,0.009-0.103,0.837-0.496,0.849
		c-3.785,4.367-7.044,12.375-8.819,15.65c0.481-5.549,5.397-11.682,8.929-16.346C314.627,377.23,314.744,377.171,314.828,377.173z"
		/>
	<path id="path26790" fill="#222222" stroke="#727271" stroke-width="2" d="M402.705,395.799c1.33,0.012,4.257,1.396,1.011,1.943
		C401.682,396.279,401.906,395.793,402.705,395.799z"/>
	<path id="path26788" fill="#222222" stroke="#727271" stroke-width="2" d="M294.222,395.938c0.774-0.043,1.192,0.134,0.668,0.74
		c-4.187,1.979-14.883-0.053-4.829,0.139C290.655,396.673,292.933,396.011,294.222,395.938z"/>
	<path id="path26786" fill="#222222" stroke="#727271" stroke-width="2" d="M317.423,397.249c0.864-0.017,1.389,0.231,1.01,1.019
		c-4.436,0.814-15.797,0.944-5.591-0.217C313.585,397.98,315.979,397.258,317.423,397.249z"/>
	<path id="path26784" fill="#222222" stroke="#727271" stroke-width="2" d="M328.215,408.135c-0.188,0.315-0.546,0.479-0.776,0.755
		c-4.938,2.438-7.406,9.14-13.308,8.942C320.03,416.545,323.014,408.401,328.215,408.135z"/>
	<path id="path26782" fill="#222222" stroke="#727271" stroke-width="2" d="M287.452,409.383c0.522-0.004,1.191,0.17,2.05,0.617
		C286.358,414.631,284.626,409.407,287.452,409.383z"/>
	<path id="path26780" fill="#222222" stroke="#727271" stroke-width="2" d="M274.983,410.479c0.104,0.016,0.186,0.114,0.219,0.339
		c-1.367,3.513-6.404,10.823-8.618,9.144C269.879,419.025,273.979,410.322,274.983,410.479z"/>
	<path id="path26778" fill="#222222" stroke="#727271" stroke-width="2" d="M322.967,424.709c1.208-0.025,1.729,0.133-0.528,0.648
		c-3.994,1.651-11.077,0.021-3.074-0.17C319.866,424.963,321.759,424.736,322.967,424.709z"/>
	<path id="path26776" fill="#222222" stroke="#727271" stroke-width="2" d="M275.666,425.065c0.379-0.021,0.667,0.166,0.684,0.739
		c-2.655,4.121-8.963,5.117-10.266,10.16c-0.596,2.863-6.877,8.779-7.47,7.078c7.285-3.85,6.675-13.561,15.22-15.773
		C273.565,426.346,274.834,425.137,275.666,425.065z"/>
	<path id="path26774" fill="#222222" stroke="#727271" stroke-width="2" d="M297.995,433.9c2.141,3.196,7.89,2.133,8.636,4.901
		c-0.26-0.018-0.449-0.414-0.73-0.276C302.991,438.891,296.738,435.303,297.995,433.9z"/>
	<path id="path26772" fill="#222222" stroke="#727271" stroke-width="2" d="M293.927,435.781c0.107-0.06,0.292,0.119,0.575,0.646
		c-1.024,7.494,4.866,13.23,8.09,17.361c-2.664,0.383-3.346,4.666-3.976,4.457c-2.721-4.293-1.592-11.537-4.658-16.715
		C294.343,440.797,293.463,436.035,293.927,435.781z"/>
	<path id="path2661" fill="#222222" stroke="#727271" stroke-width="2" d="M281.445,483.389
		C280.012,488.62,279.453,480.538,281.445,483.389z"/>
	<path id="path2663" fill="#222222" stroke="#727271" stroke-width="2" d="M270.446,466.627c3.954,3.846,8.795,8.617,6.957,14.18
		c1.431,6.213-1.941-1.233-4.846-2.19C274,473.84,264.722,470.164,270.446,466.627z"/>
	<path id="path2665" fill="#222222" stroke="#727271" stroke-width="2" d="M270.761,476.811
		C273.428,482.208,268.104,476.41,270.761,476.811z"/>
	<path id="path2667" fill="#222222" stroke="#727271" stroke-width="2" d="M275.47,500.6
		C278.236,505.008,273.042,500.329,275.47,500.6z"/>
	<path id="path2669" fill="#222222" stroke="#727271" stroke-width="2" d="M265.421,484.143c6.906,0.726,5.746,9.179,7.536,12.267
		c2.291,2.93-1.268,4.735,1.447,6.781c1.268,3.969-1.446,6.704-6.253,5.924c-8.783-1.572-6.136-10.039-9.427-16.271
		C258.776,488.075,262.742,484.952,265.421,484.143z"/>
	<path id="path2671" fill="#222222" stroke="#727271" stroke-width="2" d="M250.664,522.495
		C247.048,525.463,248.806,520.284,250.664,522.495z"/>
	<path id="line521" fill="#222222" stroke="#727271" stroke-width="2" d="M242.426,483.364c1.549,2.674-2.598,10.262-2.225,3.94
		C241.619,485.944,240.767,483.26,242.426,483.364z"/>
	<path id="path2674" fill="#222222" stroke="#727271" stroke-width="2" d="M222.106,466.529c-1.235,7.678,5.188,14.122,5.314,21.211
		c-2.413,2.653-5.595,5.145-9.771,4.617c-0.668,8.239-10.443,0.944-3.121-2.162c2.701-3.617-7.192-7.627,0.648-9.607
		c-0.643-3.819-6.624,0.523-6.445,4.479c-3.953,6.354-9.002,1.871-4.018-2.896c2.338-2.625-0.563-4.521,0.938-7.872
		c0.105-2.238,6.463-4.641,6.196-3.518c-0.985,6.018,0.646,3.686,1.809-0.195C215.426,469.361,222.428,462.342,222.106,466.529z"/>
	<path id="line523" fill="#222222" stroke="#727271" stroke-width="2" d="M236.158,462.955c0.163,7.301-5.039,6.945-5.578,14.123
		c-9.916,3.366-8.685-17.287,2.805-13.607C234.117,463.406,235.946,461.971,236.158,462.955z"/>
	<path id="path2749" fill="#222222" stroke="#727271" stroke-width="2" d="M283.488,478.004c1.474,6.144-5.689,2.894-0.346-0.584
		l0.222,0.172L283.488,478.004z"/>
	<path id="path26770" fill="#222222" stroke="#727271" stroke-width="2" d="M309.472,521.852c0.428-0.021,1.322,0.593,1.289,1.173
		c-1.238,5.598-1.857,4.442-1.259-0.312C309.12,522.106,309.216,521.862,309.472,521.852z"/>
</g>

<g id="GB-NIR" data-map-country="Nordirland" data-map-region="Nordirland" tabindex="0">
	<path id="path2494" fill="#111111" stroke="#727271" stroke-width="2" d="M206.611,525.645c-1.678,0.025-3.22,0.386-4.409,1.203
		c-5.596,1.933-10.246,5.537-16.787,5.164c-5.817-4.547-3.88,1.64-6.289,5.658c-0.721,6.906-6.736,4.51-11.507,4.502
		c-0.18-0.244-0.313-0.492-0.402-0.756l-0.621,0.51c-0.481-0.096-0.979,0.217-1.336,0.511c-0.83,0.911-1.512-0.564-2.407,0.354
		c-1.741-0.631-2.289,1.359-3.104,2.422c-0.229,0.873-1.551,1.56-1.259,2.422c1.8,0.443-0.563,1.33,0.404,2.127
		c-0.131,1.101-0.979,1.586-1.646,2.252c0.061,1.234-0.585,2.511-0.063,3.699c-0.117,1.316-0.438,2.935-1.615,3.777
		c0.021,1.248-0.759,2.106-1.832,2.606c-0.648,1.097-0.67,2.867-1.088,4.226c-0.519,0.936,0.418,2.979-1.304,2.76
		c-1.008-0.656-2.142-0.311-3.229-0.34c-1.42-0.879-2.103,0.959-3.184,1.479c-1.49,0.304-2.477,2.568-4.115,1.465
		c-1.38-0.727-2.176-2.618-3.883-2.774c-1.585,0.084-1.399,2.223-2.003,3.176c-1.104,0.562-0.877,1.711-1.631,2.438
		c1.09,1.018,2.616,1.711,3.013,3.284c1.268-0.178,2.647-0.227,3.836,0.4c1.183,0.035,1.945,2.008,3.028,0.816
		c0.725-1.271,1.554,0.885,0.697,1.264c-1.882,1.354-4.34,2.051-5.372,4.318c-0.146,1.096-2.006,0.813-1.88,1.772
		c-1.667,0.248-3.363-0.063-5.046,0.139c-0.822-0.34-1.243-1.493-2.098-0.276c-0.864,0.756-2.281,1.432-2.406,2.621
		c0.406,1.276-0.722,2.082-1.849,1.881c-0.723,1.278-2.173,1.619-3.558,1.817c-0.515,0.552,1.755,1.482,0.312,2.035
		c0.824,0.791,1.764,1.599,2.407,2.592c1.32,1.513,2.309,3.679,4.41,4.226c1.495,0.01,1.591,1.473,2.003,2.545
		c1.003,1.424,2.131,3.131,4.021,3.406c1.656,1.584,0.787,4.264,1.771,6.198c2.53,0.828,5.417,0.601,8.059,1.172
		c0.651,0.619,0.706,2.312,1.863,1.188c1.482,0.652,0.816,2.561,1.973,3.393c1.455-0.354,1.521,1.656,2.857,1.479
		c1.088-0.494,1.955,0.174,2.902,0.604c1.383-0.229,1.85-1.745,2.903-2.514c0.404-0.736,1.814-1.807,2.189-0.525
		c0.219,1.021-1.938,1.455-0.326,1.943c0.897,0.516,2.438-0.965,2.531,0.662c0.733,0.559,1.309,1.654,2.298,0.695
		c1.446,0.166,2.296-1.279,2.5-2.529c1.071-0.781,0.042-1.91,0.187-2.867c1.086-0.375,1.48-1.383,1.584-2.451
		c0.938,0.111,1.558-0.528,2.518-0.416c1.348-0.147,0.663-1.6,0.729-2.393c0.604-1.104-0.397-1.852-1.009-2.527
		c0.744-1.492-2.328-1.117-1.382-2.375c0.807-0.592,1.52-1.205,1.553-2.25c1.354-0.239,2.405-1.155,3.198-2.223
		c0.959-1.752,2.481-3.102,3.37-4.887c1.477-0.832,2.454,1.506,3.942,1.231c0.854,0.551,1.274,1.779,2.236,2.344
		c0.925,0.521,0.249,2.369,1.506,2.189c1.278,0.758,1.363,2.598,1.816,3.9c-0.881,1.293,0.677,2.243,1.195,3.254
		c-0.073,2.078,1.062,4.09,2.89,5.119c0.742,0.215,1.452,2.084,2.05,0.909c0.553-1.733,2.161-0.034,3.183,0.216
		c1.347,0.881,1.893,2.864,1.585,4.409c-0.722,1.406-1.72,3.015-0.869,4.644c1.122,0.895,1.212,3.348,3.074,2.897
		c0.568-0.875,1.847-0.729,2.718-1.188c1.053,0.375,1.898-0.063,2.517-0.924c0.479-0.959,1.475-0.711,1.926,0.139
		c0.462,1.385,1.723-0.248,2.283,0.523c0.782-0.673,2.499-0.664,2.127-2.066c0.24-1.496,1.922,0.188,2.438-0.955
		c0.573-0.981,1.695-0.848,2.081,0.217l0.775,0.508c0.169-0.213,0.479-0.411,0.994-0.586c1.376,2.509,9.222,1.929,5.808,4.564
		c4.491,1.646,11.04-3.996,11.756-8.912c-0.354-4.822,0.77-9.275,6.803-8.682c5.018,2.957,7.042-0.55,9.813-5.119
		c1.036-5.928-3.29-7.479-7.671-3.438c-0.257-0.834,5.977-7.896,2.375-10.131c-0.512-3.172-1.483-3.93-2.826-6.229
		c0.044-6.064,7.704,1.5,7.826,4.563c0.081,4.785-2.533,8.574,1.118,12.828c2.312,0.09,3.086-4.357,2.889-6.969
		c3.146-4.174-0.241-6.408-0.559-10.73c-2.025-3.698-2.138-13.131-8.169-10.901c-5.187-0.978-10.233,1.795-13.062,6.028
		c-3.199-7.104,6.839-9.094,10.498-12.768c3.84-4.232-6.55-12.795-3.728-6.184c3.461,4.108,2.651,2.771-1.242,1.141
		c-1.248-4.646-3.655-10.01-7.469-13.723c-4.736,0.241,2.127-10.146-5.188-6.894c1.603-5.967,0.061-18.088-9.085-13.309
		C214.656,527.104,210.3,525.586,206.611,525.645z M205.384,562.928C206.934,569.592,201.844,564.657,205.384,562.928z
		 M204.53,568.864c0.622-0.021,1.12,0.668,1.104,2.467c3.649,3.268,8.601-3.6,11.382,0.479c-2.045,3.646-6.266,8.107-1.601,10.115
		c-4.632,2.371-3.421,6.283-5.466,8.479c-3.119-0.218-5.064-3.867-9.161-1.279c-6.624-4.775,6.283-8.084,1.862-14.293
		C201.172,572.36,203.159,568.911,204.53,568.864z M138.269,586.643c1.465-0.063,2.901,0.273,3.991,1.142
		c-0.019,2.381,0.277,4.83,1.956,7.541c3.402-0.045,2.907,10.035,0.854,2.621c-3.202-3.666-9.964-7.025-13.604-6.556
		C131.66,588.852,135.046,586.784,138.269,586.643z M151.576,608.661c1.655-0.027,1.49,2.692,3.511,3.701
		c0.451,3.914,4.498,7.635-0.018,5.768c1.334-2.119-5.406-6.752-5.403-8.695C150.503,608.895,151.113,608.67,151.576,608.661z"/>
</g>

<g id="GB-WLS" data-map-country="Wales" data-map-region="Wales" tabindex="0">
	<path id="path2647" fill="#111111" stroke="#727271" stroke-width="2" d="M264.012,816.297
		C266.426,818.053,261.131,817.229,264.012,816.297z"/>
	<path id="path2649" fill="#111111" stroke="#727271" stroke-width="2" d="M262.687,805.77
		C262.481,809.012,260.885,804.59,262.687,805.77z"/>
	<path id="WALES INSEL KLEIN" fill="#111111" stroke="#727271" stroke-width="2" d="M295.194,687.997c2.346-1.396,6.736,5.529,3.865,6.604
		C298.463,690.51,290.994,691.557,295.194,687.997z"/>
	<path id="WALES INSEL GROSS" fill="#111111" stroke="#727271" stroke-width="2" d="M307.78,679.405c7.765-0.754,7.798,7.483,11.417,10.932
		c4.905-3.854,9.827,0.269,3.258,3.76c-4.787,2.244-7.305,8.027-10.809,10.019c-4.048,0.301-5.157-2.9-7.938-5.508
		c-3.272-4.898-4.592-11.787-2.912-17.017C303.501,680.948,304.991,679.901,307.78,679.405z"/>
	<path id="WALES" fill="#111111" stroke="#727271" stroke-width="2" d="M390.345,829.249c0.409-0.877,0.698-1.816,0.698-1.816
		s1.585-11.528,0.62-16.586c-0.437-2.291-2.242-0.311-4.734-2.477c-2.493-2.166-2.559-5.521-5.234-6.188
		c-0.748-0.188-3.987,1.795-4.734,1.484c-2.714-1.123-3.115-2.971-5.234-7.674c-2.118-4.701-3.926-9.156-3.24-11.137
		c2.316-6.689,7.191-12.689,8.976-16.582c0.312-0.683-1.311-0.435-4.736,0c-3.965,0.5-8.973-8.168-8.973-8.168
		s0.747-1.795,3.488-2.972c2.741-1.176,7.008-1.076,7.479-1.731c0.739-1.027,1.558-4.949,0.499-5.443
		c-1.062-0.496-4.113,3.525-4.736,3.465c-1.612-0.16-2.865-1.979-1.745-3.713c2.328-3.596,9.125-10.789,8.228-12.127
		c-0.249-0.373-7.979-4.664-8.228-5.197c-0.608-1.323,0.997-7.92,2.493-10.891c1.495-2.971,1.869-0.311,3.489-0.99
		c1.62-0.679,1.808-1.795,2.991-1.731c1.183,0.063,0.063,1.485,1.745,1.979c1.682,0.494,3.113-0.865,4.982,0
		c1.87,0.865,1.122,3.217,2.493,3.465s2.991-2.477,2.991-2.477l-0.748-5.197l-4.486-0.74c0,0-1.87-5.385-3.738-8.662
		c-1.868-3.28-2.805-2.973-2.99-4.454c-0.188-1.486,3.428,0.061,2.492-1.98c-0.937-2.043-5.237-5.57-5.237-5.57
		s1.854,1.33-0.487-0.344c-2.344-1.674-3.428-1.494-6.352-4.303c-7.497-10.773-16.4,2.651-25.468,0.17
		c-2.489-1.711-11.313-6.465-6.337-0.523c-3.716,1.902-11.087,5.853-16.521,6.093c-2.481,2.375-6.12,9.584-8.137,8.864
		c0.002,4.83-3.31,9.519-7.779,12.705c-5.991,3.15-11.238,7.211-13.588,13.771c1.726,1.52,2.891-1.547,5.436-0.879
		c3.272-4.146,5.782,3.315,7.919,0.973c-0.899-6.883,8.375-9.9,14.814-9.453c6.753,1.908-0.115,8.689,4.55,11.813
		c0.91,4.338,4.957,2.487,5.218,2.93c-4.978,2.527-9.233,11.516-2.221,14.896c5.146-2.436,5.194,0.861,0.295,1.664
		c-2.556,1.558-1.872,10.479-4.645,14.617c-2.955,7.617-10.745,9.808-16.087,14.063c-1.97,4.534-10.292,0.405-11.927,4.086
		c-2.225-0.082-3.354,4.92-7.11,5.565c0.813,4.918-4.447-0.02-5.497,3.347c-1.348-0.312-8.033-4.068-6.709,1.311
		c-1.852,3.644-8.264,4.141-10.686,6.801c-2.642,5.884,5.545,0.093,8.665,4.162c2.302,5.049-0.2,6.793-3.818,8.685
		c-4.238,0.561,0.854,2.063,1.489,4.641c-0.038-5.5,7.014,0.141,10.934-2.098c8.118-1.308-2.953,2.725-4.598,1.896
		c-1.411,0.623-6.354,0.037-0.854,2.189c-0.015,3.151,3.946,5.389,7.097,4.069c2.164-4.555,7.571-1.528,10.481-4.146
		c-0.314-7.389,8.189-5.533,13.557-6.508c-2.296-4.89,1.186,0.205,2.671-2.931c-0.186,1.693,5.521,5.849,0.715,4.011
		c-1.517,2.969,5.011,5.543,8.276,3.715c1.935,4.045,8.67-1.854,5.621,2.651c-4.554,3.804-7.618-1.194-10.389,3.101
		c-0.508,3.711,2.205,6.526,5.792,5.229c2.52-2.455,6.903-1.176,9.923-1.373c-4.105-4.135,5.644-5.854,7.051-3.934
		c4.549,2.363,3.021,11.623,8.432,10.688c5.479,8,16.663,8.976,24.613,5.441c-0.809-5.564,5.632-7.672,9.037-11.672
		C381.012,833.438,386.456,831.299,390.345,829.249z"/>
</g>

</svg>
